<svg version="1.1" xmlns="http://www.w3.org/2000/svg" xmlns:xlink="http://www.w3.org/1999/xlink" width="294.20403" height="224.86915" viewBox="0,0,294.20403,224.86915"><g transform="translate(-84,-99.63084)"><g data-paper-data="{&quot;isPaintingLayer&quot;:true}" fill-rule="nonzero" stroke="none" stroke-linecap="butt" stroke-linejoin="miter" stroke-miterlimit="10" stroke-dasharray="" stroke-dashoffset="0" style="mix-blend-mode: normal"><g stroke-width="0"><path d="M208.69386,301.23843v-19.18624h57.3303v19.18624z" fill="#cb9651"/><g fill="#ebae5e"><path d="M205.32765,300.99055v-13.32155h13.32157v13.32155z"/><path d="M203.34544,299.92454v-11.12265h17.53618v11.12266z"/><path d="M206.494,285.62856h11.12263v17.53618h-11.12263z"/></g><g fill="#ebae5e"><path d="M223.83315,301.17994v-10.54597h10.54597v10.54597z"/><path d="M222.26394,300.33605v-8.8052h13.88243v8.8052z"/><path d="M224.7565,289.01869h8.80518v13.88246h-8.80518z"/></g><g fill="#ebae5e"><path d="M240.14186,300.78587v-10.54597h10.54597v10.54597z"/><path d="M238.57264,299.94197v-8.8052h13.88243v8.8052z"/><path d="M241.06518,288.6246h8.80518v13.88245h-8.80518z"/></g><g fill="#ebae5e"><path d="M257.32997,301.2373v-8.5634h8.56339v8.5634z"/><path d="M256.05575,300.55205v-7.14988h11.27263v7.14988z"/><path d="M258.0797,291.36228h7.14988v11.27265h-7.14988z"/></g></g><path d="M208.44361,284.19523v-45.06611h127.4547v45.06612z" fill="#361d0e" stroke-width="0"/><path d="M223.40002,248.23304v-16.25699h97.54186v16.25699z" fill="#532d15" stroke-width="0"/><path d="M266.01282,284.37984v-16.81587h8.40794v16.81587z" fill="#201108" stroke-width="0"/><g data-paper-data="{&quot;index&quot;:null}" stroke-width="0"><path d="M277.85219,303.32365v-19.18625h57.3303v19.18625z" fill="#cb9651"/><g fill="#ebae5e"><path d="M325.22713,303.07577v-13.32155h13.32156v13.32155z"/><path d="M322.99477,302.00977v-11.12265h17.53618v11.12266z"/><path d="M337.38234,305.24998h-11.12265v-17.53619h11.12265z"/></g><g fill="#ebae5e"><path d="M309.49722,303.26518v-10.54596h10.54596v10.54596z"/><path d="M307.72999,302.42127v-8.8052h13.88244v8.8052z"/><path d="M319.11988,304.98636h-8.80518v-13.88243h8.80518z"/></g><g fill="#ebae5e"><path d="M293.18854,302.87109v-10.54597h10.54597v10.54597z"/><path d="M291.4213,302.02718v-8.8052h13.88244v8.8052z"/><path d="M302.81118,304.59227h-8.8052v-13.88243h8.8052z"/></g><g fill="#ebae5e"><path d="M277.98301,303.32253v-8.5634h8.5634v8.5634z"/><path d="M276.548,302.63729v-7.14988h11.27263v7.14988z"/><path d="M285.79665,304.72015h-7.14986v-11.27265h7.14986z"/></g></g><g stroke-width="0"><g fill="#532d15"><path d="M223.72882,212.66954v-19.41288h99.4033v19.41288z"/><path d="M208.46161,242.17111v-37.8902h127.00231v37.8902z"/></g><g fill="#442411"><path d="M228.77142,212.55694v-18.99057h90.01531v18.99057z"/><path d="M233.32917,222.81186v-13.29341h78.24114v13.29341z"/></g><path d="M242.45797,226.13344v-4.47762h21.84203v4.47762z" fill="#442411"/><path d="M278.21309,225.80582v-3.05788h3.05788v3.05788z" fill="#442411"/><path d="M299.53116,228.64528v-5.89735h2.83946v5.89735z" fill="#442411"/><path d="M295.94983,232.23599v-3.49472h3.49472v3.49472z" fill="#442411"/><path d="M311.58797,219.02156v-2.83946h2.83947v2.83946z" fill="#442411"/><path d="M230.6283,219.92919v-2.73025h2.73025v2.73025z" fill="#442411"/></g><g stroke-width="0"><path d="M212.11388,232.98283l-11.36599,32.39541l-31.98838,-11.22319l11.36599,-32.3954z" fill="#d8a057"/><g fill="#ebae5e"><path d="M201.47726,255.18834l-0.04614,21.00352l-7.71027,-0.01693l0.04613,-21.00351z"/><path d="M202.62084,256.87156l-0.03852,17.53661l-10.14959,-0.0223l0.03852,-17.53661z"/><path d="M200.749,279.40742l-6.43757,-0.01414l0.06073,-27.64854l6.43756,0.01414z"/></g><g fill="#ebae5e"><path d="M188.59238,253.97762l-6.65123,18.95735l-7.27547,-2.55263l6.65123,-18.95734z"/><path d="M189.14273,255.87444l-5.55335,15.82817l-9.57725,-3.36019l5.55335,-15.82817z"/><path d="M180.28541,275.61512l-6.07456,-2.13127l8.75552,-24.95501l6.07456,2.13127z"/></g><g fill="#ebae5e"><path d="M177.46587,246.75789l-3.72695,17.37101l-6.13048,-1.27806l3.72695,-17.37101z"/><path d="M178.07984,248.3381l-3.11176,14.5037l-8.07001,-1.68241l3.11176,-14.50369z"/><path d="M172.63134,266.67766l-5.11855,-1.0671l4.90605,-22.86678l5.11855,1.0671z"/></g><path d="M213.55519,238.16297l-7.12051,20.29489l-35.76537,-12.54836l7.12051,-20.29489z" fill="#d8a057"/><g fill="#ebae5e"><path d="M211.0228,242.39716l10.82735,12.36695l-7.32793,6.41565l-10.82734,-12.36694z"/><path d="M212.97962,242.43213l9.04015,10.32563l-9.64631,8.44539l-9.04015,-10.32563z"/><path d="M222.86697,257.22004l-6.11834,5.35665l-14.25286,-16.27957l6.11834,-5.35665z"/></g></g><g data-paper-data="{&quot;index&quot;:null}" stroke-width="0"><path d="M364.97663,219.62137l11.36599,32.3954l-31.98838,11.22319l-11.36601,-32.3954z" fill="#d8a057"/><g fill="#ebae5e"><path d="M351.33511,253.03312l0.04613,21.00351l-7.71025,0.01693l-0.04614,-21.00352z"/><path d="M352.63085,254.71101l0.03852,17.53661l-10.14961,0.02228l-0.03852,-17.53661z"/><path d="M344.2924,249.62062l6.43757,-0.01414l0.06072,27.64852l-6.43759,0.01414z"/></g><g fill="#ebae5e"><path d="M363.7852,249.28671l6.65123,18.95734l-7.27547,2.55263l-6.65123,-18.95735z"/><path d="M365.53662,250.37596l5.55336,15.82817l-9.57727,3.36022l-5.55335,-15.82818z"/><path d="M356.06119,248.52183l6.07456,-2.13127l8.75551,24.95501l-6.07454,2.13127z"/></g><g fill="#ebae5e"><path d="M373.76673,243.34154l3.72693,17.37101l-6.13047,1.27805l-3.72695,-17.37101z"/><path d="M375.09227,244.51742l3.11176,14.50369l-8.07001,1.68242l-3.11176,-14.5037z"/><path d="M367.5647,241.67259l5.11855,-1.0671l4.90605,22.86679l-5.11855,1.06709z"/></g><path d="M367.31227,223.47632l7.12051,20.29487l-35.76537,12.54837l-7.12051,-20.29489z" fill="#d8a057"/><g fill="#ebae5e"><path d="M341.40723,246.67455l-10.82734,12.36694l-7.32793,-6.41565l10.82735,-12.36694z"/><path d="M341.7688,248.73925l-9.04015,10.32563l-9.6463,-8.44539l9.04016,-10.32563z"/><path d="M336.48799,238.8022l6.11834,5.35666l-14.25286,16.27957l-6.11834,-5.35666z"/></g></g><path d="M237.35093,248.43467v-2.62105h16.49073v2.62105z" fill="#361d0e" stroke-width="0"/><path d="M264.32584,248.65309v-2.94868h2.94868v2.94868z" fill="#361d0e" stroke-width="0"/><g stroke-width="0"><path d="M244.45093,212.81109v-9.22988h56.7125v9.22989z" fill="#dfa459"/><path d="M230.93882,211.24372v-76.38943h83.77334v76.38943z" fill="#aa7e44"/><path d="M235.77332,205.61598v-66.26386h72.31459v66.26386z" fill="#dfa459"/><g><g><g fill="#000000"><path d="M286.73763,187.92879v-18.32843h18.32845v18.32843z"/><path d="M284.01038,186.46213v-15.30306h24.12709v15.30306z"/><path d="M288.34236,166.79307h15.30306v24.12709h-15.30306z"/></g><g fill="#ededed"><path d="M288.58976,185.96285v-14.2284h14.22842v14.2284z"/><path d="M286.47257,184.82427v-11.8798h18.72991v11.8798z"/><path d="M289.8355,169.55512h11.8798v18.72992h-11.8798z"/></g></g><g fill="#000000"><path d="M291.64555,183.04164v-8.07837h8.07837v8.07837z"/><path d="M290.44349,182.39519v-6.7449h10.63416v6.7449z"/><path d="M292.35284,173.72594h6.7449v10.63416h-6.7449z"/></g></g><g><g><g fill="#000000"><path d="M242.99703,186.9658v-18.32841h18.32845v18.32841z"/><path d="M240.26979,185.49912v-15.30306h24.12709v15.30306z"/><path d="M244.60175,165.83005h15.30304v24.12709h-15.30304z"/></g><g fill="#ededed"><path d="M244.84915,184.99985v-14.22842h14.22842v14.22842z"/><path d="M242.73199,183.86126v-11.8798h18.72992v11.8798z"/><path d="M246.09491,168.59213h11.8798v18.72992h-11.8798z"/></g></g><g fill="#000000"><path d="M247.90494,182.07863v-8.07837h8.07837v8.07837z"/><path d="M246.70292,181.4322v-6.74492h10.63416v6.74492z"/><path d="M248.61223,172.76293h6.74492v10.63416h-6.74492z"/></g></g><path d="M238.93275,217.85727v-7.76981h67.46168v7.76981z" fill="#aa7e44"/><g fill="#000000"><path d="M247.0369,201.97425v-3.69989h50.56542v3.69989z"/><path d="M244.9403,206.01036v-11.09973h4.06989v11.09973z"/><path d="M295.72037,204.90038v-8.75646h3.94658v8.75646z"/></g><g><g fill="#41311a"><path d="M228.17836,157.18068v-33.64553h95.93394v33.64553z"/><path d="M219.3681,165.838v-27.74281h59.32242v27.74281z"/><path d="M241.51941,132.44198v-16.52762h79.48812v16.52762z"/><path d="M247.19713,127.71981v-13.96979h71.65678v13.96979z"/></g><path d="M232.26118,154.79796v-30.40054h87.11267v30.40054z" fill="#6a4f2a"/><path d="M231.28765,139.34777v-4.39328h41.90508v4.39328z" fill="#41311a"/><path d="M224.26105,162.62031v-25.0671h53.86763v25.0671z" fill="#6a4f2a"/><path d="M280.79205,133.88852v-2.01358h35.6531v2.01358z" fill="#41311a"/><path d="M244.37552,132.44521v-14.93361h72.17905v14.93361z" fill="#6a4f2a"/><path d="M253.4327,121.28264v-3.71739h42.24301v3.71739z" fill="#f0c992"/><path d="M280.12531,123.39616v-7.09682h22.9802v7.09682z" fill="#f0c992"/><path d="M249.53117,118.20913v-2.65309h65.06783v2.65309z" fill="#6a4f2a"/><path d="M232.45742,126.95567v-2.28815h11.99701v2.28815z" fill="#f0c992"/><path d="M244.71484,119.60782v-1.85869h4.73121v1.85869z" fill="#f0c992"/><path d="M249.27708,119.60782v-4.22429h1.52075v4.22429z" fill="#f0c992"/><path d="M225.00903,142.68023v-2.53458h20.95254v2.53458z" fill="#f0c992"/></g><path d="M268.94241,118.33595v-2.73025h2.73025v2.73025z" fill="#f0c992"/><path d="M261.2977,123.90567v-2.73025h2.73025v2.73025z" fill="#f0c992"/><path d="M264.02795,126.63593v-2.73025h2.73025v2.73025z" fill="#f0c992"/><path d="M277.50944,126.08988v-2.73025h2.73025v2.73025z" fill="#f0c992"/><path d="M244.38543,129.45642v-2.51183h2.51183v2.51183z" fill="#f0c992"/><path d="M302.98506,125.95408v-2.73025h2.73025v2.73025z" fill="#f0c992"/><path d="M303.0773,120.92682v-5.13288h2.29341v5.13288z" fill="#f0c992"/><path d="M230.18634,145.26797v-2.73025h2.73025v2.73025z" fill="#f0c992"/><path d="M234.66395,129.10486v-2.40263h2.40263v2.40263z" fill="#f0c992"/><path d="M237.17578,131.28907v-2.29341h2.29341v2.29341z" fill="#f0c992"/><path d="M239.35999,129.21408v-2.29341h2.29341v2.29341z" fill="#f0c992"/><path d="M247.76917,124.0812v-2.29341h2.29341v2.29341z" fill="#f0c992"/><path d="M248.64285,142.75614v-2.29341h2.29341v2.29341z" fill="#f0c992"/><path d="M254.43099,126.04698v-2.29341h2.29341v2.29341z" fill="#f0c992"/><path d="M236.1929,140.2443v-2.29341h2.29341v2.29341z" fill="#f0c992"/><path d="M227.12845,140.1351v-2.29341h2.29341v2.29341z" fill="#f0c992"/><path d="M250.71785,144.94033v-2.29341h2.29341v2.29341z" fill="#f0c992"/><path d="M290.79797,125.50093v-2.29341h2.29341v2.29341z" fill="#f0c992"/><path d="M286.53877,118.29306v-2.29341h2.29341v2.29341z" fill="#f0c992"/><path d="M305.32292,123.20752v-2.29341h2.29341v2.29341z" fill="#f0c992"/><path d="M316.68077,129.21408v-2.29341h2.29341v2.29341z" fill="#f0c992"/><path d="M262.18491,162.74158v-2.29341h2.29341v2.29341z" fill="#41311a"/><path d="M262.94938,139.26141v-2.29341h2.29341v2.29341z" fill="#41311a"/><path d="M260.10992,160.6666v-2.29341h2.29341v2.29341z" fill="#41311a"/><path d="M236.08368,162.8508v-2.29341h6.00656v2.29341z" fill="#41311a"/><path d="M254.86783,135.32984v-5.02367h2.29341v5.02367z" fill="#41311a"/><path d="M295.60321,135.8759v-2.29341h8.19076v2.29341z" fill="#41311a"/><path d="M272.66908,131.83512v-2.29341h2.29341v2.29341z" fill="#41311a"/><path d="M267.20858,135.11143v-2.29341h2.29341v2.29341z" fill="#41311a"/><path d="M306.63344,132.59958v-2.29341h2.29341v2.29341z" fill="#41311a"/><path d="M256.94282,117.85622v-2.29341h2.29341v2.29341z" fill="#41311a"/><path d="M286.42956,154.87846v-2.29341h2.29341v2.29341z" fill="#41311a"/><path d="M276.49144,135.65747v-2.29341h2.29341v2.29341z" fill="#41311a"/><path d="M317.22682,154.87846v-2.29341h2.29341v2.29341z" fill="#41311a"/><path d="M314.93341,153.02189v-2.29341h2.29341v2.29341z" fill="#41311a"/><path d="M317.0084,147.99821v-2.29341h2.29341v2.29341z" fill="#41311a"/><path d="M224.3982,162.74158v-2.29341h2.29341v2.29341z" fill="#41311a"/><path d="M299.31636,154.87846v-2.29341h6.4434v2.29341z" fill="#41311a"/><path d="M286.32035,132.49038v-2.29341h5.4605v2.29341z" fill="#41311a"/><path d="M305.86897,203.36777v-2.29341h2.29341v2.29341z" fill="#aa7e44"/><path d="M303.68477,201.40198v-2.29341h2.29341v2.29341z" fill="#aa7e44"/><path d="M303.79398,205.66118v-2.29341h2.29341v2.29341z" fill="#aa7e44"/><path d="M235.64684,205.66118v-2.29341h2.29341v2.29341z" fill="#aa7e44"/><path d="M237.72184,203.6954v-2.29341h2.29341v2.29341z" fill="#aa7e44"/><path d="M254.32178,205.77039v-2.29341h7.31708v2.29341z" fill="#aa7e44"/><path d="M266.88095,167.98367v-2.29341h9.61049v2.29341z" fill="#aa7e44"/><path d="M278.67564,159.46529v-2.29341h2.29341v2.29341z" fill="#aa7e44"/><path d="M235.67801,184.06894v-18.23809h2.1842v18.23809z" fill="#aa7e44"/><path d="M237.86221,167.57821v-1.74736h5.78814v1.74736z" fill="#aa7e44"/><path d="M235.61492,199.65316v-2.29341h2.29341v2.29341z" fill="#aa7e44"/></g><path d="M84,322c0,-1.38071 1.11929,-2.5 2.5,-2.5c1.38071,0 2.5,1.11929 2.5,2.5c0,1.38071 -1.11929,2.5 -2.5,2.5c-1.38071,0 -2.5,-1.11929 -2.5,-2.5z" fill="none" stroke-width="0.5"/><g stroke-width="0"><g fill="#df0000"><path d="M215.51871,158.73759v-25h111.75v25z"/><path d="M244.3466,127.27917v-18h76.33334v18z"/><path d="M235.3466,129.06158v-15h11.75v15z"/><path d="M227.16667,152.75v-30.7073h100v30.7073z"/><path d="M257.81561,115.76708v-11h68.33333v11z"/><path d="M309.89895,122.10041v-10.66666h24.33333v10.66666z"/><path d="M319.44061,129.76708v-13.66667h23.33333v13.66667z"/><path d="M266.81561,115.29751v-15.66667h44v15.66667z"/></g><g fill="#f4f4f4"><path d="M214.2604,160.82283v-14.00086h38.4739v14.00086z"/><path d="M212.12723,154.78037v-13.70634h13.85372v13.70635z"/><path d="M249.92668,162.41437v-12.61846h49.60955v12.61846z"/><path d="M296.24173,159.13011v-12.87752h32.49684v12.87752z"/><path d="M317.59633,154.682v-11.06276h11.75418v11.06276z"/></g></g><g fill="#f4f4f4" stroke-width="0"><path d="M332.7855,139.10722v-20h12.75v20z"/><path d="M348.9105,136.73222h-20v-12.75h20z"/></g><path d="M215.70217,142.82845v-1.875h10.25v1.875z" fill="#ffffff" stroke-width="0"/><g stroke-width="0"><path d="M315.20264,143.86471v-2.375h12.125v2.375z" fill="#ffffff"/><g><path d="M214.51989,160.67273v-2.75h35.25v2.75z" fill="#e0e0e0"/><path d="M211.94676,155.9134v-14.75h2.625v14.75z" fill="#e0e0e0"/><path d="M214.32176,160.6634v-5.25h3.125v5.25z" fill="#e0e0e0"/><path d="M249.43622,162.43284v-3.375h50.375v3.375z" fill="#e0e0e0"/><path d="M299.08862,159.30784v-3.125h29.5v3.125z" fill="#e0e0e0"/><path d="M325.33862,157.43284v-2.875h3.25v2.875z" fill="#e0e0e0"/><path d="M326.08862,154.68284v-11.125h3.5v11.125z" fill="#e0e0e0"/><path d="M227.1801,158.05052v-2.125h8.625v2.125z" fill="#e0e0e0"/><path d="M235.5551,156.17552v-2.625h2.625v2.625z" fill="#e0e0e0"/><path d="M274.34041,159.08938v-2.125h13v2.125z" fill="#e0e0e0"/><path d="M262.90794,156.42262v-2.5h2.5v2.5z" fill="#e0e0e0"/><path d="M311.23113,155.50033v-3.125h3.125v3.125z" fill="#e0e0e0"/><path d="M323.73647,151.37533v-2.5h2.5v2.5z" fill="#e0e0e0"/><path d="M212.99084,145.29719v-4.25h2.75v4.25z" fill="#e0e0e0"/><path d="M254.4725,159.96087v-1.75h13.625v1.75z" fill="#e0e0e0"/><path d="M302.35284,156.87473v-1.75h17.5v1.75z" fill="#e0e0e0"/><path d="M246.52873,158.12964v-2.625h2.625v2.625z" data-paper-data="{&quot;index&quot;:null}" fill="#e0e0e0"/><path d="M243.90373,155.62964v-2.625h2.625v2.625z" data-paper-data="{&quot;index&quot;:null}" fill="#e0e0e0"/><path d="M214.49274,149.02458v-2.27425h2.27425v2.27425z" fill="#e0e0e0"/><path d="M216.76699,151.19995v-2.27425h2.27426v2.27425z" fill="#e0e0e0"/><path d="M214.49274,153.37533v-2.27425h2.27425v2.27425z" fill="#e0e0e0"/><path d="M321.11147,154.00033v-2.5h2.5v2.5z" fill="#e0e0e0"/><path d="M318.11147,151.37533v-2.5h2.5v2.5z" fill="#e0e0e0"/><path d="M223.95217,146.82845v-5.5h2v5.5z" fill="#ffffff"/><path d="M224.20217,148.70345v-1.875h28.625v1.875z" fill="#ffffff"/><path d="M250.56946,149.95345v-2.875h2.25v2.875z" fill="#ffffff"/><path d="M250.98957,152.12863v-2.375h45.25v2.375z" fill="#ffffff"/><path d="M295.77824,152.11471v-5.875h2.625v5.875z" fill="#ffffff"/><path d="M296.59326,148.73971v-2.375h21v2.375z" fill="#ffffff"/><path d="M315.07764,148.36471v-4.875h2.75v4.875z" fill="#ffffff"/></g><path d="M227.56793,150.77328v-2.09091h2.09091v2.09091z" fill="#ffffff"/><path d="M238.11339,149.31873v-2.09091h9.36364v2.09091z" fill="#ffffff"/><path d="M254.84066,153.68237v-2.09091h2.09091v2.09091z" fill="#ffffff"/><path d="M278.56793,152.86419v-2.09091h14.90909v2.09091z" fill="#ffffff"/><path d="M297.56793,150.046v-2.09091h9.45454v2.09091z" fill="#ffffff"/><path d="M316.74975,145.13691v-2.09091h2.09091v2.09091z" fill="#ffffff"/><path d="M294.02248,150.22782v-2.09091h2.09091v2.09091z" fill="#ffffff"/><path d="M300.38611,154.13691v-2.09091h2.09091v2.09091z" fill="#ffffff"/></g><path d="M215.61784,140.98988v-2h11.4v2z" fill="#cb0000" stroke-width="0"/><path d="M225.91784,146.58988v-7.6h2.4v7.6z" fill="#cb0000" stroke-width="0"/><path d="M226.11784,146.88987v-2.5h26.9v2.5z" fill="#cb0000" stroke-width="0"/><path d="M252.84902,149.58988v-2.9h41.4v2.9z" fill="#cb0000" stroke-width="0"/><path d="M293.64902,148.08988v-2.7h2.2v2.7z" fill="#cb0000" stroke-width="0"/><path d="M295.3604,146.22097v-2.8h19.8v2.8z" fill="#cb0000" stroke-width="0"/><path d="M313.1604,146.22097v-4.8h2.2v4.8z" fill="#cb0000" stroke-width="0"/><path d="M313.8604,141.32097v-2.2h13.4v2.2z" fill="#cb0000" stroke-width="0"/><path d="M215.53755,139.90933v-6.4h2.7v6.4z" fill="#cb0000" stroke-width="0"/><path d="M227.13275,133.74549v-11.7h2.1v11.7z" fill="#cb0000" stroke-width="0"/><path d="M235.39517,121.99923v-7.9h1.9v7.9z" fill="#cb0000" stroke-width="0"/><path d="M244.29517,113.99923v-4.7h2v4.7z" fill="#cb0000" stroke-width="0"/><path d="M325.06952,140.18638v-10.2h2.1v10.2z" fill="#cb0000" stroke-width="0"/><path d="M324.96952,130.28638v-2h3.9v2z" fill="#cb0000" stroke-width="0"/><path d="M326.76952,130.38638v-6.4h2.4v6.4z" fill="#cb0000" stroke-width="0"/><path d="M326.76952,124.08638v-2.7h5.9v2.7z" fill="#cb0000" stroke-width="0"/><path d="M330.59019,124.10586v-4.9h2.3v4.9z" fill="#cb0000" stroke-width="0"/><path d="M331.59019,119.20586v-1.7h11v1.7z" fill="#cb0000" stroke-width="0"/><path d="M340.24355,118.4991v-2.6h2.5v2.6z" fill="#cb0000" stroke-width="0"/><path d="M257.85535,109.15328v-4.3h1.9v4.3z" fill="#cb0000" stroke-width="0"/><path d="M266.95535,104.75328v-4.9h2.1v4.9z" fill="#cb0000" stroke-width="0"/><path d="M232.46452,144.93227v-3.0416h3.04159v3.0416z" fill="#cb0000" stroke-width="0"/><path d="M235.43679,142.2269v-3.0416h3.04159v3.0416z" fill="#cb0000" stroke-width="0"/><path d="M238.40907,144.99641v-3.0416h3.04159v3.0416z" fill="#cb0000" stroke-width="0"/><path d="M304.5078,143.77458v-3.04159h3.04159v3.04159z" fill="#cb0000" stroke-width="0"/><path d="M267.33107,148.57181v-3.0416h20.27727v3.0416z" fill="#cb0000" stroke-width="0"/><path d="M245.36229,146.67754v-3.0416h5.27209v3.0416z" fill="#cb0000" stroke-width="0"/><path d="M228.46283,126.12817v-2.43328h2.43327v2.43328z" fill="#cb0000" stroke-width="0"/><path d="M231.02955,128.49212v-2.43328h2.43327v2.43328z" fill="#cb0000" stroke-width="0"/><path d="M235.82678,120.71744v-4.46101h2.23049v4.46101z" fill="#cb0000" stroke-width="0"/><path d="M307.48007,140.66367v-3.0416h3.04159v3.0416z" fill="#cb0000" stroke-width="0"/><path d="M310.45234,137.75553v-3.0416h3.04159v3.0416z" fill="#cb0000" stroke-width="0"/><path d="M313.42462,140.7278v-3.0416h3.04159v3.0416z" fill="#cb0000" stroke-width="0"/><path d="M257.99833,147.34999v-3.0416h3.04159v3.0416z" fill="#cb0000" stroke-width="0"/><path d="M260.9706,144.44185v-3.0416h3.04159v3.0416z" fill="#cb0000" stroke-width="0"/><path d="M221.56337,138.89766v-3.0416h3.04159v3.0416z" fill="#cb0000" stroke-width="0"/><path d="M322.06934,133.35348v-3.0416h3.04159v3.0416z" fill="#cb0000" stroke-width="0"/><path d="M323.82498,121.92889v-3.0416h3.04159v3.0416z" fill="#cb0000" stroke-width="0"/><path d="M281.17338,145.58398v-3.0416h3.04159v3.0416z" fill="#cb0000" stroke-width="0"/><path d="M321.65861,140.44534v-3.0416h3.04159v3.0416z" fill="#cb0000" stroke-width="0"/><path d="M252.70769,138.72253v-3.0416h3.04159v3.0416z" fill="#cb0000" stroke-width="0"/><path d="M246.29455,144.19156v-3.0416h3.04159v3.0416z" fill="#cb0000" stroke-width="0"/><path d="M240.97884,133.24745v-3.04159h3.04159v3.04159z" fill="#cb0000" stroke-width="0"/><path d="M243.94636,130.43023v-3.0416h3.04159v3.0416z" fill="#cb0000" stroke-width="0"/><path d="M286.46902,131.67797v-3.0416h3.04159v3.0416z" fill="#cb0000" stroke-width="0"/><path d="M286.61932,137.45666v-3.0416h3.04159v3.0416z" fill="#cb0000" stroke-width="0"/><path d="M291.61932,142.45666v-3.0416h3.04159v3.0416z" fill="#cb0000" stroke-width="0"/><path d="M289.58382,134.79277v-3.0416h3.04159v3.0416z" fill="#cb0000" stroke-width="0"/><path d="M314.28322,126.03446v-3.0416h3.04159v3.0416z" fill="#cb0000" stroke-width="0"/><path d="M271.12913,136.97555v-3.0416h3.04159v3.0416z" fill="#cb0000" stroke-width="0"/><path d="M332.90646,139.05908v-1.40399h12.63587v1.40399z" fill="#e0e0e0" stroke-width="0"/><path d="M344.13834,139.14683v-2.80797h1.57948v2.80797z" fill="#e0e0e0" stroke-width="0"/><path d="M344.22609,136.68985v-1.31624h4.56295v1.31624z" fill="#e0e0e0" stroke-width="0"/><path d="M347.20956,135.72461v-11.67063h1.66724v11.67063z" fill="#e0e0e0" stroke-width="0"/><path d="M332.64322,139.05908v-2.89572h1.31624v2.89572z" fill="#e0e0e0" stroke-width="0"/><path d="M329.04551,136.68985v-1.31624h4.56295v1.31624z" fill="#e0e0e0" stroke-width="0"/><path d="M328.87001,135.90011v-11.75838h1.31624v11.75838z" fill="#e0e0e0" stroke-width="0"/><path d="M333.16971,137.65509v-2.28148h0.61424v2.28148z" fill="#e0e0e0" stroke-width="0"/><path d="M330.18624,135.37362v-1.57949h1.57948v1.57949z" fill="#e0e0e0" stroke-width="0"/><path d="M331.76403,133.96794v-1.57949h1.57948v1.57949z" fill="#e0e0e0" stroke-width="0"/><path d="M333.25407,135.63347v-1.57948h1.57948v1.57948z" fill="#e0e0e0" stroke-width="0"/><path d="M336.14809,138.52749v-1.57949h3.94871v1.57949z" fill="#e0e0e0" stroke-width="0"/><path d="M345.71104,132.20787v-1.57949h1.57948v1.57949z" fill="#e0e0e0" stroke-width="0"/><path d="M330.09001,126.94122v-1.57949h1.57948v1.57949z" fill="#e0e0e0" stroke-width="0"/><path d="M328.94758,124.83355v-1.49174h4.12421v1.49174z" fill="#ffffff" stroke-width="0"/><path d="M332.10484,124.7441v-5.52819h1.49174v5.52819z" fill="#ffffff" stroke-width="0"/><path d="M332.1909,120.70595v-1.49174h13.16236v1.49174z" fill="#ffffff" stroke-width="0"/><path d="M343.94758,139.83355v-1.49174h4.12421v1.49174z" fill="#ffffff" stroke-width="0"/><path d="M344.65127,125.00735v-1.49174h4.12421v1.49174z" data-paper-data="{&quot;index&quot;:null}" fill="#ffffff" stroke-width="0"/><path d="M344.12647,124.91791v-5.52819h1.49174v5.52819z" data-paper-data="{&quot;index&quot;:null}" fill="#ffffff" stroke-width="0"/><path d="M333.59997,122.29053v-1.57949h1.57948v1.57949z" fill="#ffffff" stroke-width="0"/><path d="M335.17776,123.78056v-1.57949h1.57949v1.57949z" fill="#ffffff" stroke-width="0"/><path d="M336.75555,122.28713v-1.57948h1.57949v1.57948z" fill="#ffffff" stroke-width="0"/><path d="M342.63304,123.51393v-1.57949h1.57949v1.57949z" fill="#ffffff" stroke-width="0"/></g></g></svg>