<svg version="1.1" xmlns="http://www.w3.org/2000/svg" xmlns:xlink="http://www.w3.org/1999/xlink" width="250.56482" height="217.49696" viewBox="0,0,250.56482,217.49696"><g transform="translate(-84,-107.00304)"><g data-paper-data="{&quot;isPaintingLayer&quot;:true}" fill-rule="nonzero" stroke="none" stroke-linecap="butt" stroke-linejoin="miter" stroke-miterlimit="10" stroke-dasharray="" stroke-dashoffset="0" style="mix-blend-mode: normal"><path d="M84,322c0,-1.38071 1.11929,-2.5 2.5,-2.5c1.38071,0 2.5,1.11929 2.5,2.5c0,1.38071 -1.11929,2.5 -2.5,2.5c-1.38071,0 -2.5,-1.11929 -2.5,-2.5z" fill="none" stroke-width="0.5"/><g stroke-width="0"><path d="M222.93781,200.00724v-75.48379h75.4838v75.4838z" fill="#dfa459"/><path d="M222.75698,145.29118v-20.66263h75.63997v20.66263z" fill="#6a4f2a"/><path d="M222.92469,157.47711v-16.25062h31.36291v16.25062z" fill="#6a4f2a"/><path d="M210.79364,157.52383v-33.2078h14.75901v33.2078z" fill="#6a4f2a"/><path d="M221.0989,145.19183v-29.14906h91.87489v29.14906z" fill="#6a4f2a"/><path d="M234.78985,121.72094v-11.80721h71.95021v11.80721z" fill="#6a4f2a"/><path d="M240.92382,121.39308v-14.39004h59.77402v14.39004z" fill="#6a4f2a"/><g><g data-paper-data="{&quot;index&quot;:null}"><path d="M233.2003,171.57307v-9.2873h9.2873v9.2873z" fill="#ffffff"/><path d="M242.56935,171.72306v-9.28729h9.28729v9.28729z" fill="#000000"/></g></g><g data-paper-data="{&quot;index&quot;:null}"><g data-paper-data="{&quot;index&quot;:null}"><path d="M279.09167,171.65757v-9.2873h9.28729v9.2873z" fill="#ffffff"/><path d="M269.72264,171.80754v-9.2873h9.28729v9.2873z" fill="#000000"/></g></g><g><path d="M186.89979,261.9333v-62.22304h37.06871v62.22304z" fill="#532d15"/><path d="M186.8056,263.65455v-30.16341h37.06871v30.16341z" fill="#d8a057"/></g><g><path d="M222.93781,277.37435v-77.86487h75.4838v77.86487z" fill="#532d15"/><path d="M222.95446,286.48634v-45.06385h75.35266v45.06385z" fill="#361d0e"/><path d="M222.99331,300.15099v-20.25727h75.56281v20.25727z" fill="#d8a057"/><path d="M222.63292,300.62903v-9.60377h76.0914v9.60377z" fill="#ebae5e"/></g><g><path d="M297.49611,261.71689v-62.22304h37.06871v62.22304z" fill="#532d15"/><path d="M297.40191,263.43814v-30.16341h37.06873v30.16341z" fill="#d8a057"/></g></g></g></g></svg>