<svg version="1.1" xmlns="http://www.w3.org/2000/svg" xmlns:xlink="http://www.w3.org/1999/xlink" width="243.56482" height="208.49696" viewBox="0,0,243.56482,208.49696"><g transform="translate(-84,-116.00303)"><g data-paper-data="{&quot;isPaintingLayer&quot;:true}" fill-rule="nonzero" stroke="none" stroke-linecap="butt" stroke-linejoin="miter" stroke-miterlimit="10" stroke-dasharray="" stroke-dashoffset="0" style="mix-blend-mode: normal"><path d="M84,322c0,-1.38071 1.11929,-2.5 2.5,-2.5c1.38071,0 2.5,1.11929 2.5,2.5c0,1.38071 -1.11929,2.5 -2.5,2.5c-1.38071,0 -2.5,-1.11929 -2.5,-2.5z" fill="none" stroke-width="0.5"/><g stroke-width="0"><path d="M229.53619,197.67748v-66.28837h66.28838v66.28838z" fill="#dfa459"/><path d="M229.37739,149.62692v-18.14551h66.42552v18.14551z" fill="#6a4f2a"/><path d="M229.52467,160.32836v-14.27097h27.54229v14.27097z" fill="#6a4f2a"/><path d="M218.87142,160.36939v-29.16243h12.96107v29.16243z" fill="#6a4f2a"/><path d="M227.9213,149.53967v-25.59813h80.68271v25.59813z" fill="#6a4f2a"/><path d="M239.94442,128.928v-10.36886h63.18525v10.36886z" fill="#6a4f2a"/><path d="M245.33115,128.64008v-12.63705h52.49236v12.63705z" fill="#6a4f2a"/><g><g data-paper-data="{&quot;index&quot;:null}"><path d="M238.54851,172.70716v-8.15592h8.15592v8.15592z" fill="#ffffff"/><path d="M246.77622,172.83887v-8.15591h8.15591v8.15591z" fill="#000000"/></g></g><g data-paper-data="{&quot;index&quot;:null}"><g data-paper-data="{&quot;index&quot;:null}"><path d="M278.8494,172.78136v-8.15592h8.15591v8.15592z" fill="#ffffff"/><path d="M270.6217,172.91306v-8.15592h8.15591v8.15592z" fill="#000000"/></g></g><g><path d="M197.88832,252.05972v-54.64304h32.55301v54.64304z" fill="#532d15"/><path d="M197.8056,253.57129v-26.48891h32.55301v26.48891z" fill="#d8a057"/></g><g><path d="M229.53619,265.61974v-68.37939h66.28838v68.37939z" fill="#532d15"/><path d="M229.55081,273.62171v-39.57418h66.17321v39.57418z" fill="#361d0e"/><path d="M229.58493,285.62174v-17.78953h66.35776v17.78953z" fill="#d8a057"/><path d="M229.26844,286.04154v-8.43384h66.82196v8.43384z" fill="#ebae5e"/></g><g><path d="M295.01181,251.86967v-54.64304h32.55301v54.64304z" fill="#532d15"/><path d="M294.92909,253.38124v-26.48891h32.55302v26.48891z" fill="#d8a057"/></g></g></g></g></svg>