<svg version="1.1" xmlns="http://www.w3.org/2000/svg" xmlns:xlink="http://www.w3.org/1999/xlink" width="281.13492" height="210.74998" viewBox="0,0,281.13492,210.74998"><g transform="translate(-84,-113.75002)"><g data-paper-data="{&quot;isPaintingLayer&quot;:true}" fill-rule="nonzero" stroke="none" stroke-linecap="butt" stroke-linejoin="miter" stroke-miterlimit="10" stroke-dasharray="" stroke-dashoffset="0" style="mix-blend-mode: normal"><g stroke-width="0"><path d="M208.69386,301.23843v-19.18624h57.3303v19.18624z" fill="#cb9651"/><g fill="#ebae5e"><path d="M205.32765,300.99055v-13.32155h13.32157v13.32155z"/><path d="M203.34544,299.92454v-11.12265h17.53618v11.12266z"/><path d="M206.494,285.62857h11.12263v17.53618h-11.12263z"/></g><g fill="#ebae5e"><path d="M223.83315,301.17995v-10.54597h10.54597v10.54597z"/><path d="M222.26394,300.33605v-8.8052h13.88243v8.8052z"/><path d="M224.7565,289.0187h8.80518v13.88246h-8.80518z"/></g><g fill="#ebae5e"><path d="M240.14186,300.78587v-10.54597h10.54597v10.54597z"/><path d="M238.57264,299.94197v-8.8052h13.88243v8.8052z"/><path d="M241.06518,288.62461h8.80518v13.88245h-8.80518z"/></g><g fill="#ebae5e"><path d="M257.32997,301.2373v-8.5634h8.56339v8.5634z"/><path d="M256.05575,300.55205v-7.14988h11.27263v7.14988z"/><path d="M258.0797,291.36228h7.14988v11.27265h-7.14988z"/></g></g><path d="M208.44361,284.19523v-45.06611h127.4547v45.06612z" fill="#361d0e" stroke-width="0"/><path d="M223.40002,248.23304v-16.25699h97.54186v16.25699z" fill="#532d15" stroke-width="0"/><path d="M266.01282,284.37984v-16.81587h8.40794v16.81587z" fill="#201108" stroke-width="0"/><g data-paper-data="{&quot;index&quot;:null}" stroke-width="0"><path d="M277.85219,303.32366v-19.18625h57.3303v19.18625z" fill="#cb9651"/><g fill="#ebae5e"><path d="M325.22713,303.07577v-13.32155h13.32156v13.32155z"/><path d="M322.99477,302.00977v-11.12265h17.53618v11.12266z"/><path d="M337.38234,305.24998h-11.12265v-17.53619h11.12265z"/></g><g fill="#ebae5e"><path d="M309.49722,303.26518v-10.54596h10.54596v10.54596z"/><path d="M307.72999,302.42128v-8.8052h13.88244v8.8052z"/><path d="M319.11988,304.98636h-8.80518v-13.88243h8.80518z"/></g><g fill="#ebae5e"><path d="M293.18854,302.87109v-10.54597h10.54597v10.54597z"/><path d="M291.4213,302.02719v-8.8052h13.88244v8.8052z"/><path d="M302.81118,304.59228h-8.8052v-13.88243h8.8052z"/></g><g fill="#ebae5e"><path d="M277.98301,303.32253v-8.5634h8.5634v8.5634z"/><path d="M276.548,302.63729v-7.14988h11.27263v7.14988z"/><path d="M285.79665,304.72016h-7.14986v-11.27265h7.14986z"/></g></g><g stroke-width="0"><g fill="#532d15"><path d="M223.72882,212.66954v-19.41288h99.4033v19.41288z"/><path d="M208.46161,242.17111v-37.8902h127.00231v37.8902z"/></g><g fill="#442411"><path d="M228.77142,212.55694v-18.99057h90.01531v18.99057z"/><path d="M233.32917,222.81186v-13.29341h78.24114v13.29341z"/></g><path d="M242.45797,226.13344v-4.47762h21.84203v4.47762z" fill="#442411"/><path d="M278.21309,225.80582v-3.05788h3.05788v3.05788z" fill="#442411"/><path d="M299.53116,228.64528v-5.89735h2.83946v5.89735z" fill="#442411"/><path d="M295.94983,232.23599v-3.49472h3.49472v3.49472z" fill="#442411"/><path d="M311.58797,219.02156v-2.83946h2.83947v2.83946z" fill="#442411"/><path d="M230.6283,219.92919v-2.73025h2.73025v2.73025z" fill="#442411"/></g><g data-paper-data="{&quot;index&quot;:null}" stroke-width="0"><path d="M364.3319,227.21116l-0.96746,34.3178l-33.88663,-0.9553l0.96744,-34.31781z" fill="#d8a057"/><g fill="#ebae5e"><path d="M339.64648,253.53731l-7.46622,19.63174l-7.20668,-2.7408l7.46621,-19.63175z"/><path d="M340.25668,255.56756l-6.23382,16.39127l-9.48672,-3.60794l6.23382,-16.39127z"/><path d="M334.28932,247.83241l6.01712,2.28839l-9.82835,25.84275l-6.01714,-2.2884z"/></g><g fill="#ebae5e"><path d="M352.61309,254.48975l-0.56613,20.08231l-7.70722,-0.21726l0.56614,-20.08232z"/><path d="M353.85932,256.13318l-0.47268,16.76745l-10.14561,-0.286l0.47269,-16.76745z"/><path d="M345.67308,251.0139l6.43504,0.18141l-0.74526,26.43589l-6.43502,-0.18141z"/></g><g fill="#ebae5e"><path d="M364.06043,252.50619l-2.72999,17.55532l-6.1822,-0.99823l2.72997,-17.55532z"/><path d="M364.87795,254.07827l-2.27936,14.65758l-8.13812,-1.31402l2.27937,-14.65759z"/><path d="M358.86503,248.73017l5.16175,0.83345l-3.59369,23.10941l-5.16174,-0.83346z"/></g><path d="M365.13492,231.64636l-0.60607,21.49921l-37.88776,-1.06808l0.60608,-21.49923z" fill="#d8a057"/><g fill="#ebae5e"><path d="M332.64815,244.04954l-14.53319,7.67847l-4.54982,-8.61152l14.5332,-7.67847z"/><path d="M332.24764,246.10705l-12.13431,6.41105l-5.98927,-11.33598l12.13431,-6.41105z"/><path d="M330.86863,234.93878l3.79879,7.19007l-19.13116,10.10778l-3.79879,-7.19007z"/></g></g><path d="M237.35093,248.43467v-2.62105h16.49073v2.62105z" fill="#361d0e" stroke-width="0"/><path d="M264.32584,248.65309v-2.94868h2.94868v2.94868z" fill="#361d0e" stroke-width="0"/><path d="M244.45093,212.81109v-9.22988h56.7125v9.22989z" fill="#dfa459" stroke-width="0"/><path d="M230.93882,211.24372v-76.38943h83.77334v76.38943z" fill="#aa7e44" stroke-width="0"/><path d="M235.77332,205.61598v-66.26386h72.31459v66.26386z" fill="#dfa459" stroke-width="0"/><path d="M238.93275,217.85727v-7.76981h67.46168v7.76981z" fill="#aa7e44" stroke-width="0"/><g fill="#000000" stroke-width="0"><path d="M247.0369,201.97425v-3.69989h50.56542v3.69989z"/><path d="M244.9403,206.01036v-11.09973h4.06989v11.09973z"/><path d="M295.72037,204.90038v-8.75646h3.94658v8.75646z"/></g><g stroke-width="0"><g fill="#41311a"><path d="M228.17836,157.18068v-33.64553h95.93394v33.64553z"/><path d="M219.3681,165.838v-27.74281h59.32242v27.74281z"/><path d="M241.51941,132.44199v-16.52762h79.48812v16.52762z"/><path d="M247.19713,127.71981v-13.96979h71.65678v13.96979z"/></g><path d="M232.26118,154.79796v-30.40054h87.11267v30.40054z" fill="#6a4f2a"/><path d="M231.28765,139.34777v-4.39328h41.90508v4.39328z" fill="#41311a"/><path d="M224.26105,162.62031v-25.0671h53.86763v25.0671z" fill="#6a4f2a"/><path d="M280.79205,133.88852v-2.01358h35.6531v2.01358z" fill="#41311a"/><path d="M244.37552,132.44522v-14.93361h72.17905v14.93361z" fill="#6a4f2a"/><path d="M253.4327,121.28264v-3.71739h42.24301v3.71739z" fill="#f0c992"/><path d="M280.12531,123.39616v-7.09682h22.9802v7.09682z" fill="#f0c992"/><path d="M249.53117,118.20913v-2.65309h65.06783v2.65309z" fill="#6a4f2a"/><path d="M232.45742,126.95567v-2.28815h11.99701v2.28815z" fill="#f0c992"/><path d="M244.71484,119.60782v-1.85869h4.73121v1.85869z" fill="#f0c992"/><path d="M249.27708,119.60782v-4.22429h1.52075v4.22429z" fill="#f0c992"/><path d="M225.00903,142.68023v-2.53458h20.95254v2.53458z" fill="#f0c992"/></g><path d="M268.94241,118.33595v-2.73025h2.73025v2.73025z" fill="#f0c992" stroke-width="0"/><path d="M261.2977,123.90567v-2.73025h2.73025v2.73025z" fill="#f0c992" stroke-width="0"/><path d="M264.02795,126.63593v-2.73025h2.73025v2.73025z" fill="#f0c992" stroke-width="0"/><path d="M277.50944,126.08988v-2.73025h2.73025v2.73025z" fill="#f0c992" stroke-width="0"/><path d="M244.38543,129.45642v-2.51183h2.51183v2.51183z" fill="#f0c992" stroke-width="0"/><path d="M302.98506,125.95408v-2.73025h2.73025v2.73025z" fill="#f0c992" stroke-width="0"/><path d="M303.0773,120.92682v-5.13288h2.29341v5.13288z" fill="#f0c992" stroke-width="0"/><path d="M230.18634,145.26797v-2.73025h2.73025v2.73025z" fill="#f0c992" stroke-width="0"/><path d="M234.66395,129.10487v-2.40263h2.40263v2.40263z" fill="#f0c992" stroke-width="0"/><path d="M237.17578,131.28907v-2.29341h2.29341v2.29341z" fill="#f0c992" stroke-width="0"/><path d="M239.35999,129.21408v-2.29341h2.29341v2.29341z" fill="#f0c992" stroke-width="0"/><path d="M247.76917,124.0812v-2.29341h2.29341v2.29341z" fill="#f0c992" stroke-width="0"/><path d="M248.64285,142.75614v-2.29341h2.29341v2.29341z" fill="#f0c992" stroke-width="0"/><path d="M254.43099,126.04698v-2.29341h2.29341v2.29341z" fill="#f0c992" stroke-width="0"/><path d="M236.1929,140.2443v-2.29341h2.29341v2.29341z" fill="#f0c992" stroke-width="0"/><path d="M227.12845,140.1351v-2.29341h2.29341v2.29341z" fill="#f0c992" stroke-width="0"/><path d="M250.71785,144.94033v-2.29341h2.29341v2.29341z" fill="#f0c992" stroke-width="0"/><path d="M290.79797,125.50093v-2.29341h2.29341v2.29341z" fill="#f0c992" stroke-width="0"/><path d="M286.53877,118.29306v-2.29341h2.29341v2.29341z" fill="#f0c992" stroke-width="0"/><path d="M305.32292,123.20752v-2.29341h2.29341v2.29341z" fill="#f0c992" stroke-width="0"/><path d="M316.68077,129.21408v-2.29341h2.29341v2.29341z" fill="#f0c992" stroke-width="0"/><path d="M262.18491,162.74159v-2.29341h2.29341v2.29341z" fill="#41311a" stroke-width="0"/><path d="M262.94938,139.26141v-2.29341h2.29341v2.29341z" fill="#41311a" stroke-width="0"/><path d="M260.10992,160.6666v-2.29341h2.29341v2.29341z" fill="#41311a" stroke-width="0"/><path d="M236.08368,162.8508v-2.29341h6.00656v2.29341z" fill="#41311a" stroke-width="0"/><path d="M254.86783,135.32984v-5.02367h2.29341v5.02367z" fill="#41311a" stroke-width="0"/><path d="M295.60321,135.8759v-2.29341h8.19076v2.29341z" fill="#41311a" stroke-width="0"/><path d="M272.66908,131.83512v-2.29341h2.29341v2.29341z" fill="#41311a" stroke-width="0"/><path d="M267.20858,135.11143v-2.29341h2.29341v2.29341z" fill="#41311a" stroke-width="0"/><path d="M306.63344,132.59959v-2.29341h2.29341v2.29341z" fill="#41311a" stroke-width="0"/><path d="M256.94282,117.85622v-2.29341h2.29341v2.29341z" fill="#41311a" stroke-width="0"/><path d="M286.42956,154.87846v-2.29341h2.29341v2.29341z" fill="#41311a" stroke-width="0"/><path d="M276.49144,135.65747v-2.29341h2.29341v2.29341z" fill="#41311a" stroke-width="0"/><path d="M317.22682,154.87846v-2.29341h2.29341v2.29341z" fill="#41311a" stroke-width="0"/><path d="M314.93341,153.02189v-2.29341h2.29341v2.29341z" fill="#41311a" stroke-width="0"/><path d="M317.0084,147.99822v-2.29341h2.29341v2.29341z" fill="#41311a" stroke-width="0"/><path d="M224.3982,162.74159v-2.29341h2.29341v2.29341z" fill="#41311a" stroke-width="0"/><path d="M299.31636,154.87846v-2.29341h6.4434v2.29341z" fill="#41311a" stroke-width="0"/><path d="M286.32035,132.49038v-2.29341h5.4605v2.29341z" fill="#41311a" stroke-width="0"/><path d="M305.86897,203.36777v-2.29341h2.29341v2.29341z" fill="#aa7e44" stroke-width="0"/><path d="M303.68477,201.40198v-2.29341h2.29341v2.29341z" fill="#aa7e44" stroke-width="0"/><path d="M303.79398,205.66118v-2.29341h2.29341v2.29341z" fill="#aa7e44" stroke-width="0"/><path d="M235.64684,205.66118v-2.29341h2.29341v2.29341z" fill="#aa7e44" stroke-width="0"/><path d="M237.72184,203.6954v-2.29341h2.29341v2.29341z" fill="#aa7e44" stroke-width="0"/><path d="M254.32178,205.77039v-2.29341h7.31708v2.29341z" fill="#aa7e44" stroke-width="0"/><path d="M266.88095,167.98367v-2.29341h9.61049v2.29341z" fill="#aa7e44" stroke-width="0"/><path d="M278.67564,159.46529v-2.29341h2.29341v2.29341z" fill="#aa7e44" stroke-width="0"/><path d="M235.67801,184.06894v-18.23809h2.1842v18.23809z" fill="#aa7e44" stroke-width="0"/><path d="M237.86221,167.57821v-1.74736h5.78814v1.74736z" fill="#aa7e44" stroke-width="0"/><path d="M235.61492,199.65316v-2.29341h2.29341v2.29341z" fill="#aa7e44" stroke-width="0"/><path d="M84,322c0,-1.38071 1.11929,-2.5 2.5,-2.5c1.38071,0 2.5,1.11929 2.5,2.5c0,1.38071 -1.11929,2.5 -2.5,2.5c-1.38071,0 -2.5,-1.11929 -2.5,-2.5z" fill="none" stroke-width="0.5"/><g stroke-width="0"><g><g fill="#000000"><path d="M233.68543,189.12294v-26.09184h26.09189v26.09184z"/><path d="M229.803,187.03501v-21.78503h34.34668v21.78503z"/><path d="M235.96987,159.03465h21.785v34.34668h-21.785z"/></g><g fill="#ededed"><path d="M236.32206,186.32427v-20.2552h20.2552v20.2552z"/><path d="M233.30813,184.7034v-16.91177h26.66341v16.91177z"/><path d="M238.09549,162.96667h16.91177v26.66341h-16.91177z"/></g></g><g fill="#000000"><path d="M236.14605,182.16569v-11.50015h11.50015v11.50015z"/><path d="M234.43488,181.24545v-9.60189h15.13851v9.60189z"/><path d="M237.15293,168.90411h9.60189v15.13851h-9.60189z"/></g></g><g stroke-width="0"><g><g fill="#000000"><path d="M286.87664,190.40799v-25.40178h25.40181v25.40178z"/><path d="M283.09688,188.37531v-21.20885h33.43827v21.20885z"/><path d="M289.10067,161.11552h21.20885v33.43827h-21.20885z"/></g><g fill="#ededed"><path d="M289.44355,187.68335v-19.71946h19.71949v19.71946z"/><path d="M286.50929,186.10536v-16.46448h25.9582v16.46448z"/><path d="M291.17005,164.94351h16.46448v25.95821h-16.46448z"/></g></g><g fill="#000000"><path d="M298.39982,182.69054v-11.19599h11.19599v11.19599z"/><path d="M296.73386,181.79461v-9.34791h14.73812v9.34791z"/><path d="M299.38007,169.7797h9.34791v14.73812h-9.34791z"/></g></g><path d="M161.40096,185.36064l46.38468,-0.20418l0.2016,45.80189l-46.38467,0.20417z" fill="#d8a057" stroke-width="0"/><path d="M167.3421,181.17983l29.05881,-0.1279l0.2254,51.20989l-29.05881,0.1279z" fill="#d8a057" stroke-width="0"/><g fill="#ebae5e" stroke-width="0"><path d="M180.32536,184.25942l0.46764,-22.20298l13.15618,0.2771l-0.46764,22.20296z"/><path d="M178.40513,182.44147l0.39047,-18.53809l17.31847,0.36479l-0.39047,18.53809z"/><path d="M182.0165,158.67991l10.98455,0.23136l-0.61561,29.22749l-10.98456,-0.23136z"/></g><g fill="#ebae5e" stroke-width="0"><path d="M192.935,188.69604l15.37027,-0.46227l0.09193,10.41597l-15.37027,0.46229z"/><path d="M194.15126,187.10918l12.83321,-0.38597l0.12101,13.7113l-12.83321,0.38597z"/><path d="M210.66754,189.07491l0.07675,8.69665l-20.23307,0.60854l-0.07675,-8.69664z"/></g><g fill="#ebae5e" stroke-width="0"><path d="M194.70818,204.83956l13.398,-0.05309l0.01005,10.41732l-13.398,0.05309z"/><path d="M195.77881,203.28522l11.18647,-0.04432l0.01324,13.71308l-11.18647,0.04433z"/><path d="M210.1592,205.6904l0.0084,8.6978l-17.63682,0.0699l-0.0084,-8.6978z"/></g><g fill="#ebae5e" stroke-width="0"><path d="M196.50632,221.20503l19.30006,0.26066l-0.03432,8.46085l-19.30006,-0.26067z"/><path d="M198.05583,219.96693l16.11433,0.21762l-0.04519,11.13765l-16.11432,-0.21763z"/><path d="M218.75949,222.24638l-0.02866,7.06426l-25.40613,-0.34311l0.02867,-7.06426z"/></g></g></g></svg>