<svg version="1.1" xmlns="http://www.w3.org/2000/svg" xmlns:xlink="http://www.w3.org/1999/xlink" width="294.20403" height="210.74998" viewBox="0,0,294.20403,210.74998"><g transform="translate(-84,-113.75002)"><g data-paper-data="{&quot;isPaintingLayer&quot;:true}" fill-rule="nonzero" stroke="none" stroke-linecap="butt" stroke-linejoin="miter" stroke-miterlimit="10" stroke-dasharray="" stroke-dashoffset="0" style="mix-blend-mode: normal"><g stroke-width="0"><path d="M208.69386,301.23843v-19.18624h57.3303v19.18624z" fill="#cb9651"/><g fill="#ebae5e"><path d="M205.32765,300.99055v-13.32155h13.32157v13.32155z"/><path d="M203.34544,299.92454v-11.12265h17.53618v11.12266z"/><path d="M206.494,285.62857h11.12263v17.53618h-11.12263z"/></g><g fill="#ebae5e"><path d="M223.83315,301.17995v-10.54597h10.54597v10.54597z"/><path d="M222.26394,300.33605v-8.8052h13.88243v8.8052z"/><path d="M224.7565,289.0187h8.80518v13.88246h-8.80518z"/></g><g fill="#ebae5e"><path d="M240.14186,300.78587v-10.54597h10.54597v10.54597z"/><path d="M238.57264,299.94197v-8.8052h13.88243v8.8052z"/><path d="M241.06518,288.62461h8.80518v13.88245h-8.80518z"/></g><g fill="#ebae5e"><path d="M257.32997,301.2373v-8.5634h8.56339v8.5634z"/><path d="M256.05575,300.55205v-7.14988h11.27263v7.14988z"/><path d="M258.0797,291.36228h7.14988v11.27265h-7.14988z"/></g></g><path d="M208.44361,284.19523v-45.06611h127.4547v45.06612z" fill="#361d0e" stroke-width="0"/><path d="M223.40002,248.23304v-16.25699h97.54186v16.25699z" fill="#532d15" stroke-width="0"/><path d="M266.01282,284.37984v-16.81587h8.40794v16.81587z" fill="#201108" stroke-width="0"/><g data-paper-data="{&quot;index&quot;:null}" stroke-width="0"><path d="M277.85219,303.32366v-19.18625h57.3303v19.18625z" fill="#cb9651"/><g fill="#ebae5e"><path d="M325.22713,303.07577v-13.32155h13.32156v13.32155z"/><path d="M322.99477,302.00977v-11.12265h17.53618v11.12266z"/><path d="M337.38234,305.24998h-11.12265v-17.53619h11.12265z"/></g><g fill="#ebae5e"><path d="M309.49722,303.26518v-10.54596h10.54596v10.54596z"/><path d="M307.72999,302.42128v-8.8052h13.88244v8.8052z"/><path d="M319.11988,304.98636h-8.80518v-13.88243h8.80518z"/></g><g fill="#ebae5e"><path d="M293.18854,302.87109v-10.54597h10.54597v10.54597z"/><path d="M291.4213,302.02719v-8.8052h13.88244v8.8052z"/><path d="M302.81118,304.59228h-8.8052v-13.88243h8.8052z"/></g><g fill="#ebae5e"><path d="M277.98301,303.32253v-8.5634h8.5634v8.5634z"/><path d="M276.548,302.63729v-7.14988h11.27263v7.14988z"/><path d="M285.79665,304.72016h-7.14986v-11.27265h7.14986z"/></g></g><g stroke-width="0"><g fill="#532d15"><path d="M223.72882,212.66954v-19.41288h99.4033v19.41288z"/><path d="M208.46161,242.17111v-37.8902h127.00231v37.8902z"/></g><g fill="#442411"><path d="M228.77142,212.55694v-18.99057h90.01531v18.99057z"/><path d="M233.32917,222.81186v-13.29341h78.24114v13.29341z"/></g><path d="M242.45797,226.13344v-4.47762h21.84203v4.47762z" fill="#442411"/><path d="M278.21309,225.80582v-3.05788h3.05788v3.05788z" fill="#442411"/><path d="M299.53116,228.64528v-5.89735h2.83946v5.89735z" fill="#442411"/><path d="M295.94983,232.23599v-3.49472h3.49472v3.49472z" fill="#442411"/><path d="M311.58797,219.02156v-2.83946h2.83947v2.83946z" fill="#442411"/><path d="M230.6283,219.92919v-2.73025h2.73025v2.73025z" fill="#442411"/></g><g data-paper-data="{&quot;index&quot;:null}" stroke-width="0"><path d="M139.42734,181.14665l-15.89731,-30.42899l30.04667,-15.69758l15.89731,30.429z" fill="#d8a057"/><g fill="#ebae5e"><path d="M148.1328,146.12307l-3.0598,-20.77949l7.62803,-1.12323l3.05982,20.7795z"/><path d="M146.6097,144.64853l-2.55475,-17.34957l10.04133,-1.47861l2.55475,17.34957z"/><path d="M155.59236,148.4896l-6.3689,0.93783l-4.02786,-27.35364l6.36891,-0.93783z"/></g><g fill="#ebae5e"><path d="M136.34923,151.61738l-9.3029,-17.80662l6.83384,-3.57029l9.3029,17.80663z"/><path d="M134.45962,150.79075l-7.76732,-14.86739l8.99591,-4.69981l7.76732,14.86739z"/><path d="M144.10307,151.26589l-5.70583,2.98095l-12.24611,-23.44023l5.70583,-2.98095z"/></g><g fill="#ebae5e"><path d="M127.3242,158.93343l-6.18124,-16.65636l5.88361,-2.1446l6.18124,16.65636z"/><path d="M125.84362,157.95996l-5.16093,-13.90701l7.74504,-2.8231l5.16093,13.90702z"/><path d="M133.70151,159.69508l-4.91243,1.7906l-8.13681,-21.92604l4.91243,-1.7906z"/></g><path d="M136.56262,177.66678l-9.95927,-19.06298l33.5944,-17.55106l9.95927,19.06298z" fill="#d8a057"/><g fill="#ebae5e"><path d="M158.87044,150.99113l8.94053,-13.79273l8.17277,5.29763l-8.94053,13.79274z"/><path d="M158.21631,148.99968l7.46478,-11.51608l10.75844,6.97366l-7.46478,11.51608z"/><path d="M164.86849,158.07605l-6.82373,-4.42318l11.7691,-18.15645l6.82373,4.42318z"/></g></g><g data-paper-data="{&quot;index&quot;:null}" stroke-width="0"><path d="M364.97663,219.62137l11.36599,32.3954l-31.98838,11.22319l-11.36601,-32.3954z" fill="#d8a057"/><g fill="#ebae5e"><path d="M351.33511,253.03312l0.04613,21.00351l-7.71025,0.01693l-0.04614,-21.00352z"/><path d="M352.63085,254.71101l0.03852,17.53661l-10.14961,0.02228l-0.03852,-17.53661z"/><path d="M344.2924,249.62062l6.43757,-0.01414l0.06072,27.64852l-6.43759,0.01414z"/></g><g fill="#ebae5e"><path d="M363.7852,249.28671l6.65123,18.95734l-7.27547,2.55263l-6.65123,-18.95735z"/><path d="M365.53662,250.37596l5.55336,15.82817l-9.57727,3.36022l-5.55335,-15.82818z"/><path d="M356.06119,248.52183l6.07456,-2.13127l8.75551,24.95501l-6.07454,2.13127z"/></g><g fill="#ebae5e"><path d="M373.76673,243.34154l3.72693,17.37101l-6.13047,1.27805l-3.72695,-17.37101z"/><path d="M375.09227,244.51742l3.11176,14.50369l-8.07001,1.68242l-3.11176,-14.5037z"/><path d="M367.5647,241.67259l5.11855,-1.0671l4.90605,22.86679l-5.11855,1.06709z"/></g><path d="M367.31227,223.47632l7.12051,20.29487l-35.76537,12.54837l-7.12051,-20.29489z" fill="#d8a057"/><g fill="#ebae5e"><path d="M341.40723,246.67455l-10.82734,12.36694l-7.32793,-6.41565l10.82735,-12.36694z"/><path d="M341.7688,248.73925l-9.04015,10.32563l-9.6463,-8.44539l9.04016,-10.32563z"/><path d="M336.48799,238.8022l6.11834,5.35666l-14.25286,16.27957l-6.11834,-5.35666z"/></g></g><path d="M237.35093,248.43467v-2.62105h16.49073v2.62105z" fill="#361d0e" stroke-width="0"/><path d="M264.32584,248.65309v-2.94868h2.94868v2.94868z" fill="#361d0e" stroke-width="0"/><g stroke-width="0"><path d="M244.45093,212.81109v-9.22988h56.7125v9.22989z" fill="#dfa459"/><path d="M230.93882,211.24372v-76.38943h83.77334v76.38943z" fill="#aa7e44"/><path d="M235.77332,205.61598v-66.26386h72.31459v66.26386z" fill="#dfa459"/><g><g><g fill="#000000"><path d="M286.73763,187.92879v-18.32843h18.32845v18.32843z"/><path d="M284.01038,186.46213v-15.30306h24.12709v15.30306z"/><path d="M288.34236,166.79307h15.30306v24.12709h-15.30306z"/></g><g fill="#ededed"><path d="M288.58976,185.96285v-14.2284h14.22842v14.2284z"/><path d="M286.47257,184.82427v-11.8798h18.72991v11.8798z"/><path d="M289.8355,169.55512h11.8798v18.72992h-11.8798z"/></g></g><g fill="#000000"><path d="M291.64555,183.04164v-8.07837h8.07837v8.07837z"/><path d="M290.44349,182.39519v-6.7449h10.63416v6.7449z"/><path d="M292.35284,173.72594h6.7449v10.63416h-6.7449z"/></g></g><g><g><g fill="#000000"><path d="M242.99703,186.9658v-18.32841h18.32845v18.32841z"/><path d="M240.26979,185.49912v-15.30306h24.12709v15.30306z"/><path d="M244.60175,165.83006h15.30304v24.12709h-15.30304z"/></g><g fill="#ededed"><path d="M244.84915,184.99985v-14.22842h14.22842v14.22842z"/><path d="M242.73199,183.86126v-11.8798h18.72992v11.8798z"/><path d="M246.09491,168.59213h11.8798v18.72992h-11.8798z"/></g></g><g fill="#000000"><path d="M247.90494,182.07863v-8.07837h8.07837v8.07837z"/><path d="M246.70292,181.4322v-6.74492h10.63416v6.74492z"/><path d="M248.61223,172.76293h6.74492v10.63416h-6.74492z"/></g></g><path d="M238.93275,217.85727v-7.76981h67.46168v7.76981z" fill="#aa7e44"/><g fill="#000000"><path d="M247.0369,201.97425v-3.69989h50.56542v3.69989z"/><path d="M244.9403,206.01036v-11.09973h4.06989v11.09973z"/><path d="M295.72037,204.90038v-8.75646h3.94658v8.75646z"/></g><g><g fill="#41311a"><path d="M228.17836,157.18068v-33.64553h95.93394v33.64553z"/><path d="M219.3681,165.838v-27.74281h59.32242v27.74281z"/><path d="M241.51941,132.44199v-16.52762h79.48812v16.52762z"/><path d="M247.19713,127.71981v-13.96979h71.65678v13.96979z"/></g><path d="M232.26118,154.79796v-30.40054h87.11267v30.40054z" fill="#6a4f2a"/><path d="M231.28765,139.34777v-4.39328h41.90508v4.39328z" fill="#41311a"/><path d="M224.26105,162.62031v-25.0671h53.86763v25.0671z" fill="#6a4f2a"/><path d="M280.79205,133.88852v-2.01358h35.6531v2.01358z" fill="#41311a"/><path d="M244.37552,132.44522v-14.93361h72.17905v14.93361z" fill="#6a4f2a"/><path d="M253.4327,121.28264v-3.71739h42.24301v3.71739z" fill="#f0c992"/><path d="M280.12531,123.39616v-7.09682h22.9802v7.09682z" fill="#f0c992"/><path d="M249.53117,118.20913v-2.65309h65.06783v2.65309z" fill="#6a4f2a"/><path d="M232.45742,126.95567v-2.28815h11.99701v2.28815z" fill="#f0c992"/><path d="M244.71484,119.60782v-1.85869h4.73121v1.85869z" fill="#f0c992"/><path d="M249.27708,119.60782v-4.22429h1.52075v4.22429z" fill="#f0c992"/><path d="M225.00903,142.68023v-2.53458h20.95254v2.53458z" fill="#f0c992"/></g><path d="M268.94241,118.33595v-2.73025h2.73025v2.73025z" fill="#f0c992"/><path d="M261.2977,123.90567v-2.73025h2.73025v2.73025z" fill="#f0c992"/><path d="M264.02795,126.63593v-2.73025h2.73025v2.73025z" fill="#f0c992"/><path d="M277.50944,126.08988v-2.73025h2.73025v2.73025z" fill="#f0c992"/><path d="M244.38543,129.45642v-2.51183h2.51183v2.51183z" fill="#f0c992"/><path d="M302.98506,125.95408v-2.73025h2.73025v2.73025z" fill="#f0c992"/><path d="M303.0773,120.92682v-5.13288h2.29341v5.13288z" fill="#f0c992"/><path d="M230.18634,145.26797v-2.73025h2.73025v2.73025z" fill="#f0c992"/><path d="M234.66395,129.10487v-2.40263h2.40263v2.40263z" fill="#f0c992"/><path d="M237.17578,131.28907v-2.29341h2.29341v2.29341z" fill="#f0c992"/><path d="M239.35999,129.21408v-2.29341h2.29341v2.29341z" fill="#f0c992"/><path d="M247.76917,124.0812v-2.29341h2.29341v2.29341z" fill="#f0c992"/><path d="M248.64285,142.75614v-2.29341h2.29341v2.29341z" fill="#f0c992"/><path d="M254.43099,126.04698v-2.29341h2.29341v2.29341z" fill="#f0c992"/><path d="M236.1929,140.2443v-2.29341h2.29341v2.29341z" fill="#f0c992"/><path d="M227.12845,140.1351v-2.29341h2.29341v2.29341z" fill="#f0c992"/><path d="M250.71785,144.94033v-2.29341h2.29341v2.29341z" fill="#f0c992"/><path d="M290.79797,125.50093v-2.29341h2.29341v2.29341z" fill="#f0c992"/><path d="M286.53877,118.29306v-2.29341h2.29341v2.29341z" fill="#f0c992"/><path d="M305.32292,123.20752v-2.29341h2.29341v2.29341z" fill="#f0c992"/><path d="M316.68077,129.21408v-2.29341h2.29341v2.29341z" fill="#f0c992"/><path d="M262.18491,162.74159v-2.29341h2.29341v2.29341z" fill="#41311a"/><path d="M262.94938,139.26141v-2.29341h2.29341v2.29341z" fill="#41311a"/><path d="M260.10992,160.6666v-2.29341h2.29341v2.29341z" fill="#41311a"/><path d="M236.08368,162.8508v-2.29341h6.00656v2.29341z" fill="#41311a"/><path d="M254.86783,135.32984v-5.02367h2.29341v5.02367z" fill="#41311a"/><path d="M295.60321,135.8759v-2.29341h8.19076v2.29341z" fill="#41311a"/><path d="M272.66908,131.83512v-2.29341h2.29341v2.29341z" fill="#41311a"/><path d="M267.20858,135.11143v-2.29341h2.29341v2.29341z" fill="#41311a"/><path d="M306.63344,132.59959v-2.29341h2.29341v2.29341z" fill="#41311a"/><path d="M256.94282,117.85622v-2.29341h2.29341v2.29341z" fill="#41311a"/><path d="M286.42956,154.87846v-2.29341h2.29341v2.29341z" fill="#41311a"/><path d="M276.49144,135.65747v-2.29341h2.29341v2.29341z" fill="#41311a"/><path d="M317.22682,154.87846v-2.29341h2.29341v2.29341z" fill="#41311a"/><path d="M314.93341,153.02189v-2.29341h2.29341v2.29341z" fill="#41311a"/><path d="M317.0084,147.99822v-2.29341h2.29341v2.29341z" fill="#41311a"/><path d="M224.3982,162.74159v-2.29341h2.29341v2.29341z" fill="#41311a"/><path d="M299.31636,154.87846v-2.29341h6.4434v2.29341z" fill="#41311a"/><path d="M286.32035,132.49038v-2.29341h5.4605v2.29341z" fill="#41311a"/><path d="M305.86897,203.36777v-2.29341h2.29341v2.29341z" fill="#aa7e44"/><path d="M303.68477,201.40198v-2.29341h2.29341v2.29341z" fill="#aa7e44"/><path d="M303.79398,205.66118v-2.29341h2.29341v2.29341z" fill="#aa7e44"/><path d="M235.64684,205.66118v-2.29341h2.29341v2.29341z" fill="#aa7e44"/><path d="M237.72184,203.6954v-2.29341h2.29341v2.29341z" fill="#aa7e44"/><path d="M254.32178,205.77039v-2.29341h7.31708v2.29341z" fill="#aa7e44"/><path d="M266.88095,167.98367v-2.29341h9.61049v2.29341z" fill="#aa7e44"/><path d="M278.67564,159.46529v-2.29341h2.29341v2.29341z" fill="#aa7e44"/><path d="M235.67801,184.06894v-18.23809h2.1842v18.23809z" fill="#aa7e44"/><path d="M237.86221,167.57821v-1.74736h5.78814v1.74736z" fill="#aa7e44"/><path d="M235.61492,199.65316v-2.29341h2.29341v2.29341z" fill="#aa7e44"/></g><path d="M84,322c0,-1.38071 1.11929,-2.5 2.5,-2.5c1.38071,0 2.5,1.11929 2.5,2.5c0,1.38071 -1.11929,2.5 -2.5,2.5c-1.38071,0 -2.5,-1.11929 -2.5,-2.5z" fill="none" stroke-width="0.5"/></g></g></svg>