<svg version="1.1" xmlns="http://www.w3.org/2000/svg" xmlns:xlink="http://www.w3.org/1999/xlink" width="241.78954" height="349.57922" viewBox="0,0,241.78954,349.57922"><g transform="translate(-120.40888,-2.98047)"><g data-paper-data="{&quot;isPaintingLayer&quot;:true}" fill-rule="nonzero" stroke-linecap="butt" stroke-linejoin="miter" stroke-miterlimit="10" stroke-dasharray="" stroke-dashoffset="0" style="mix-blend-mode: normal"><g stroke="none" stroke-width="0"><path d="M339.08921,19.26716v-12.09218h10.84705v12.09218z" fill="#81683a"/><path d="M349.93626,36.54169v-19.86572h4.69061v19.86572z" fill="#81683a"/><path d="M349.82536,337.82702v-14.68336h4.10429v14.68336z" fill="#81683a"/><path d="M337.19254,348.9074v-14.88079h13.80547v14.88079z" fill="#81683a"/><path d="M333.73753,33.03249v-21.50131h6.32484v21.50131z" fill="#81683a"/><path d="M333.73753,53.10036v-25.80159h3.40569v25.80159z" fill="#81683a"/><path d="M334.22405,344.89691v-18.63447h5.83832v18.63447z" fill="#81683a"/><path d="M334.22405,337.72981v-34.40209h3.40568v34.40209z" fill="#81683a"/><path d="M349.77695,330.91722v-301.44095h8.25698v301.44095z" fill="#81683a"/><path d="M355.90587,315.13874v-258.01568h4.37874v258.01568z" fill="#81683a"/><path d="M131.9543,337.52844v-317.85179h17.5898v317.8518z" fill="#e3c466"/><path d="M142.70699,345.07108v-331.12014h202.88147v331.12014z" fill="#e3c466"/><path d="M128.2218,324.29687v-288.94448h34.35624v288.94448z" fill="#e3c466"/><path d="M131.14096,314.86938v-265.1828h11.88246v265.1828z" fill="#d9bb61"/><path d="M134.29961,326.29998v-287.62132h5.86327v287.62133z" fill="#d9bb61"/><path d="M132.16444,19.86828v-12.09218h10.84704v12.09218z" fill="#81683a"/><path d="M127.47383,37.14284v-19.86574h4.69062v19.86575z" fill="#81683a"/><path d="M128.17103,338.42815v-14.68337h4.10429v14.68337z" fill="#81683a"/><path d="M146.41976,35.78372v-27.23499h198.50274v27.235z" fill="#81683a"/><path d="M146.90629,352.5597v-28.6485h198.98926v28.6485z" fill="#81683a"/><path d="M142.03832,33.63358v-21.50131h6.32484v21.50131z" fill="#81683a"/><path d="M145.12081,53.70148v-25.80156h3.40569v25.80156z" fill="#81683a"/><path d="M142.03832,345.49803v-18.63447h5.83831v18.63447z" fill="#81683a"/><path d="M144.47096,338.33094v-34.4021h3.40568v34.4021z" fill="#81683a"/><path d="M146.86071,331.23377v-17.20103h77.84421v17.20103z" fill="#81683a"/><path d="M288.68536,334.10062v-20.06788h62.76189v20.06788z" fill="#81683a"/><path d="M148.32028,47.41653v-17.20103h76.38463v17.20104z" fill="#81683a"/><path d="M269.95186,45.98312v-31.58123h79.11781v31.58124z" fill="#81683a"/><path d="M216.92049,14.44785v-11.46737h57.89663v11.46738z" fill="#81683a"/><path d="M124.06676,331.51831v-301.44095h4.69062v301.44095z" fill="#81683a"/><path d="M121.81609,315.73985v-258.01568h4.37874v258.01568z" fill="#81683a"/><path d="M126.06746,297.8601v-226.29666h2.93164v226.29666z" fill="#e3c466"/><path d="M166.08958,51.14818v-6.90983h44.56081v6.90983z" fill="#e3c466"/><path d="M289.88705,51.14818v-10.36473h49.25143v10.36473z" fill="#e3c466"/><path d="M158.30272,320.45009v-10.36473h58.04633v10.36473z" fill="#e3c466"/><path d="M292.42557,320.45009v-15.5471h49.25143v15.5471z" fill="#e3c466"/><path d="M128.56931,284.81128v-193.47499h18.17612v193.475z" fill="#d9bb61"/><path d="M120.40888,287.02959v-206.43091h2.05214v206.43091z" fill="#81683a"/><path d="M124.51317,270.61877v-164.97197h2.05214v164.97197z" fill="#e3c466"/><path d="M359.26679,292.97945v-210.74955h2.93163v210.74956z" fill="#81683a"/><path d="M149.4524,130.39255v-85.65711h6.69669v85.65711z" fill="#81683a"/><path d="M146.18571,79.38326v-35.12904h5.71669v35.12905z" fill="#81683a"/><path d="M146.41464,314.34082v-23.57976h2.77667v23.57976z" fill="#81683a"/><path d="M149.19131,341.28912v-110.19932h6.69669v110.19932z" fill="#81683a"/><path d="M150.33464,243.76305v-115.97394h4.73668v115.97395z" fill="#81683a"/><path d="M154.58131,316.313v-270.92667h2.61335v270.92668z" fill="#81683a"/><path d="M156.21466,130.24055v-87.58197h2.28667v87.58198z" fill="#81683a"/><path d="M154.58131,321.77223v-77.95759h4.41002v77.95759z" fill="#81683a"/><path d="M157.52133,325.62199v-10.58684h2.61334v10.58684z" fill="#81683a"/><path d="M155.6087,89.06956v-55.17239h6.38901v55.17239z" fill="#81683a"/><path d="M158.25244,61.15882v-26.61257h6.82962v26.61258z" fill="#81683a"/><path d="M157.73205,333.57193v-53.89661h3.75668v53.89661z" fill="#81683a"/><path d="M160.18206,340.79023v-44.27221h4.41001v44.27221z" fill="#81683a"/><path d="M162.7954,334.53436v-24.06099h4.73668v24.06099z" fill="#81683a"/><path d="M165.57207,328.27852v-12.99293h9.14669v12.99293z" fill="#81683a"/><path d="M344.84532,334.36651v-316.45713h5.66423v316.45713z" fill="#81683a"/><path d="M344.00617,19.85542v-9.27122h2.72722v9.27122z" fill="#81683a"/><path d="M312.83581,46.82167v-14.83393h32.93649v14.83393z" fill="#81683a"/><path d="M332.76553,137.0614v-97.65669h12.58719v97.65669z" fill="#81683a"/><path d="M320.95227,54.64476v-16.0701h15.31442v16.0701z" fill="#81683a"/><path d="M325.56757,63.91598v-18.54241h8.39147v18.54241z" fill="#81683a"/><path d="M328.50459,90.49343v-34.6125h5.45445v34.61251z" fill="#81683a"/><path d="M331.23181,112.74432v-27.81362h4.40552v27.81363z" fill="#81683a"/><path d="M334.94275,215.52799v-82.82275h11.74805v82.82276z" fill="#81683a"/><path d="M332.92422,333.16738v-142.15848h13.63613v142.15848z" fill="#81683a"/><path d="M331.66551,336.84259v-107.54597h8.60125v107.54597z" fill="#81683a"/><path d="M330.82637,339.93299v-90.23974h7.7621v90.23974z" fill="#81683a"/><path d="M329.14807,351.67652v-86.53125h6.50338v86.53125z" fill="#81683a"/><path d="M320.33703,331.89794v-25.34129h24.54502v25.34129z" fill="#81683a"/><path d="M326.00127,313.97361v-19.77857h13.00677v19.77857z" fill="#81683a"/><path d="M154.89459,25.91414v-10.50736h60.62832v10.50736z" fill="#927642"/><path d="M147.55207,33.33111v-13.59777h65.6632v13.59777z" fill="#927642"/><path d="M214.81909,26.53223v-9.88929h53.28579v9.88929z" fill="#927642"/><path d="M219.01482,27.7684v-17.92434h52.65643v17.92434z" fill="#927642"/><path d="M271.44132,29.62263v-10.50735h71.95679v10.50736z" fill="#927642"/><path d="M275.63705,33.33111v-19.77858h70.90786v19.77858z" fill="#927642"/><path d="M272.70004,41.98423v-13.59776h15.10463v13.59777z" fill="#927642"/><path d="M149.16231,52.49161v-21.01474h13.00677v21.01474z" fill="#927642"/><path d="M151.88954,61.76281v-16.0701h6.71317v16.0701z" fill="#927642"/><path d="M153.77761,67.94361v-15.452h2.51743v15.45201z" fill="#927642"/><path d="M317.00016,42.60233v-17.92434h34.1952v17.92434z" fill="#927642"/><path d="M323.71332,48.78312v-13.59777h30.62883v13.59777z" fill="#927642"/><path d="M327.69927,56.20009v-9.88929h28.53097v9.88929z" fill="#927642"/><path d="M331.895,69.79784v-19.16048h19.51015v19.16048z" fill="#927642"/><path d="M335.88095,79.68712v-11.74352h12.58719v11.74352z" fill="#927642"/><path d="M337.55924,92.18922v-17.30625h8.18167v17.30625z" fill="#927642"/><path d="M339.6571,102.07851v-15.452h9.4404v15.452z" fill="#927642"/><path d="M343.22348,109.49549v-11.12546h7.76211v11.12546z" fill="#927642"/><path d="M148.65642,323.51774v-25.34129h9.65018v25.34129z" fill="#7c6438"/><path d="M146.34877,334.64319v-21.01475h14.47527v21.01475z" fill="#7c6438"/><path d="M149.28579,347.62288v-27.81362h17.83185v27.81362z" fill="#7c6438"/><path d="M161.28173,345.43883v-17.92433h11.74805v17.92433z" fill="#7c6438"/><path d="M171.90284,346.01531v-13.59776h81.60697v13.59776z" fill="#7c6438"/><path d="M218.05588,336.74409v-9.88929h5.66424v9.88929z" fill="#7c6438"/><path d="M251.80455,344.77914v-14.83393h59.78916v14.83393z" fill="#7c6438"/><path d="M309.78434,340.45257v-12.97969h34.61478v12.97969z" fill="#7c6438"/><path d="M290.27419,336.12602v-9.88929h2.30765v9.88929z" fill="#7c6438"/><path d="M328.82353,335.80601v-22.86898h19.09058v22.86898z" fill="#7c6438"/><path d="M332.59969,315.40934v-14.83393h16.57313v14.83393z" fill="#7c6438"/><path d="M337.215,306.75622v-17.30624h17.41228v17.30624z" fill="#7c6438"/><path d="M339.73243,294.39462v-15.45201h17.41229v15.45201z" fill="#7c6438"/><path d="M342.04009,282.6511v-11.74353h13.84591v11.74353z" fill="#7c6438"/><path d="M332.80948,292.54038v-17.30624h7.97189v17.30624z" fill="#7c6438"/><path d="M343.50859,278.32452v-45.11986h9.4404v45.11987z" fill="#7c6438"/><path d="M338.26392,282.03301v-34.61251h7.76211v34.61251z" fill="#7c6438"/><path d="M346.02603,240.00356v-17.30624h3.1468v17.30624z" fill="#7c6438"/><path d="M166.8246,290.64056v-57.00603h158.60133v57.00603z" fill="#ddbe63"/><path d="M263.24834,255.22774v-37.1403h64.49592v37.1403z" fill="#ddbe63"/><path d="M170.53146,302.73276v-21.5932h43.38816v21.5932z" fill="#ddbe63"/><path d="M225.77344,308.77886v-22.45691h59.8053v22.45691z" fill="#ddbe63"/><path d="M294.17048,306.18766v-22.45691h23.45306v22.45691z" fill="#ddbe63"/><path d="M161.16198,244.22973v-35.41283h47.49245v35.41283z" fill="#ddbe63"/><path d="M163.50729,270.14156v-32.82166h5.27695v32.82166z" fill="#ddbe63"/><path d="M160.49326,211.63646v-20.72946h36.35225v20.72946z" fill="#ddbe63"/><path d="M287.16427,236.68458v-31.95792h42.80184v31.95792z" fill="#ddbe63"/><path d="M160.91802,202.13544v-32.82166h9.38122v32.82166z" fill="#ddbe63"/><path d="M311.18802,222.86492v-40.5952h18.46928v40.5952z" fill="#ddbe63"/><path d="M163.51953,197.81682v-64.77958h7.91541v64.77959z" fill="#ddbe63"/><path d="M321.15557,218.91102v-77.73548h8.20857v77.73548z" fill="#ddbe63"/></g><g stroke="none" stroke-width="0"><g><path d="M172.64123,139.03939v-2.33973h6.99131v2.33973z" fill="#cb9651"/><g fill="#ebae5e"><path d="M172.23072,139.00914v-1.62454h1.62454v1.62454z"/><path d="M171.989,138.87917v-1.35638h2.1385v1.35638z"/><path d="M172.37296,137.1358h1.35638v2.1385h-1.35638z"/></g><g fill="#ebae5e"><path d="M174.48743,139.03224v-1.28606h1.28606v1.28606z"/><path d="M174.29607,138.92935v-1.07378h1.69294v1.07378z"/><path d="M174.60003,137.54922h1.07378v1.69294h-1.07378z"/></g><g fill="#ebae5e"><path d="M176.47624,138.9842v-1.28606h1.28606v1.28606z"/><path d="M176.28488,138.88127v-1.07378h1.69294v1.07378z"/><path d="M176.58884,137.50116h1.07377v1.69293h-1.07377z"/></g><g fill="#ebae5e"><path d="M178.5723,139.03925v-1.04429h1.04429v1.04429z"/><path d="M178.41691,138.95568v-0.87191h1.37467v0.87191z"/><path d="M178.66372,137.83502h0.87192v1.37468h-0.87192z"/></g></g><g fill="#532d15"><path d="M174.47471,128.23859v-2.36736h12.12203v2.36736z"/><path d="M172.6129,131.83623v-4.62064h15.48766v4.62064z"/></g><g fill="#442411"><path d="M175.08964,128.22486v-2.31587h10.97718v2.31587z"/><path d="M175.64545,129.47543v-1.62111h9.54135v1.62111z"/></g><path d="M177.00172,128.25586v-1.12557h6.91597v1.12557z" fill="#dfa459"/><path d="M172.61071,136.96101v-5.49572h15.54283v5.49572z" fill="#361d0e"/><path d="M174.43461,132.57548v-1.98251h11.89503v1.98251z" fill="#532d15"/><path d="M175.35395,128.06472v-9.31554h10.21598v9.31554z" fill="#aa7e44"/><path d="M175.94351,127.37843v-8.08074h8.81861v8.08074z" fill="#dfa459"/><g><g><g fill="#000000"><path d="M182.1585,125.22151v-2.23512h2.23512v2.23512z"/><path d="M181.82591,125.04265v-1.86617h2.94225v1.86617z"/><path d="M182.35419,122.64405h1.86617v2.94225h-1.86617z"/></g><g fill="#ededed"><path d="M182.38436,124.98177v-1.73513h1.73513v1.73513z"/><path d="M182.12618,124.84292v-1.44872h2.28407v1.44872z"/><path d="M182.53628,122.98088h1.44872v2.28407h-1.44872z"/></g></g><g fill="#000000"><path d="M182.75701,124.62553v-0.98514h0.98515v0.98514z"/><path d="M182.61042,124.5467v-0.82252h1.29681v0.82252z"/><path d="M182.84326,123.4895h0.82253v1.29682h-0.82253z"/></g></g><g><g><g fill="#000000"><path d="M176.82443,125.10408v-2.23512h2.23512v2.23512z"/><path d="M176.49184,124.92522v-1.86617h2.94225v1.86617z"/><path d="M177.02012,122.52662h1.86617v2.94225h-1.86617z"/></g><g fill="#ededed"><path d="M177.05029,124.86433v-1.73513h1.73513v1.73513z"/><path d="M176.7921,124.72549v-1.44872h2.28408v1.44872z"/><path d="M177.20221,122.86345h1.44872v2.28407h-1.44872z"/></g></g><g fill="#000000"><path d="M177.42294,124.5081v-0.98514h0.98514v0.98514z"/><path d="M177.27635,124.42926v-0.82253h1.29682v0.82253z"/><path d="M177.50919,123.37207h0.82253v1.29681h-0.82253z"/></g></g><path d="M176.32879,128.87123v-0.94751h8.22682v0.94751z" fill="#aa7e44"/><g fill="#000000"><path d="M177.31708,126.93433v-0.45119h6.16635v0.45119z"/><path d="M177.0614,127.42652v-1.35359h0.49631v1.35359z"/><path d="M183.25392,127.29116v-1.06784h0.48128v1.06784z"/></g><g><g fill="#41311a"><path d="M175.01732,121.47184v-4.103h11.69895v4.103z"/><path d="M173.94293,122.52758v-3.38318h7.23424v3.38318z"/><path d="M176.64423,118.45501v-2.01551h9.69341v2.01551z"/><path d="M177.33662,117.87915v-1.70359h8.73839v1.70359z"/></g><path d="M175.51521,121.18127v-3.70728h10.62321v3.70728z" fill="#6a4f2a"/><path d="M175.39649,119.29716v-0.53576h5.11023v0.53576z" fill="#41311a"/><path d="M174.53961,122.1352v-3.05688h6.56905v3.05688z" fill="#6a4f2a"/><path d="M181.43345,118.63141v-0.24555h4.34782v0.24555z" fill="#41311a"/><path d="M176.99253,118.4554v-1.82112h8.80209v1.82112z" fill="#6a4f2a"/><path d="M178.09703,117.09415v-0.45333h5.15145v0.45333z" fill="#f0c992"/><path d="M181.35214,117.35189v-0.86544h2.80238v0.86544z" fill="#f0c992"/><path d="M177.62125,116.71935v-0.32354h7.93489v0.32354z" fill="#6a4f2a"/><path d="M175.53914,117.78596v-0.27903h1.46301v0.27903z" fill="#f0c992"/><path d="M176.9927,117.77596v-1.0715h0.14424v1.0715z" fill="#f0c992"/><path d="M177.03391,116.88991v-0.22666h0.57696v0.22666z" fill="#f0c992"/><path d="M177.59026,116.88991v-0.51515h0.18545v0.51515z" fill="#f0c992"/><path d="M174.63083,119.70354v-0.30908h2.55512v0.30908z" fill="#f0c992"/></g><path d="M179.63115,136.98352v-2.05066h1.02533v2.05066z" fill="#201108"/><g data-paper-data="{&quot;index&quot;:null}"><path d="M181.07494,139.29368v-2.33972h6.99131v2.33972z" fill="#cb9651"/><g fill="#ebae5e"><path d="M186.85221,139.26343v-1.62453h1.62454v1.62453z"/><path d="M186.57998,139.13346v-1.35639h2.1385v1.35639z"/><path d="M188.33452,139.52857h-1.35639v-2.1385h1.35639z"/></g><g fill="#ebae5e"><path d="M184.93399,139.28653v-1.28606h1.28606v1.28606z"/><path d="M184.71848,139.18363v-1.07377h1.69293v1.07377z"/><path d="M186.10745,139.49642h-1.07378v-1.69294h1.07378z"/></g><g fill="#ebae5e"><path d="M182.94518,139.23849v-1.28606h1.28606v1.28606z"/><path d="M182.72966,139.13557v-1.07378h1.69294v1.07378z"/><path d="M184.11863,139.44838h-1.07377v-1.69293h1.07377z"/></g><g fill="#ebae5e"><path d="M181.09089,139.29352v-1.04429h1.04429v1.04429z"/><path d="M180.9159,139.20997v-0.87191h1.37467v0.87191z"/><path d="M182.04375,139.46398h-0.87191v-1.37468h0.87191z"/></g></g><g data-paper-data="{&quot;index&quot;:null}"><path d="M191.69958,129.08635l1.38606,3.95056l-3.90092,1.36865l-1.38606,-3.95056z" fill="#d8a057"/><g fill="#ebae5e"><path d="M190.03603,133.16085l0.00563,2.56134l-0.94025,0.00206l-0.00563,-2.56133z"/><path d="M190.19404,133.36546l0.0047,2.13855l-1.23773,0.00272l-0.00469,-2.13855z"/><path d="M189.17718,132.74471l0.78504,-0.00173l0.00741,3.37168l-0.78505,0.00172z"/></g><g fill="#ebae5e"><path d="M191.55429,132.70398l0.8111,2.31181l-0.88723,0.31128l-0.8111,-2.31181z"/><path d="M191.76788,132.83682l0.67722,1.93021l-1.16792,0.40977l-0.67723,-1.93022z"/><path d="M190.61236,132.61071l0.74078,-0.25991l1.06772,3.04321l-0.74078,0.2599z"/></g><g fill="#ebae5e"><path d="M192.77152,131.97899l0.45449,2.11835l-0.7476,0.15586l-0.4545,-2.11836z"/><path d="M192.93316,132.12238l0.37948,1.76869l-0.98413,0.20517l-0.37947,-1.7687z"/><path d="M192.0152,131.77544l0.62419,-0.13013l0.59828,2.78856l-0.6242,0.13012z"/></g><path d="M191.98441,129.55646l0.86833,2.47492l-4.36151,1.53024l-0.86833,-2.47492z" fill="#d8a057"/><g fill="#ebae5e"><path d="M188.82534,132.38543l-1.32038,1.50812l-0.89362,-0.78238l1.32037,-1.50812z"/><path d="M188.86944,132.63722l-1.10243,1.25919l-1.17634,-1.0299l1.10242,-1.25919z"/><path d="M188.22545,131.42541l0.74612,0.65324l-1.73811,1.98525l-0.74612,-0.65323z"/></g></g><g data-paper-data="{&quot;index&quot;:null}"><path d="M166.45201,129.38834l-4.16178,0.45571l-0.44998,-4.10948l4.16177,-0.45571z" fill="#d8a057"/><g fill="#ebae5e"><path d="M163.44946,129.38769l-2.31266,1.10093l-0.40415,-0.84896l2.31267,-1.10093z"/><path d="M163.32454,129.60212l-1.93093,0.91921l-0.53201,-1.11755l1.93093,-0.91921z"/><path d="M160.74719,130.58292l-0.33744,-0.70882l3.04434,-1.44925l0.33744,0.70883z"/></g><g fill="#ebae5e"><path d="M162.90413,127.90669l-2.43542,0.26667l-0.10234,-0.93466l2.43542,-0.26667z"/><path d="M162.72448,128.06711l-2.03342,0.22266l-0.13473,-1.23037l2.03342,-0.22266z"/><path d="M160.08674,128.13238l-0.08545,-0.78038l3.20592,-0.35105l0.08545,0.78039z"/></g><g fill="#ebae5e"><path d="M163.11235,126.30268l-2.10694,0.50479l-0.18225,-0.74161l2.10694,-0.50479z"/><path d="M162.97087,126.45343l-1.75916,0.42147l-0.2399,-0.97624l1.75916,-0.42147z"/><path d="M160.66674,126.81986l-0.15216,-0.6192l2.77352,-0.66449l0.15217,0.61919z"/></g><path d="M165.95813,129.81965l-2.60725,0.28549l-0.50312,-4.59471l2.60724,-0.28549z" fill="#d8a057"/><g fill="#ebae5e"><path d="M165.35905,129.76406l-0.79013,1.84215l-1.09155,-0.46819l0.79012,-1.84215z"/><path d="M165.45824,129.98115l-0.65971,1.53808l-1.43689,-0.6163l0.65971,-1.53808z"/><path d="M164.35233,131.84739l-0.91137,-0.3909l1.0401,-2.42496l0.91137,0.3909z"/></g></g></g><g fill="#000000" stroke="none" stroke-width="0"><path d="M247.73427,136.80547v-10.90584l1.23648,-1.23012h63.70282l1.14696,1.38013v10.80583l-1.19696,1.24796h-63.75282z"/><path d="M311.49138,125.85209c0,-0.64897 0.52609,-1.17505 1.17505,-1.17505c0.64896,0 1.17505,0.52609 1.17505,1.17505c0,0.64896 -0.52609,1.17505 -1.17505,1.17505c-0.64896,0 -1.17505,-0.52609 -1.17505,-1.17505z"/><path d="M247.73856,125.85209c0,-0.64897 0.52608,-1.17506 1.17505,-1.17506c0.64897,0 1.17505,0.52609 1.17505,1.17506c0,0.64897 -0.52608,1.17505 -1.17505,1.17505c-0.64897,0 -1.17505,-0.52608 -1.17505,-1.17505z"/><path d="M247.73856,136.90258c0,-0.64897 0.52608,-1.17506 1.17505,-1.17506c0.64897,0 1.17505,0.52609 1.17505,1.17506c0,0.64896 -0.52608,1.17505 -1.17505,1.17505c-0.64897,0 -1.17505,-0.52608 -1.17505,-1.17505z"/><path d="M311.44138,136.90258c0,-0.64897 0.52609,-1.17506 1.17505,-1.17506c0.64896,0 1.17505,0.52609 1.17505,1.17506c0,0.64896 -0.52609,1.17505 -1.17505,1.17505c-0.64896,0 -1.17505,-0.52608 -1.17505,-1.17505z"/></g><g data-paper-data="{&quot;index&quot;:null}" stroke="none" stroke-width="0"><g fill="#000000"><path d="M217.1599,125.57604v11.1005l-1.24797,1.19696h-10.80584l-1.38012,-1.14696v-11.05049l1.23012,-1.23648h10.90584z"/><path d="M206.08361,136.71938c0,0.64896 -0.52609,1.17505 -1.17506,1.17505c-0.64897,0 -1.17505,-0.52608 -1.17505,-1.17505c0,-0.64897 0.52608,-1.17505 1.17505,-1.17505c0.64897,0 1.17506,0.52608 1.17506,1.17505z"/><path d="M206.08361,125.61891c0,0.64896 -0.52608,1.17505 -1.17505,1.17505c-0.64897,0 -1.17506,-0.52609 -1.17506,-1.17505c0,-0.64897 0.52609,-1.17505 1.17506,-1.17505c0.64897,0 1.17505,0.52608 1.17505,1.17505z"/><path d="M217.1341,125.61891c0,0.64896 -0.52608,1.17505 -1.17505,1.17505c-0.64897,0 -1.17506,-0.52609 -1.17506,-1.17505c0,-0.64897 0.52609,-1.17505 1.17506,-1.17505c0.64897,0 1.17505,0.52608 1.17505,1.17505z"/><path d="M217.1341,136.6694c0,0.64896 -0.52608,1.17505 -1.17505,1.17505c-0.64897,0 -1.17506,-0.52608 -1.17506,-1.17505c0,-0.64897 0.52609,-1.17505 1.17506,-1.17505c0.64897,0 1.17505,0.52608 1.17505,1.17505z"/></g><g fill="#f3f3f3"><path d="M214.20619,131.71228h-5.46161v-1.07746h5.46161z"/><path d="M209.22758,133.12411l-3.26954,-1.96915l3.26954,-1.82054z"/></g></g><text transform="translate(158.53063,151.50179) scale(0.20348,0.20348)" font-size="40" xml:space="preserve" fill="#81683a" fill-rule="nonzero" stroke="#81683a" stroke-width="3" stroke-linecap="butt" stroke-linejoin="miter" stroke-miterlimit="10" stroke-dasharray="" stroke-dashoffset="0" font-family="Sans Serif" font-weight="normal" text-anchor="start" style="mix-blend-mode: normal"><tspan x="0" dy="0">LEFT ARROW OR A AND SPACE FOR LEFT SLAP</tspan></text><g stroke="none" stroke-width="0"><path d="M179.09612,82.0558v-2.32984h6.96176v2.32984z" fill="#cb9651"/><g fill="#ebae5e"><path d="M178.68736,82.0257v-1.61767h1.61767v1.61767z"/><path d="M178.44665,81.89624v-1.35065h2.12946v1.35065z"/><path d="M178.82899,80.16026h1.35065v2.12946h-1.35065z"/></g><g fill="#ebae5e"><path d="M180.93452,82.04869v-1.28062h1.28063v1.28062z"/><path d="M180.74397,81.94621v-1.06923h1.68578v1.06923z"/><path d="M181.04665,80.57192h1.06923v1.68578h-1.06923z"/></g><g fill="#ebae5e"><path d="M182.91493,82.00083v-1.28062h1.28062v1.28062z"/><path d="M182.72438,81.89835v-1.06923h1.68577v1.06923z"/><path d="M183.02705,80.52406h1.06923v1.68578h-1.06923z"/></g><g fill="#ebae5e"><path d="M185.00212,82.05566v-1.03987h1.03987v1.03987z"/><path d="M184.84739,81.97244v-0.86823h1.36886v0.86823z"/><path d="M185.09317,80.85652h0.86822v1.36886h-0.86822z"/></g></g><g fill="#532d15" stroke="none" stroke-width="0"><path d="M180.92185,71.30066v-2.35735h12.07079v2.35735z"/><path d="M179.06792,74.88311v-4.6011h15.4222v4.6011z"/></g><g fill="#442411" stroke="none" stroke-width="0"><path d="M181.53419,71.28699v-2.30607h10.93078v2.30607z"/><path d="M182.08765,72.53226v-1.61425h9.50101v1.61425z"/></g><path d="M183.43819,71.31785v-1.12081h6.88674v1.12081z" fill="#dfa459" stroke="none" stroke-width="0"/><path d="M179.06573,79.98619v-5.47249h15.47714v5.47249z" fill="#361d0e" stroke="none" stroke-width="0"/><path d="M180.88193,75.61923v-1.97413h11.84475v1.97413z" fill="#532d15" stroke="none" stroke-width="0"/><path d="M181.79738,71.12752v-9.27616h10.1728v9.27616z" fill="#aa7e44" stroke="none" stroke-width="0"/><path d="M182.38445,70.44413v-8.04658h8.78134v8.04659z" fill="#dfa459" stroke="none" stroke-width="0"/><g stroke="none" stroke-width="0"><g><g fill="#000000"><path d="M188.57317,68.29633v-2.22566h2.22567v2.22566z"/><path d="M188.24199,68.11823v-1.85829h2.92981v1.85829z"/><path d="M188.76803,65.72977h1.85829v2.92981h-1.85829z"/></g><g fill="#ededed"><path d="M188.79808,68.0576v-1.72779h1.72779v1.72779z"/><path d="M188.54098,67.91934v-1.44259h2.27442v1.44259z"/><path d="M188.94935,66.06516h1.44259v2.27442h-1.44259z"/></g></g><g fill="#000000"><path d="M189.16915,67.70287v-0.98098h0.98098v0.98098z"/><path d="M189.02318,67.62437v-0.81905h1.29133v0.81905z"/><path d="M189.25504,66.57165h0.81905v1.29133h-0.81905z"/></g></g><g stroke="none" stroke-width="0"><g><g fill="#000000"><path d="M183.26164,68.17939v-2.22566h2.22566v2.22566z"/><path d="M182.93046,68.00129v-1.85829h2.92981v1.85829z"/><path d="M183.45651,65.61283h1.85828v2.92982h-1.85828z"/></g><g fill="#ededed"><path d="M183.48655,67.94066v-1.72779h1.72779v1.72779z"/><path d="M183.22946,67.8024v-1.44259h2.27442v1.44259z"/><path d="M183.63782,65.94822h1.44259v2.27442h-1.44259z"/></g></g><g fill="#000000"><path d="M183.85762,67.58593v-0.98098h0.98098v0.98098z"/><path d="M183.71166,67.50744v-0.81905h1.29133v0.81905z"/><path d="M183.94351,66.45471h0.81906v1.29133h-0.81906z"/></g></g><path d="M182.7681,71.93062v-0.94351h8.19204v0.94351z" fill="#aa7e44" stroke="none" stroke-width="0"/><g fill="#000000" stroke="none" stroke-width="0"><path d="M183.75221,70.0019v-0.44929h6.14028v0.44929z"/><path d="M183.49762,70.49201v-1.34787h0.49421v1.34787z"/><path d="M189.66396,70.35723v-1.06332h0.47924v1.06332z"/></g><g stroke="none" stroke-width="0"><g fill="#41311a"><path d="M181.46217,64.56251v-4.08566h11.6495v4.08566z"/><path d="M180.39232,65.61378v-3.36888h7.20367v3.36888z"/><path d="M183.08221,61.55843v-2.00699h9.65244v2.00699z"/><path d="M183.77167,60.98501v-1.69638h8.70146v1.69638z"/></g><path d="M181.95796,64.27317v-3.69161h10.5783v3.69161z" fill="#6a4f2a"/><path d="M181.83974,62.39702v-0.53349h5.08863v0.53349z" fill="#41311a"/><path d="M180.98648,65.22306v-3.04396h6.54128v3.04396z" fill="#6a4f2a"/><path d="M187.85118,61.73409v-0.24451h4.32944v0.24451z" fill="#41311a"/><path d="M183.42903,61.55883v-1.81343h8.76488v1.81343z" fill="#6a4f2a"/><path d="M184.52887,60.20333v-0.45141h5.12967v0.45141z" fill="#f0c992"/><path d="M187.77022,60.45998v-0.86178h2.79054v0.86178z" fill="#f0c992"/><path d="M184.0551,59.8301v-0.32217h7.90134v0.32217z" fill="#6a4f2a"/><path d="M181.98179,60.89222v-0.27785h1.45683v0.27785z" fill="#f0c992"/><path d="M183.4292,60.88225v-1.06697h0.14363v1.06697z" fill="#f0c992"/><path d="M183.47024,59.99995v-0.2257h0.57452v0.2257z" fill="#f0c992"/><path d="M184.02424,59.99995v-0.51297h0.18466v0.51297z" fill="#f0c992"/><path d="M181.07731,62.80169v-0.30778h2.54432v0.30778z" fill="#f0c992"/></g><path d="M186.05651,80.00862v-2.04199h1.02099v2.042z" fill="#201108" stroke="none" stroke-width="0"/><g data-paper-data="{&quot;index&quot;:null}" stroke="none" stroke-width="0"><path d="M187.49419,82.30902v-2.32984h6.96176v2.32984z" fill="#cb9651"/><g fill="#ebae5e"><path d="M193.24704,82.2789v-1.61767h1.61767v1.61767z"/><path d="M192.97596,82.14947v-1.35065h2.12946v1.35065z"/><path d="M194.72308,82.54293h-1.35066v-2.12946h1.35066z"/></g><g fill="#ebae5e"><path d="M191.33692,82.30191v-1.28062h1.28062v1.28062z"/><path d="M191.12232,82.19943v-1.06924h1.68578v1.06924z"/><path d="M192.50542,82.51092h-1.06923v-1.68578h1.06923z"/></g><g fill="#ebae5e"><path d="M189.35652,82.25405v-1.28062h1.28062v1.28062z"/><path d="M189.14192,82.15157v-1.06924h1.68578v1.06924z"/><path d="M190.52502,82.46307h-1.06923v-1.68578h1.06923z"/></g><g fill="#ebae5e"><path d="M187.51007,82.30888v-1.03987h1.03987v1.03987z"/><path d="M187.33582,82.22567v-0.86823h1.36886v0.86823z"/><path d="M188.4589,82.47859h-0.86822v-1.36886h0.86822z"/></g></g><g stroke="none" stroke-width="0"><path d="M179.51142,73.76735l-1.3802,3.93385l-3.88443,-1.36286l1.3802,-3.93385z" fill="#d8a057"/><g fill="#ebae5e"><path d="M178.21979,76.46382l-0.00561,2.55051l-0.93627,-0.00205l0.0056,-2.55051z"/><path d="M178.35866,76.66822l-0.00468,2.12951l-1.23249,-0.00271l0.00468,-2.12951z"/><path d="M178.13136,79.40479l-0.78173,-0.00171l0.00737,-3.35743l0.78173,0.00172z"/></g><g fill="#ebae5e"><path d="M176.65515,76.3168l-0.80767,2.30204l-0.88348,-0.30997l0.80767,-2.30204z"/><path d="M176.72198,76.54712l-0.67436,1.92206l-1.16298,-0.40803l0.67435,-1.92206z"/><path d="M175.64641,78.9443l-0.73765,-0.25881l1.06321,-3.03034l0.73765,0.2588z"/></g><g fill="#ebae5e"><path d="M175.30403,75.44009l-0.45257,2.10941l-0.74444,-0.1552l0.45257,-2.1094z"/><path d="M175.37859,75.63198l-0.37787,1.76122l-0.97996,-0.2043l0.37787,-1.76122z"/><path d="M174.71696,77.85899l-0.62156,-0.12958l0.59575,-2.77677l0.62156,0.12958z"/></g><path d="M179.68645,74.39638l-0.86467,2.46446l-4.34307,-1.52378l0.86466,-2.46446z" fill="#d8a057"/><g fill="#ebae5e"><path d="M179.37893,74.91056l1.31479,1.50175l-0.88985,0.77907l-1.31479,-1.50174z"/><path d="M179.61655,74.91481l1.09777,1.25387l-1.17138,1.02554l-1.09776,-1.25386z"/><path d="M180.8172,76.71053l-0.74296,0.65047l-1.73076,-1.97687l0.74296,-0.65047z"/></g></g><g data-paper-data="{&quot;index&quot;:null}" stroke="none" stroke-width="0"><path d="M198.07392,72.14484l1.3802,3.93386l-3.88442,1.36286l-1.3802,-3.93386z" fill="#d8a057"/><g fill="#ebae5e"><path d="M196.4174,76.20211l0.00561,2.55051l-0.93627,0.00205l-0.00561,-2.55051z"/><path d="M196.57474,76.40586l0.00468,2.12951l-1.2325,0.00271l-0.00467,-2.12951z"/><path d="M195.56219,75.78772l0.78173,-0.00172l0.00737,3.35743l-0.78173,0.00172z"/></g><g fill="#ebae5e"><path d="M197.92924,75.74718l0.80768,2.30204l-0.88348,0.30997l-0.80768,-2.30204z"/><path d="M198.14192,75.87945l0.67436,1.92205l-1.16299,0.40804l-0.67436,-1.92206z"/><path d="M196.9913,75.6543l0.73765,-0.2588l1.0632,3.03034l-0.73765,0.2588z"/></g><g fill="#ebae5e"><path d="M199.14133,75.02523l0.45257,2.1094l-0.74444,0.1552l-0.45257,-2.1094z"/><path d="M199.30229,75.16803l0.37787,1.76122l-0.97996,0.2043l-0.37787,-1.76122z"/><path d="M198.3882,74.82257l0.62156,-0.12958l0.59575,2.77677l-0.62156,0.12958z"/></g><path d="M198.35754,72.61296l0.86467,2.46446l-4.34308,1.52378l-0.86466,-2.46446z" fill="#d8a057"/><g fill="#ebae5e"><path d="M195.21183,75.42997l-1.31479,1.50175l-0.88985,-0.77907l1.31479,-1.50174z"/><path d="M195.25574,75.6807l-1.09776,1.25387l-1.17138,-1.02555l1.09777,-1.25386z"/><path d="M194.61448,74.47401l0.74296,0.65047l-1.73076,1.97687l-0.74296,-0.65048z"/></g></g><g stroke="none" stroke-width="0"><g fill="#000000"><path d="M238.35728,70.5229h10.90584l1.23012,1.23648v11.05049l-1.38012,1.14696h-10.80584l-1.24797,-1.19696v-11.1005z"/><path d="M249.31066,81.62768c0.64897,0 1.17505,0.52608 1.17505,1.17505c0,0.64897 -0.52608,1.17505 -1.17505,1.17505c-0.64897,0 -1.17506,-0.52609 -1.17506,-1.17505c0,-0.64897 0.52609,-1.17505 1.17506,-1.17505z"/><path d="M249.31065,70.52719c0.64897,0 1.17506,0.52608 1.17506,1.17505c0,0.64896 -0.52609,1.17505 -1.17506,1.17505c-0.64897,0 -1.17505,-0.52609 -1.17505,-1.17505c0,-0.64897 0.52608,-1.17505 1.17505,-1.17505z"/><path d="M238.26016,70.52719c0.64897,0 1.17506,0.52608 1.17506,1.17505c0,0.64896 -0.52609,1.17505 -1.17506,1.17505c-0.64897,0 -1.17505,-0.52609 -1.17505,-1.17505c0,-0.64897 0.52608,-1.17505 1.17505,-1.17505z"/><path d="M238.26016,81.57768c0.64897,0 1.17506,0.52608 1.17506,1.17505c0,0.64897 -0.52609,1.17505 -1.17506,1.17505c-0.64897,0 -1.17505,-0.52609 -1.17505,-1.17505c0,-0.64897 0.52608,-1.17505 1.17505,-1.17505z"/></g><g fill="#f3f3f3"><path d="M240.01302,76.71815h5.46161v1.07746h-5.46161z"/><path d="M244.99163,75.41777l3.26954,1.82054l-3.26954,1.96915z"/></g></g><g data-paper-data="{&quot;index&quot;:null}" stroke="none" stroke-width="0"><g fill="#000000"><path d="M216.82657,71.65936v11.1005l-1.24797,1.19696h-10.80584l-1.38012,-1.14696v-11.05049l1.23012,-1.23648h10.90584z"/><path d="M205.75028,82.80272c0,0.64896 -0.52609,1.17505 -1.17506,1.17505c-0.64897,0 -1.17505,-0.52608 -1.17505,-1.17505c0,-0.64897 0.52608,-1.17505 1.17505,-1.17505c0.64897,0 1.17506,0.52608 1.17506,1.17505z"/><path d="M205.75028,71.70224c0,0.64896 -0.52608,1.17505 -1.17505,1.17505c-0.64897,0 -1.17506,-0.52609 -1.17506,-1.17505c0,-0.64897 0.52609,-1.17505 1.17506,-1.17505c0.64897,0 1.17505,0.52608 1.17505,1.17505z"/><path d="M216.80077,71.70224c0,0.64896 -0.52608,1.17505 -1.17505,1.17505c-0.64897,0 -1.17506,-0.52609 -1.17506,-1.17505c0,-0.64897 0.52609,-1.17505 1.17506,-1.17505c0.64897,0 1.17505,0.52608 1.17505,1.17505z"/><path d="M216.80077,82.75273c0,0.64896 -0.52608,1.17505 -1.17505,1.17505c-0.64897,0 -1.17506,-0.52608 -1.17506,-1.17505c0,-0.64897 0.52609,-1.17505 1.17506,-1.17505c0.64897,0 1.17505,0.52608 1.17505,1.17505z"/></g><g fill="#f3f3f3"><path d="M213.87286,77.7956h-5.46161v-1.07746h5.46161z"/><path d="M208.89425,79.20746l-3.26954,-1.96915l3.26954,-1.82054z"/></g></g><g stroke="none" stroke-width="0"><g fill="#000000"><path d="M220.2155,65.336v-10.90584l1.23648,-1.23012h11.05049l1.14696,1.38012v10.80584l-1.19696,1.24797h-11.1005z"/><path d="M231.32028,54.38262c0,-0.64897 0.52608,-1.17505 1.17505,-1.17505c0.64897,0 1.17505,0.52608 1.17505,1.17505c0,0.64897 -0.52609,1.17506 -1.17505,1.17506c-0.64897,0 -1.17505,-0.52609 -1.17505,-1.17506z"/><path d="M220.21979,54.38263c0,-0.64897 0.52608,-1.17506 1.17505,-1.17506c0.64896,0 1.17505,0.52609 1.17505,1.17506c0,0.64897 -0.52609,1.17505 -1.17505,1.17505c-0.64897,0 -1.17505,-0.52608 -1.17505,-1.17505z"/><path d="M220.21979,65.43312c0,-0.64897 0.52608,-1.17506 1.17505,-1.17506c0.64896,0 1.17505,0.52609 1.17505,1.17506c0,0.64897 -0.52609,1.17505 -1.17505,1.17505c-0.64897,0 -1.17505,-0.52608 -1.17505,-1.17505z"/><path d="M231.27028,65.43312c0,-0.64897 0.52608,-1.17506 1.17505,-1.17506c0.64897,0 1.17505,0.52609 1.17505,1.17506c0,0.64897 -0.52609,1.17505 -1.17505,1.17505c-0.64897,0 -1.17505,-0.52608 -1.17505,-1.17505z"/></g><g fill="#f3f3f3"><path d="M226.41075,63.68026v-5.46161h1.07746v5.46161z"/><path d="M225.11037,58.70165l1.82054,-3.26954l1.96915,3.26954z"/></g></g><g stroke="none" stroke-width="0"><g fill="#000000"><path d="M233.83705,71.66468v10.90584l-1.23648,1.23012h-11.05049l-1.14696,-1.38012v-10.80584l1.19696,-1.24797h11.1005z"/><path d="M222.73227,82.61806c0,0.64897 -0.52608,1.17505 -1.17505,1.17505c-0.64897,0 -1.17505,-0.52608 -1.17505,-1.17505c0,-0.64897 0.52609,-1.17506 1.17505,-1.17506c0.64897,0 1.17505,0.52609 1.17505,1.17506z"/><path d="M233.83276,82.61804c0,0.64897 -0.52608,1.17506 -1.17505,1.17506c-0.64896,0 -1.17505,-0.52609 -1.17505,-1.17506c0,-0.64897 0.52609,-1.17505 1.17505,-1.17505c0.64897,0 1.17505,0.52608 1.17505,1.17505z"/><path d="M233.83276,71.56756c0,0.64897 -0.52608,1.17506 -1.17505,1.17506c-0.64896,0 -1.17505,-0.52609 -1.17505,-1.17506c0,-0.64897 0.52609,-1.17505 1.17505,-1.17505c0.64897,0 1.17505,0.52608 1.17505,1.17505z"/><path d="M222.78227,71.56756c0,0.64897 -0.52608,1.17506 -1.17505,1.17506c-0.64897,0 -1.17505,-0.52609 -1.17505,-1.17506c0,-0.64897 0.52609,-1.17505 1.17505,-1.17505c0.64897,0 1.17505,0.52608 1.17505,1.17505z"/></g><g fill="#f3f3f3"><path d="M227.6418,73.32042v5.46161h-1.07746v-5.46161z"/><path d="M228.94218,78.29903l-1.82054,3.26954l-1.96915,-3.26954z"/></g></g><text transform="translate(177.78063,97.25179) scale(0.20348,0.20348)" font-size="40" xml:space="preserve" fill="#81683a" fill-rule="nonzero" stroke="#81683a" stroke-width="3" stroke-linecap="butt" stroke-linejoin="miter" stroke-miterlimit="10" stroke-dasharray="" stroke-dashoffset="0" font-family="Sans Serif" font-weight="normal" text-anchor="start" style="mix-blend-mode: normal"><tspan x="0" dy="0">Arrow Keys or W A S and D to move</tspan></text><g stroke="none"><g fill="#000000" stroke-width="0"><path d="M237.8952,126.05461v11.1005l-1.24797,1.19696h-10.80584l-1.38012,-1.14696v-11.05049l1.23012,-1.23648h10.90584z"/><path d="M226.81891,137.19796c0,0.64896 -0.52609,1.17505 -1.17506,1.17505c-0.64897,0 -1.17505,-0.52608 -1.17505,-1.17505c0,-0.64897 0.52608,-1.17505 1.17505,-1.17505c0.64897,0 1.17506,0.52608 1.17506,1.17505z"/><path d="M226.81891,126.09748c0,0.64896 -0.52608,1.17505 -1.17505,1.17505c-0.64897,0 -1.17506,-0.52609 -1.17506,-1.17505c0,-0.64897 0.52609,-1.17505 1.17506,-1.17505c0.64897,0 1.17505,0.52608 1.17505,1.17505z"/><path d="M237.8694,126.09748c0,0.64896 -0.52608,1.17505 -1.17505,1.17505c-0.64897,0 -1.17506,-0.52609 -1.17506,-1.17505c0,-0.64897 0.52609,-1.17505 1.17506,-1.17505c0.64897,0 1.17505,0.52608 1.17505,1.17505z"/><path d="M237.8694,137.14797c0,0.64896 -0.52608,1.17505 -1.17505,1.17505c-0.64897,0 -1.17506,-0.52608 -1.17506,-1.17505c0,-0.64897 0.52609,-1.17505 1.17506,-1.17505c0.64897,0 1.17505,0.52608 1.17505,1.17505z"/></g><text transform="translate(228.50412,134.59653) scale(0.20748,0.20747)" font-size="40" xml:space="preserve" fill="#f3f3f3" fill-rule="nonzero" stroke="none" stroke-width="1" stroke-linecap="butt" stroke-linejoin="miter" stroke-miterlimit="10" stroke-dasharray="" stroke-dashoffset="0" font-family="Sans Serif" font-weight="normal" text-anchor="start" style="mix-blend-mode: normal"><tspan x="0" dy="0">A</tspan></text></g><g stroke="none"><g fill="#000000" stroke-width="0"><path d="M275.3952,71.8046v11.1005l-1.24797,1.19696h-10.80584l-1.38012,-1.14696v-11.05049l1.23012,-1.23648h10.90584z"/><path d="M264.31891,82.94795c0,0.64896 -0.52609,1.17505 -1.17506,1.17505c-0.64897,0 -1.17505,-0.52608 -1.17505,-1.17505c0,-0.64897 0.52608,-1.17505 1.17505,-1.17505c0.64897,0 1.17506,0.52608 1.17506,1.17505z"/><path d="M264.31891,71.84747c0,0.64896 -0.52608,1.17505 -1.17505,1.17505c-0.64897,0 -1.17506,-0.52609 -1.17506,-1.17505c0,-0.64897 0.52609,-1.17505 1.17506,-1.17505c0.64897,0 1.17505,0.52608 1.17505,1.17505z"/><path d="M275.3694,71.84747c0,0.64896 -0.52608,1.17505 -1.17505,1.17505c-0.64897,0 -1.17506,-0.52609 -1.17506,-1.17505c0,-0.64897 0.52609,-1.17505 1.17506,-1.17505c0.64897,0 1.17505,0.52608 1.17505,1.17505z"/><path d="M275.3694,82.89796c0,0.64896 -0.52608,1.17505 -1.17505,1.17505c-0.64897,0 -1.17506,-0.52608 -1.17506,-1.17505c0,-0.64897 0.52609,-1.17505 1.17506,-1.17505c0.64897,0 1.17505,0.52608 1.17505,1.17505z"/></g><text transform="translate(266.00412,80.34653) scale(0.20748,0.20748)" font-size="40" xml:space="preserve" fill="#f3f3f3" fill-rule="nonzero" stroke="none" stroke-width="1" stroke-linecap="butt" stroke-linejoin="miter" stroke-miterlimit="10" stroke-dasharray="" stroke-dashoffset="0" font-family="Sans Serif" font-weight="normal" text-anchor="start" style="mix-blend-mode: normal"><tspan x="0" dy="0">A</tspan></text></g><g stroke="none"><g fill="#000000" stroke-width="0"><path d="M292.40567,71.80991v10.90584l-1.23648,1.23012h-11.05049l-1.14696,-1.38012v-10.80584l1.19696,-1.24797h11.1005z"/><path d="M281.30089,82.76329c0,0.64897 -0.52608,1.17505 -1.17505,1.17505c-0.64897,0 -1.17505,-0.52608 -1.17505,-1.17505c0,-0.64897 0.52609,-1.17506 1.17505,-1.17506c0.64897,0 1.17505,0.52609 1.17505,1.17506z"/><path d="M292.40138,82.76327c0,0.64897 -0.52608,1.17506 -1.17505,1.17506c-0.64896,0 -1.17505,-0.52609 -1.17505,-1.17506c0,-0.64897 0.52609,-1.17505 1.17505,-1.17505c0.64897,0 1.17505,0.52608 1.17505,1.17505z"/><path d="M292.40138,71.71279c0,0.64897 -0.52608,1.17506 -1.17505,1.17506c-0.64896,0 -1.17505,-0.52609 -1.17505,-1.17506c0,-0.64897 0.52609,-1.17505 1.17505,-1.17505c0.64897,0 1.17505,0.52608 1.17505,1.17505z"/><path d="M281.35089,71.71279c0,0.64897 -0.52608,1.17506 -1.17505,1.17506c-0.64897,0 -1.17505,-0.52609 -1.17505,-1.17506c0,-0.64897 0.52609,-1.17505 1.17505,-1.17505c0.64897,0 1.17505,0.52608 1.17505,1.17505z"/></g><text transform="translate(283.33745,80.0132) scale(0.20748,0.20747)" font-size="40" xml:space="preserve" fill="#f3f3f3" fill-rule="nonzero" stroke="none" stroke-width="1" stroke-linecap="butt" stroke-linejoin="miter" stroke-miterlimit="10" stroke-dasharray="" stroke-dashoffset="0" font-family="Sans Serif" font-weight="normal" text-anchor="start" style="mix-blend-mode: normal"><tspan x="0" dy="0">S</tspan></text></g><g stroke="none"><g fill="#000000" stroke-width="0"><path d="M296.9259,70.66813h10.90584l1.23012,1.23648v11.05049l-1.38012,1.14696h-10.80584l-1.24797,-1.19696v-11.1005z"/><path d="M307.87928,81.7729c0.64897,0 1.17505,0.52608 1.17505,1.17505c0,0.64897 -0.52608,1.17505 -1.17505,1.17505c-0.64897,0 -1.17506,-0.52609 -1.17506,-1.17505c0,-0.64897 0.52609,-1.17505 1.17506,-1.17505z"/><path d="M307.87927,70.67242c0.64897,0 1.17506,0.52608 1.17506,1.17505c0,0.64896 -0.52609,1.17505 -1.17506,1.17505c-0.64897,0 -1.17505,-0.52609 -1.17505,-1.17505c0,-0.64897 0.52608,-1.17505 1.17505,-1.17505z"/><path d="M296.82878,70.67242c0.64897,0 1.17506,0.52608 1.17506,1.17505c0,0.64896 -0.52609,1.17505 -1.17506,1.17505c-0.64897,0 -1.17505,-0.52609 -1.17505,-1.17505c0,-0.64897 0.52608,-1.17505 1.17505,-1.17505z"/><path d="M296.82878,81.72291c0.64897,0 1.17506,0.52608 1.17506,1.17505c0,0.64897 -0.52609,1.17505 -1.17506,1.17505c-0.64897,0 -1.17505,-0.52609 -1.17505,-1.17505c0,-0.64897 0.52608,-1.17505 1.17505,-1.17505z"/></g><text transform="translate(299.67079,79.84653) scale(0.20748,0.20747)" font-size="40" xml:space="preserve" fill="#f3f3f3" fill-rule="nonzero" stroke="none" stroke-width="1" stroke-linecap="butt" stroke-linejoin="miter" stroke-miterlimit="10" stroke-dasharray="" stroke-dashoffset="0" font-family="Sans Serif" font-weight="normal" text-anchor="start" style="mix-blend-mode: normal"><tspan x="0" dy="0">D</tspan></text></g><g stroke="none"><g fill="#000000" stroke-width="0"><path d="M278.78412,65.48122v-10.90584l1.23648,-1.23012h11.05049l1.14696,1.38012v10.80584l-1.19696,1.24797h-11.1005z"/><path d="M289.8889,54.52785c0,-0.64897 0.52608,-1.17505 1.17505,-1.17505c0.64897,0 1.17505,0.52608 1.17505,1.17505c0,0.64897 -0.52609,1.17506 -1.17505,1.17506c-0.64897,0 -1.17505,-0.52609 -1.17505,-1.17506z"/><path d="M278.78841,54.52786c0,-0.64897 0.52608,-1.17506 1.17505,-1.17506c0.64896,0 1.17505,0.52609 1.17505,1.17506c0,0.64897 -0.52609,1.17505 -1.17505,1.17505c-0.64897,0 -1.17505,-0.52608 -1.17505,-1.17505z"/><path d="M278.78841,65.57835c0,-0.64897 0.52608,-1.17506 1.17505,-1.17506c0.64896,0 1.17505,0.52609 1.17505,1.17506c0,0.64897 -0.52609,1.17505 -1.17505,1.17505c-0.64897,0 -1.17505,-0.52608 -1.17505,-1.17505z"/><path d="M289.8389,65.57835c0,-0.64897 0.52608,-1.17506 1.17505,-1.17506c0.64897,0 1.17505,0.52609 1.17505,1.17506c0,0.64897 -0.52609,1.17505 -1.17505,1.17505c-0.64897,0 -1.17505,-0.52608 -1.17505,-1.17505z"/></g><text transform="translate(282.00412,63.34653) scale(0.20748,0.20747)" font-size="40" xml:space="preserve" fill="#f3f3f3" fill-rule="nonzero" stroke="none" stroke-width="1" stroke-linecap="butt" stroke-linejoin="miter" stroke-miterlimit="10" stroke-dasharray="" stroke-dashoffset="0" font-family="Sans Serif" font-weight="normal" text-anchor="start" style="mix-blend-mode: normal"><tspan x="0" dy="0">W</tspan></text></g><g fill="#000000" stroke="none" stroke-width="0"><path d="M247.98427,186.30547v-10.90584l1.23648,-1.23012h63.70282l1.14696,1.38013v10.80583l-1.19696,1.24796h-63.75282z"/><path d="M311.74138,175.35209c0,-0.64897 0.52609,-1.17505 1.17505,-1.17505c0.64896,0 1.17505,0.52609 1.17505,1.17505c0,0.64896 -0.52609,1.17505 -1.17505,1.17505c-0.64896,0 -1.17505,-0.52609 -1.17505,-1.17505z"/><path d="M247.98856,175.35209c0,-0.64897 0.52608,-1.17506 1.17505,-1.17506c0.64897,0 1.17505,0.52609 1.17505,1.17506c0,0.64897 -0.52608,1.17505 -1.17505,1.17505c-0.64897,0 -1.17505,-0.52608 -1.17505,-1.17505z"/><path d="M247.98856,186.40258c0,-0.64897 0.52608,-1.17506 1.17505,-1.17506c0.64897,0 1.17505,0.52609 1.17505,1.17506c0,0.64896 -0.52608,1.17505 -1.17505,1.17505c-0.64897,0 -1.17505,-0.52608 -1.17505,-1.17505z"/><path d="M311.69138,186.40258c0,-0.64897 0.52609,-1.17506 1.17505,-1.17506c0.64896,0 1.17505,0.52609 1.17505,1.17506c0,0.64896 -0.52609,1.17505 -1.17505,1.17505c-0.64896,0 -1.17505,-0.52608 -1.17505,-1.17505z"/></g><g data-paper-data="{&quot;index&quot;:null}" stroke="none" stroke-width="0"><g fill="#000000"><path d="M205.27394,173.93956h10.90584l1.23012,1.23648v11.05049l-1.38012,1.14696h-10.80584l-1.24797,-1.19696v-11.1005z"/><path d="M216.22732,185.04435c0.64897,0 1.17505,0.52608 1.17505,1.17505c0,0.64897 -0.52608,1.17505 -1.17505,1.17505c-0.64897,0 -1.17506,-0.52609 -1.17506,-1.17505c0,-0.64897 0.52609,-1.17505 1.17506,-1.17505z"/><path d="M216.22731,173.94386c0.64897,0 1.17506,0.52608 1.17506,1.17505c0,0.64896 -0.52609,1.17505 -1.17506,1.17505c-0.64897,0 -1.17505,-0.52609 -1.17505,-1.17505c0,-0.64897 0.52608,-1.17505 1.17505,-1.17505z"/><path d="M205.17682,173.94386c0.64897,0 1.17506,0.52608 1.17506,1.17505c0,0.64896 -0.52609,1.17505 -1.17506,1.17505c-0.64897,0 -1.17505,-0.52609 -1.17505,-1.17505c0,-0.64897 0.52608,-1.17505 1.17505,-1.17505z"/><path d="M205.17682,184.99435c0.64897,0 1.17506,0.52608 1.17506,1.17505c0,0.64897 -0.52609,1.17505 -1.17506,1.17505c-0.64897,0 -1.17505,-0.52609 -1.17505,-1.17505c0,-0.64897 0.52608,-1.17505 1.17505,-1.17505z"/></g><g fill="#f3f3f3"><path d="M206.92968,180.13482h5.46161v1.07746h-5.46161z"/><path d="M211.90829,178.83444l3.26954,1.82054l-3.26954,1.96915z"/></g></g><text transform="translate(158.53063,201.25271) scale(0.18257,0.18257)" font-size="40" xml:space="preserve" fill="#81683a" fill-rule="nonzero" stroke="#81683a" stroke-width="3" stroke-linecap="butt" stroke-linejoin="miter" stroke-miterlimit="10" stroke-dasharray="" stroke-dashoffset="0" font-family="Sans Serif" font-weight="normal" text-anchor="start" style="mix-blend-mode: normal"><tspan x="0" dy="0">RIGHT ARROW OR D AND SPACE FOR RIGHT SLAP</tspan></text><g stroke="none"><g fill="#000000" stroke-width="0"><path d="M238.1452,175.55461v11.1005l-1.24797,1.19696h-10.80584l-1.38012,-1.14696v-11.05049l1.23012,-1.23648h10.90584z"/><path d="M227.06891,186.69797c0,0.64896 -0.52609,1.17505 -1.17506,1.17505c-0.64897,0 -1.17505,-0.52608 -1.17505,-1.17505c0,-0.64897 0.52608,-1.17505 1.17505,-1.17505c0.64897,0 1.17506,0.52608 1.17506,1.17505z"/><path d="M227.06891,175.59748c0,0.64896 -0.52608,1.17505 -1.17505,1.17505c-0.64897,0 -1.17506,-0.52609 -1.17506,-1.17505c0,-0.64897 0.52609,-1.17505 1.17506,-1.17505c0.64897,0 1.17505,0.52608 1.17505,1.17505z"/><path d="M238.1194,175.59748c0,0.64896 -0.52608,1.17505 -1.17505,1.17505c-0.64897,0 -1.17506,-0.52609 -1.17506,-1.17505c0,-0.64897 0.52609,-1.17505 1.17506,-1.17505c0.64897,0 1.17505,0.52608 1.17505,1.17505z"/><path d="M238.1194,186.64797c0,0.64896 -0.52608,1.17505 -1.17505,1.17505c-0.64897,0 -1.17506,-0.52608 -1.17506,-1.17505c0,-0.64897 0.52609,-1.17505 1.17506,-1.17505c0.64897,0 1.17505,0.52608 1.17505,1.17505z"/></g><text transform="translate(228.75412,184.09654) scale(0.20748,0.20747)" font-size="40" xml:space="preserve" fill="#f3f3f3" fill-rule="nonzero" stroke="none" stroke-width="1" stroke-linecap="butt" stroke-linejoin="miter" stroke-miterlimit="10" stroke-dasharray="" stroke-dashoffset="0" font-family="Sans Serif" font-weight="normal" text-anchor="start" style="mix-blend-mode: normal"><tspan x="0" dy="0">D</tspan></text></g><g stroke="none" stroke-width="0"><g><path d="M172.73505,189.31532v-2.30598h6.89048v2.30598z" fill="#cb9651"/><g fill="#ebae5e"><path d="M172.33047,189.28553v-1.60111h1.60111v1.60111z"/><path d="M172.09223,189.15741v-1.33682h2.10766v1.33683z"/><path d="M172.47066,187.43918h1.33682v2.10766h-1.33682z"/></g><g fill="#ebae5e"><path d="M174.55463,189.30829v-1.26751h1.26751v1.26751z"/><path d="M174.36603,189.20687v-1.05829h1.66852v1.05829z"/><path d="M174.66561,187.84664h1.05829v1.66852h-1.05829z"/></g><g fill="#ebae5e"><path d="M176.51476,189.26093v-1.26751h1.26751v1.26751z"/><path d="M176.32616,189.1595v-1.05829h1.66851v1.05829z"/><path d="M176.62573,187.79928h1.05829v1.66852h-1.05829z"/></g><g fill="#ebae5e"><path d="M178.58058,189.31518v-1.02923h1.02923v1.02923z"/><path d="M178.42744,189.23283v-0.85934h1.35484v0.85934z"/><path d="M178.67069,188.12832h0.85934v1.35485h-0.85934z"/></g></g><g fill="#532d15"><path d="M174.54209,178.67031v-2.33321h11.94719v2.33321z"/><path d="M172.70714,182.21608v-4.55399h15.26429v4.55399z"/></g><g fill="#442411"><path d="M175.14816,178.65677v-2.28246h10.81886v2.28246z"/><path d="M175.69595,179.8893v-1.59772h9.40373v1.59772z"/></g><path d="M177.03266,178.68732v-1.10933h6.81623v1.10933z" fill="#dfa459"/><path d="M172.70497,187.26691v-5.41645h15.31867v5.41645z" fill="#361d0e"/><path d="M174.50257,182.94465v-1.95392h11.72347v1.95392z" fill="#532d15"/><path d="M175.40865,178.49894v-9.18118h10.06864v9.18118z" fill="#aa7e44"/><path d="M175.98971,177.82254v-7.96419h8.69142v7.96419z" fill="#dfa459"/><g><g><g fill="#000000"><path d="M182.11506,175.69674v-2.20288h2.20288v2.20288z"/><path d="M181.78728,175.52046v-1.83926h2.89981v1.83926z"/><path d="M182.30793,173.15645h1.83926v2.89981h-1.83926z"/></g><g fill="#ededed"><path d="M182.33767,175.46045v-1.71009h1.7101v1.71009z"/><path d="M182.0832,175.32361v-1.42782h2.25114v1.42782z"/><path d="M182.48739,173.48843h1.42782v2.25113h-1.42782z"/></g></g><g fill="#000000"><path d="M182.70494,175.10935v-0.97093h0.97093v0.97093z"/><path d="M182.56047,175.03166v-0.81066h1.27811v0.81066z"/><path d="M182.78995,173.98971h0.81066v1.27811h-0.81066z"/></g></g><g><g><g fill="#000000"><path d="M176.85792,175.581v-2.20288h2.20288v2.20288z"/><path d="M176.53013,175.40472v-1.83926h2.89981v1.83926z"/><path d="M177.05079,173.04071h1.83926v2.89981h-1.83926z"/></g><g fill="#ededed"><path d="M177.08052,175.34471v-1.7101h1.7101v1.7101z"/><path d="M176.82607,175.20786v-1.42782h2.25113v1.42782z"/><path d="M177.23025,173.37268h1.42782v2.25113h-1.42782z"/></g></g><g fill="#000000"><path d="M177.4478,174.99361v-0.97093h0.97093v0.97093z"/><path d="M177.30332,174.91592v-0.81066h1.27811v0.81066z"/><path d="M177.53281,173.87397h0.81066v1.27811h-0.81066z"/></g></g><path d="M176.36944,179.29382v-0.93385h8.10816v0.93385z" fill="#aa7e44"/><g fill="#000000"><path d="M177.34346,177.38485v-0.44469h6.07741v0.44469z"/><path d="M177.09148,177.86995v-1.33407h0.48916v1.33407z"/><path d="M183.19469,177.73654v-1.05243h0.47433v1.05243z"/></g><g><g fill="#41311a"><path d="M175.07688,172.00115v-4.04383h11.53021v4.04383z"/><path d="M174.01798,173.04167v-3.33439h7.12991v3.33439z"/><path d="M176.68032,169.02783v-1.98644h9.55361v1.98644z"/><path d="M177.36272,168.46028v-1.67902h8.61236v1.67902z"/></g><path d="M175.56759,171.71477v-3.65381h10.46999v3.65381z" fill="#6a4f2a"/><path d="M175.45058,169.85783v-0.52803h5.03654v0.52803z" fill="#41311a"/><path d="M174.60606,172.65493v-3.01279h6.4743v3.01279z" fill="#6a4f2a"/><path d="M181.40047,169.20169v-0.24201h4.28511v0.24201z" fill="#41311a"/><path d="M177.0236,169.02822v-1.79485h8.67513v1.79485z" fill="#6a4f2a"/><path d="M178.11217,167.6866v-0.44679h5.07715v0.44679z" fill="#f0c992"/><path d="M181.32033,167.94062v-0.85296h2.76197v0.85296z" fill="#f0c992"/><path d="M177.64325,167.3172v-0.31887h7.82044v0.31887z" fill="#6a4f2a"/><path d="M175.59117,168.36843v-0.27501h1.44191v0.27501z" fill="#f0c992"/><path d="M177.02376,168.35857v-1.05605h0.14216v1.05605z" fill="#f0c992"/><path d="M177.06438,167.4853v-0.22339h0.56864v0.22339z" fill="#f0c992"/><path d="M177.61271,167.4853v-0.50771h0.18278v0.50771z" fill="#f0c992"/><path d="M174.69596,170.25835v-0.30463h2.51827v0.30463z" fill="#f0c992"/></g><path d="M179.62417,187.2891v-2.02108h1.01054v2.02108z" fill="#201108"/><g data-paper-data="{&quot;index&quot;:null}"><path d="M181.04713,189.56595v-2.30598h6.89048v2.30598z" fill="#cb9651"/><g fill="#ebae5e"><path d="M186.74108,189.53615v-1.60111h1.60111v1.60111z"/><path d="M186.47277,189.40803v-1.33682h2.10766v1.33682z"/><path d="M188.20201,189.79747h-1.33683v-2.10766h1.33683z"/></g><g fill="#ebae5e"><path d="M184.85052,189.55892v-1.26751h1.26751v1.26751z"/><path d="M184.63811,189.45749v-1.05829h1.66852v1.05829z"/><path d="M186.00706,189.76578h-1.05829v-1.66852h1.05829z"/></g><g fill="#ebae5e"><path d="M182.89039,189.51155v-1.26751h1.26751v1.26751z"/><path d="M182.67799,189.41012v-1.05829h1.66852v1.05829z"/><path d="M184.04693,189.71842h-1.05829v-1.66852h1.05829z"/></g><g fill="#ebae5e"><path d="M181.06285,189.56581v-1.02923h1.02923v1.02923z"/><path d="M180.89038,189.48345v-0.85934h1.35484v0.85934z"/><path d="M182.00197,189.73379h-0.85933v-1.35485h0.85933z"/></g></g><g><path d="M173.1461,181.11174l-1.36607,3.89358l-3.84465,-1.34891l1.36607,-3.89358z" fill="#d8a057"/><g fill="#ebae5e"><path d="M171.86769,183.7806l-0.00554,2.52439l-0.92669,-0.00203l0.00555,-2.52439z"/><path d="M172.00514,183.98291l-0.00463,2.10771l-1.21987,-0.00268l0.00463,-2.10771z"/><path d="M171.78016,186.69147l-0.77373,-0.0017l0.0073,-3.32305l0.77373,0.0017z"/></g><g fill="#ebae5e"><path d="M170.31907,183.63509l-0.7994,2.27846l-0.87443,-0.3068l0.7994,-2.27846z"/><path d="M170.38522,183.86307l-0.66745,1.90237l-1.15108,-0.40386l0.66745,-1.90238z"/><path d="M169.32066,186.23568l-0.73009,-0.25615l1.05232,-2.99932l0.73009,0.25615z"/></g><g fill="#ebae5e"><path d="M168.98179,182.76735l-0.44794,2.08781l-0.73682,-0.15361l0.44794,-2.0878z"/><path d="M169.05558,182.95728l-0.374,1.74319l-0.96993,-0.20221l0.374,-1.74319z"/><path d="M168.40073,185.1615l-0.61519,-0.12826l0.58965,-2.74834l0.61519,0.12825z"/></g><path d="M173.31933,181.73434l-0.85581,2.43923l-4.29861,-1.50818l0.85581,-2.43923z" fill="#d8a057"/><g fill="#ebae5e"><path d="M173.01496,182.24324l1.30133,1.48637l-0.88074,0.77109l-1.30133,-1.48637z"/><path d="M173.25015,182.24744l1.08653,1.24103l-1.15938,1.01504l-1.08653,-1.24103z"/><path d="M174.4385,184.02479l-0.73536,0.64381l-1.71304,-1.95663l0.73536,-0.64381z"/></g></g><g data-paper-data="{&quot;index&quot;:null}"><path d="M195.65501,175.24103l4.10175,0.44914l-0.4435,4.05021l-4.10175,-0.44914z" fill="#d8a057"/><g fill="#ebae5e"><path d="M198.56907,178.45389l2.27931,1.08505l-0.39832,0.83672l-2.27931,-1.08506z"/><path d="M198.81822,178.4005l1.90308,0.90595l-0.52434,1.10144l-1.90308,-0.90595z"/><path d="M197.83363,179.04026l0.33257,-0.69861l3.00043,1.42835l-0.33257,0.69861z"/></g><g fill="#ebae5e"><path d="M198.80909,176.90978l2.40029,0.26283l-0.10087,0.92118l-2.40029,-0.26283z"/><path d="M199.01806,176.77645l2.00409,0.21944l-0.13278,1.21263l-2.00409,-0.21945z"/><path d="M198.3253,177.70742l0.08422,-0.76913l3.15968,0.34598l-0.08421,0.76913z"/></g><g fill="#ebae5e"><path d="M198.68262,175.51917l2.07655,0.49751l-0.17961,0.73091l-2.07655,-0.49751z"/><path d="M198.87888,175.4365l1.73379,0.41539l-0.23644,0.96216l-1.73379,-0.41539z"/><path d="M198.17982,176.10489l0.14997,-0.61027l2.73352,0.65491l-0.14997,0.61027z"/></g><path d="M196.19413,175.1879l2.56964,0.28137l-0.49586,4.52844l-2.56964,-0.28137z" fill="#d8a057"/><g fill="#ebae5e"><path d="M197.36452,179.20013l0.77873,1.81558l-1.07581,0.46143l-0.77873,-1.81558z"/><path d="M197.60711,179.26808l0.65019,1.5159l-1.41617,0.60741l-0.65019,-1.5159z"/><path d="M196.25581,179.32484l0.89823,-0.38526l1.0251,2.38999l-0.89823,0.38526z"/></g></g></g><text transform="translate(216.03063,169.75271) scale(0.18257,0.18257)" font-size="40" xml:space="preserve" fill="#81683a" fill-rule="nonzero" stroke="#81683a" stroke-width="3" stroke-linecap="butt" stroke-linejoin="miter" stroke-miterlimit="10" stroke-dasharray="" stroke-dashoffset="0" font-family="Sans Serif" font-weight="normal" text-anchor="start" style="mix-blend-mode: normal"><tspan x="0" dy="0">OR</tspan></text><text transform="translate(215.78063,120.25271) scale(0.18257,0.18257)" font-size="40" xml:space="preserve" fill="#81683a" fill-rule="nonzero" stroke="#81683a" stroke-width="3" stroke-linecap="butt" stroke-linejoin="miter" stroke-miterlimit="10" stroke-dasharray="" stroke-dashoffset="0" font-family="Sans Serif" font-weight="normal" text-anchor="start" style="mix-blend-mode: normal"><tspan x="0" dy="0">OR</tspan></text><text transform="translate(236.53063,170.00271) scale(0.18257,0.18257)" font-size="40" xml:space="preserve" fill="#81683a" fill-rule="nonzero" stroke="#81683a" stroke-width="3" stroke-linecap="butt" stroke-linejoin="miter" stroke-miterlimit="10" stroke-dasharray="" stroke-dashoffset="0" font-family="Sans Serif" font-weight="normal" text-anchor="start" style="mix-blend-mode: normal"><tspan x="0" dy="0">AND</tspan></text><text transform="translate(234.78063,120.50271) scale(0.18257,0.18257)" font-size="40" xml:space="preserve" fill="#81683a" fill-rule="nonzero" stroke="#81683a" stroke-width="3" stroke-linecap="butt" stroke-linejoin="miter" stroke-miterlimit="10" stroke-dasharray="" stroke-dashoffset="0" font-family="Sans Serif" font-weight="normal" text-anchor="start" style="mix-blend-mode: normal"><tspan x="0" dy="0">AND</tspan></text><text transform="translate(164.36396,226.08604) scale(0.18257,0.18257)" font-size="40" xml:space="preserve" fill="#81683a" fill-rule="nonzero" stroke="#81683a" stroke-width="3" stroke-linecap="butt" stroke-linejoin="miter" stroke-miterlimit="10" stroke-dasharray="" stroke-dashoffset="0" font-family="Sans Serif" font-weight="normal" text-anchor="start" style="mix-blend-mode: normal"><tspan x="0" dy="0">7 - switch to google doc</tspan><tspan x="0" dy="48px"> </tspan><tspan x="0" dy="48px">8 - cover screen with image of google doc, it </tspan><tspan x="0" dy="48px">changes the page title and favicon</tspan><tspan x="0" dy="48px"> </tspan><tspan x="0" dy="48px">9 - crash browser (best in chrome)</tspan><tspan x="0" dy="48px"> </tspan><tspan x="0" dy="48px">0 - open a website I made that opens itself</tspan><tspan x="0" dy="48px">rappidly until the browser stops it or crashes</tspan></text></g></g></svg>