<svg version="1.1" xmlns="http://www.w3.org/2000/svg" xmlns:xlink="http://www.w3.org/1999/xlink" width="327.78954" height="163.70044" viewBox="0,0,327.78954,163.70044"><g transform="translate(-102.9284,-71.63996)"><g data-paper-data="{&quot;isPaintingLayer&quot;:true}" fill-rule="nonzero" stroke="none" stroke-width="0" stroke-linecap="butt" stroke-linejoin="miter" stroke-miterlimit="10" stroke-dasharray="" stroke-dashoffset="0" style="mix-blend-mode: normal"><path d="M117.42577,231.0915v-5.96154h16.29487v5.96154z" fill="#81683a"/><path d="M234.42695,235.34041v-5.2766h104.87236v5.2766z" fill="#81683a"/><path d="M241.81133,233.75018v-7.3945h95.27524v7.3945z" fill="#7c6438"/><path d="M367.62446,230.05294v-5.40367h38.11009v5.40367z" fill="#7c6438"/><g><path d="M399.38922,79.13413v-5.5641h14.70513v5.5641z" fill="#81683a"/><path d="M414.09435,87.08285v-9.14102h6.35897v9.14102z" fill="#81683a"/><path d="M413.94401,225.71637v-6.75641h5.5641v6.75641z" fill="#81683a"/><path d="M396.81793,230.8149v-6.84725h18.71582v6.84725z" fill="#81683a"/><path d="M392.13404,85.46811v-9.89362h8.57447v9.89362z" fill="#81683a"/><path d="M392.13404,94.70215v-11.87235h4.61702v11.87235z" fill="#81683a"/><path d="M392.79361,228.96951v-8.57447h7.9149v8.57447z" fill="#81683a"/><path d="M392.79361,225.67164v-15.82979h4.61702v15.82979z" fill="#81683a"/><path d="M413.87838,222.53689v-138.70514h11.19384v138.70514z" fill="#81683a"/><path d="M422.18725,215.27658v-118.72342h5.93617v118.72342z" fill="#81683a"/><path d="M118.58031,225.57898v-146.25643h23.84616v146.25643z" fill="#e3c466"/><path d="M133.15752,229.04965v-152.36173h275.0426v152.36173z" fill="#e3c466"/><path d="M113.52023,219.4906v-132.95501h46.57611v132.95501z" fill="#e3c466"/><path d="M117.47767,215.15263v-122.0213h16.10884v122.0213z" fill="#d9bb61"/><path d="M121.7598,220.41231v-132.34617h7.94872v132.34617z" fill="#d9bb61"/><path d="M118.86519,79.41073v-5.5641h14.70513v5.5641z" fill="#81683a"/><path d="M112.50621,87.35945v-9.14103h6.35898v9.14103z" fill="#81683a"/><path d="M113.45141,225.99297v-6.75641h5.5641v6.75641z" fill="#81683a"/><path d="M138.19086,86.73407v-12.53192h269.10643v12.53192z" fill="#81683a"/><path d="M138.85044,232.49547v-13.18233h269.766v13.18233z" fill="#81683a"/><path d="M132.25103,85.74471v-9.89362h8.57447v9.89362z" fill="#81683a"/><path d="M136.4299,94.97875v-11.87234h4.61702v11.87234z" fill="#81683a"/><path d="M132.25103,229.24611v-8.57447h7.91489v8.57447z" fill="#81683a"/><path d="M135.5489,225.94824v-15.82979h4.61702v15.82979z" fill="#81683a"/><path d="M138.78864,222.68256v-7.91489h105.53193v7.91489z" fill="#81683a"/><path d="M331.05766,224.00171v-9.23404h85.08512v9.23404z" fill="#81683a"/><path d="M140.76736,92.08679v-7.91489h103.55321v7.91489z" fill="#81683a"/><path d="M305.66101,91.42722v-14.5318h107.25853v14.5318z" fill="#81683a"/><path d="M233.76738,76.91657v-5.2766h78.48937v5.2766z" fill="#81683a"/><path d="M107.88731,222.81348v-138.70514h6.35898v138.70514z" fill="#81683a"/><path d="M104.83612,215.55318v-118.72342h5.93617v118.72342z" fill="#81683a"/><path d="M110.59963,207.32598v-104.12822h3.97436v104.12822z" fill="#e3c466"/><path d="M164.85686,93.80387v-3.17949h60.41026v3.17949z" fill="#e3c466"/><path d="M332.68677,93.80387v-4.76923h66.76924v4.76923z" fill="#e3c466"/><path d="M154.30036,217.72055v-4.76923h78.69232v4.76923z" fill="#e3c466"/><path d="M336.12819,217.72055v-7.15385h66.76924v7.15385z" fill="#e3c466"/><path d="M113.99134,201.32169v-89.02565h24.64103v89.02565z" fill="#d9bb61"/><path d="M102.9284,202.34242v-94.98719h2.78205v94.98719z" fill="#81683a"/><path d="M108.4925,194.79114v-75.91026h2.78205v75.91026z" fill="#e3c466"/><path d="M426.74358,205.0802v-96.97437h3.97436v96.97437z" fill="#81683a"/><path d="M142.30215,130.2674v-39.41429h9.07857v39.41429z" fill="#81683a"/><path d="M137.87357,106.79597v-16.16429h7.75v16.16429z" fill="#81683a"/><path d="M138.18391,214.90942v-10.85h3.76429v10.85z" fill="#81683a"/><path d="M141.94819,227.30942v-50.70715h9.07857v50.70715z" fill="#81683a"/><path d="M143.49819,182.43374v-53.36429h6.42143v53.36429z" fill="#81683a"/><path d="M149.25533,215.81691v-124.66429h3.54286v124.66429z" fill="#81683a"/><path d="M151.46962,130.19746v-40.3h3.1v40.3z" fill="#81683a"/><path d="M149.25533,218.32891v-35.87143h5.97857v35.87143z" fill="#81683a"/><path d="M153.24105,220.10034v-4.87143h3.54286v4.87143z" fill="#81683a"/><path d="M150.64814,111.25303v-25.38704h8.66146v25.38704z" fill="#81683a"/><path d="M154.2322,98.41017v-12.24552h9.2588v12.24552z" fill="#81683a"/><path d="M153.52672,223.75843v-24.8h5.09286v24.8z" fill="#81683a"/><path d="M156.84815,227.07986v-20.37143h5.97857v20.37143z" fill="#81683a"/><path d="M160.391,224.20129v-11.07143h6.42143v11.07143z" fill="#81683a"/><path d="M164.15529,221.32272v-5.97857h12.4v5.97857z" fill="#81683a"/><path d="M407.19266,224.12405v-145.61469h7.6789v145.61469z" fill="#81683a"/><path d="M406.05504,79.40481v-4.26606h3.69725v4.26606z" fill="#81683a"/><path d="M363.79797,91.81307v-6.82569h44.65138v6.82569z" fill="#81683a"/><path d="M390.81632,133.33601v-44.93578h17.06422v44.93578z" fill="#81683a"/><path d="M374.80131,95.41279v-7.3945h20.76147v7.3945z" fill="#81683a"/><path d="M381.05819,99.67885v-8.53211h11.37615v8.53211z" fill="#81683a"/><path d="M385.03984,111.90821v-15.92661h7.3945v15.92661z" fill="#81683a"/><path d="M388.73709,122.14674v-12.79817h5.97248v12.79817z" fill="#81683a"/><path d="M393.76794,169.44165v-38.11009h15.92661v38.11009z" fill="#81683a"/><path d="M391.03146,223.57228v-65.41285h18.48624v65.41285z" fill="#81683a"/><path d="M389.32504,225.26339v-49.48624h11.66055v49.48624z" fill="#81683a"/><path d="M388.18743,226.68541v-41.52294h10.52294v41.52294z" fill="#81683a"/><path d="M385.9122,232.08908v-39.81652h8.81651v39.81652z" fill="#81683a"/><path d="M373.96724,222.98816v-11.66055h33.27523v11.66055z" fill="#81683a"/><path d="M369.13238,220.14412v-5.11927h12.79817v5.11927z" fill="#927642"/><path d="M381.64614,214.74045v-9.10092h17.63303v9.10092z" fill="#81683a"/><path d="M149.68003,82.19267v-4.83486h82.19267v4.83486z" fill="#927642"/><path d="M139.72591,85.60552v-6.25688h89.01836v6.25688z" fill="#927642"/><path d="M230.91854,82.47708v-4.55046h72.23854v4.55046z" fill="#927642"/><path d="M236.60662,83.04589v-8.24771h71.38533v8.24771z" fill="#927642"/><path d="M307.68024,83.8991v-4.83486h97.55047v4.83486z" fill="#927642"/><path d="M313.36831,85.60552v-9.10092h96.12845v9.10092z" fill="#927642"/><path d="M309.38666,89.58717v-6.25688h20.47707v6.25688z" fill="#927642"/><path d="M141.90888,94.42204v-9.66973h17.63303v9.66973z" fill="#927642"/><path d="M145.60613,98.68809v-7.3945h9.10092v7.3945z" fill="#927642"/><path d="M148.16576,101.53213v-7.11009h3.41284v7.11009z" fill="#927642"/><path d="M369.4435,89.87158v-8.24771h46.3578v8.24771z" fill="#927642"/><path d="M378.54441,92.71561v-6.25688h41.52294v6.25688z" fill="#927642"/><path d="M383.94808,96.12846v-4.55046h38.6789v4.55046z" fill="#927642"/><path d="M389.63616,102.38534v-8.81651h26.44954v8.81651z" fill="#927642"/><path d="M395.03983,106.9358v-5.40367h17.06422v5.40367z" fill="#927642"/><path d="M397.31506,112.68851v-7.9633h11.09174v7.9633z" fill="#927642"/><path d="M400.15909,117.23897v-7.11009h12.79817v7.11009z" fill="#927642"/><path d="M404.99396,120.65182v-5.11927h10.52294v5.11927z" fill="#927642"/><path d="M141.22306,219.13209v-11.66055h13.08257v11.66055z" fill="#7c6438"/><path d="M138.09462,224.25136v-9.66973h19.62385v9.66973z" fill="#7c6438"/><path d="M142.07628,230.22384v-12.79817h24.17431v12.79817z" fill="#7c6438"/><path d="M158.33895,229.21887v-8.24771h15.92661v8.24771z" fill="#7c6438"/><path d="M172.73779,229.48413v-6.25688h110.63304v6.25688z" fill="#7c6438"/><path d="M235.3066,225.21807v-4.55046h7.6789v4.55046z" fill="#7c6438"/><path d="M281.05904,228.91532v-6.82569h81.05505v6.82569z" fill="#7c6438"/><path d="M359.66116,226.92449v-5.97248h46.92661v5.97248z" fill="#7c6438"/><path d="M333.21161,224.93367v-4.55046h3.12844v4.55046z" fill="#7c6438"/><path d="M385.47223,224.78642v-10.52294h25.88074v10.52294z" fill="#7c6438"/><path d="M390.59149,215.4011v-6.82569h22.46789v6.82569z" fill="#7c6438"/><path d="M396.84838,211.41944v-7.9633h23.60551v7.9633z" fill="#7c6438"/><path d="M400.26122,205.73137v-7.11009h23.60551v7.11009z" fill="#7c6438"/><path d="M403.38966,200.3277v-5.40367h18.77064v5.40367z" fill="#7c6438"/><path d="M390.8759,204.87816v-7.9633h10.80734v7.9633z" fill="#7c6438"/><path d="M405.38049,198.33687v-20.76147h12.79817v20.76147z" fill="#7c6438"/><path d="M398.27039,200.0433v-15.92661h10.52294v15.92661z" fill="#7c6438"/><path d="M408.79333,180.70385v-7.9633h4.26606v7.9633z" fill="#7c6438"/><path d="M165.85332,204.00398v-26.23077h215.01284v26.23077z" fill="#ddbe63"/><path d="M296.57318,187.70911v-17.08975h87.43591v17.08975z" fill="#ddbe63"/><path d="M170.87864,209.56809v-9.9359h58.82052v9.9359z" fill="#ddbe63"/><path d="M245.76915,212.35014v-10.33333h81.07693v10.33333z" fill="#ddbe63"/><path d="M338.49374,211.15783v-10.33333h31.79488v10.33333z" fill="#ddbe63"/><path d="M158.17661,182.64848v-16.29487h64.38462v16.29487z" fill="#ddbe63"/><path d="M161.3561,194.57156v-15.10257h7.15385v15.10257z" fill="#ddbe63"/><path d="M157.27004,167.651v-9.53846h49.28206v9.53846z" fill="#ddbe63"/><path d="M328.99555,179.17665v-14.70513h58.02565v14.70513z" fill="#ddbe63"/><path d="M157.84587,163.27919v-15.10257h12.71795v15.10257z" fill="#ddbe63"/><path d="M361.56409,172.81767v-18.67949h25.03846v18.67949z" fill="#ddbe63"/><path d="M161.3727,161.29203v-29.8077h10.73077v29.8077z" fill="#ddbe63"/><path d="M375.07691,170.99832v-35.76923h11.12821v35.76923z" fill="#ddbe63"/></g><g><path d="M176.43917,163.33503v-42.5h5v42.5z" fill="#4b4841"/><path d="M178.93917,188.83503v-27.5h5.5v27.5z" fill="#4b4841"/><path d="M183.43917,188.83503v-4.5h18.5v4.5z" fill="#4b4841"/><path d="M199.93917,187.83503v-5h23v5z" fill="#4b4841"/><path d="M181.43917,150.33503v-4.5h24v4.5z" fill="#4b4841"/><path d="M203.93917,147.83503v-4h19.5v4z" fill="#4b4841"/><path d="M178.93917,124.33503v-5.5h31v5.5z" fill="#4b4841"/><path d="M208.43917,121.83503v-4.5h24v4.5z" fill="#4b4841"/><g fill="#4b4841"><path d="M237.93916,138.83503v-17h5.5v17z"/><path d="M240.93916,148.33503v-14h5.5v14z"/><path d="M243.43916,153.83503v-8.5h5.5v8.5z"/><path d="M246.93916,156.83503v-5.5h10v5.5z"/></g><g data-paper-data="{&quot;index&quot;:null}" fill="#4b4841"><path d="M266.93917,138.83503v-17h5.5v17z"/><path d="M263.93917,148.33503v-14h5.5v14z"/><path d="M261.43917,153.83503v-8.5h5.5v8.5z"/><path d="M253.43917,156.83503v-5.5h10v5.5z"/></g><g data-paper-data="{&quot;index&quot;:null}" fill="#4b4841"><path d="M243.93917,171.83503v17h-5.5v-17z"/><path d="M246.93917,162.33503v14h-5.5v-14z"/><path d="M249.43917,156.83503v8.5h-5.5v-8.5z"/><path d="M257.43917,153.83503v5.5h-10v-5.5z"/></g><g data-paper-data="{&quot;index&quot;:null}" fill="#4b4841"><path d="M272.93917,171.83503v17h-5.5v-17z"/><path d="M269.93917,162.33503v14h-5.5v-14z"/><path d="M267.43917,156.83503v8.5h-5.5v-8.5z"/><path d="M263.93917,153.83503v5.5h-10v-5.5z"/></g><path d="M289.93916,144.83503v-25h5v25z" fill="#4b4841"/><path d="M291.93916,181.83503v-40.5h5v40.5z" fill="#4b4841"/><path d="M289.43916,190.83503v-10h4v10z" fill="#4b4841"/><path d="M306.93916,125.83503v-4.5h27v4.5z" fill="#4b4841"/><path d="M331.43916,123.83503v-4.5h31v4.5z" fill="#4b4841"/><path d="M327.43916,163.33503v-38.5h5.625v38.5z" fill="#4b4841"/><path d="M329.93916,190.83503v-29.5h5v29.5z" fill="#4b4841"/></g></g></g></svg>