<svg version="1.1" xmlns="http://www.w3.org/2000/svg" xmlns:xlink="http://www.w3.org/1999/xlink" width="364.67601" height="106.00311" viewBox="0,0,364.67601,106.00311"><g transform="translate(-23.82408,-35.49847)"><g data-paper-data="{&quot;isPaintingLayer&quot;:true}" fill-rule="nonzero" stroke="none" stroke-width="0" stroke-linecap="butt" stroke-linejoin="miter" stroke-miterlimit="10" stroke-dasharray="" stroke-dashoffset="0" style="mix-blend-mode: normal"><path d="M114.65764,125.02638v-60.5h258v60.5z" fill="#c7c7c7"/><g><path d="M115.05047,120.98113v-57h108.65443v57z" fill="#e0b500"/><path d="M116.23764,119.41379v-14.5h107.60362v14.5z" fill="#cc9b00"/></g><path d="M371.5001,119.00001v-56h17v56z" fill="#000000"/><path d="M112.50008,65.00001v-18h258.89941v18z" fill="#000000"/><path d="M374.5001,118.00001v18h-258.89941v-18z" fill="#000000"/><path d="M115.50008,63.00001v56h-17v-56z" fill="#000000"/><g><path d="M49.36373,136.36351v-9.39796h57.74528v9.39796z" fill="#dfa459"/><path d="M35.60551,134.7676v-77.78054h85.29891v77.78054z" fill="#aa7e44"/><path d="M40.52805,129.03737v-67.47057h73.63149v67.47057z" fill="#dfa459"/><g><g><g fill="#000000"><path d="M92.42055,111.02809v-18.66221h18.66222v18.66221z"/><path d="M89.64363,109.53472v-15.58174h24.56646v15.58174z"/><path d="M94.0545,89.50747h15.58174v24.56646h-15.58174z"/></g><g fill="#ededed"><path d="M94.30639,109.02634v-14.48751h14.48753v14.48751z"/><path d="M92.15067,107.86702v-12.09614h19.071v12.09614z"/><path d="M95.57483,92.31982h12.09614v19.071h-12.09614z"/></g></g><g fill="#000000"><path d="M97.41786,106.05194v-8.22549h8.22549v8.22549z"/><path d="M96.19392,105.39372v-6.86773h10.82781v6.86773z"/><path d="M98.13804,96.56659h6.86773v10.82781h-6.86773z"/></g></g><g><g><g fill="#000000"><path d="M47.88334,110.04756v-18.66219h18.66222v18.66219z"/><path d="M45.10644,108.55417v-15.58174h24.56646v15.58174z"/><path d="M49.51726,88.52692h15.58172v24.56646h-15.58172z"/></g><g fill="#ededed"><path d="M49.76918,108.04581v-14.48753h14.48753v14.48753z"/><path d="M47.61347,106.88647v-12.09614h19.071v12.09614z"/><path d="M51.03762,91.33929h12.09614v19.071h-12.09614z"/></g></g><g fill="#000000"><path d="M52.88062,105.07139v-8.22549h8.22549v8.22549z"/><path d="M51.65671,104.41318v-6.86775h10.82781v6.86775z"/><path d="M53.6008,95.58604h6.86775v10.82781h-6.86775z"/></g></g><path d="M43.74505,141.50158v-7.91131h68.69021v7.91131z" fill="#aa7e44"/><g fill="#000000"><path d="M51.99675,125.32932v-3.76728h51.48625v3.76728z"/><path d="M49.86199,129.43893v-11.30186h4.14401v11.30186z"/><path d="M101.56686,128.30874v-8.91592h4.01845v8.91592z"/></g><g><g fill="#41311a"><path d="M32.79479,79.72003v-34.25824h97.68096v34.25824z"/><path d="M23.82408,88.53501v-28.24803h60.40273v28.24803z"/><path d="M46.37882,54.53082v-16.8286h80.93565v16.8286z"/><path d="M52.1599,49.72266v-14.22419h72.9617v14.22419z"/></g><path d="M36.95198,77.2939v-30.95416h88.69905v30.95416z" fill="#6a4f2a"/><path d="M35.96071,61.56237v-4.47329h42.6682v4.47329z" fill="#41311a"/><path d="M28.80615,85.25872v-25.5236h54.8486v25.5236z" fill="#6a4f2a"/><path d="M86.36673,56.0037v-2.05025h36.30237v2.05025z" fill="#41311a"/><path d="M49.28695,54.53412v-15.20556h73.49349v15.20556z" fill="#6a4f2a"/><path d="M58.50906,43.16826v-3.78509h43.01228v3.78509z" fill="#f0c992"/><path d="M85.68783,45.32027v-7.22606h23.39869v7.22606z" fill="#f0c992"/><path d="M54.5365,40.03878v-2.70141h66.25276v2.70141z" fill="#6a4f2a"/><path d="M37.1518,48.9446v-2.32982h12.21549v2.32982z" fill="#f0c992"/><path d="M49.2883,48.86105v-8.94655h1.20435v8.94655z" fill="#f0c992"/><path d="M49.63241,41.46293v-1.89254h4.81737v1.89254z" fill="#f0c992"/><path d="M54.27777,41.46293v-4.30122h1.54843v4.30122z" fill="#f0c992"/><path d="M29.56777,64.95551v-2.58074h21.3341v2.58074z" fill="#f0c992"/></g></g><g><g fill="#c5803f"><path d="M116.07492,101.01686l-34.76754,-36.83371l15.10986,-16.00781l34.76755,36.83371z"/><path d="M117.77349,101.08951l-36.72134,-38.90362l13.68645,-14.49981l36.72134,38.90362z"/><path d="M114.41376,100.68225l-32.68919,-34.63185l16.66176,-17.65194l32.6892,34.63185z"/></g><g fill="#de9147"><path d="M115.52779,98.61872l-32.18153,-34.09401l13.53844,-14.343l32.18152,34.09401z"/><path d="M117.07588,98.71154l-33.99001,-36.00996l12.26306,-12.99183l33.99,36.00996z"/><path d="M114.01011,98.28789l-30.25777,-32.05593l14.92894,-15.81614l30.25777,32.05593z"/></g></g></g></g></svg>