<svg version="1.1" xmlns="http://www.w3.org/2000/svg" xmlns:xlink="http://www.w3.org/1999/xlink" width="364.676" height="106.00311" viewBox="0,0,364.676,106.00311"><g transform="translate(-23.8241,-35.49847)"><g data-paper-data="{&quot;isPaintingLayer&quot;:true}" fill-rule="nonzero" stroke="none" stroke-width="0" stroke-linecap="butt" stroke-linejoin="miter" stroke-miterlimit="10" stroke-dasharray="" stroke-dashoffset="0" style="mix-blend-mode: normal"><path d="M114.65771,125.02638v-60.5h258v60.5z" fill="#c7c7c7"/><path d="M371.50011,119.00001v-56h17v56z" fill="#000000"/><path d="M112.50015,65.00001v-18h258.89941v18z" fill="#000000"/><path d="M374.50011,118.00001v18h-258.89941v-18z" fill="#000000"/><path d="M115.50015,63.00001v56h-17v-56z" fill="#000000"/><path d="M115.50014,63.00001v56h-17v-56z" fill="#000000"/><path d="M49.36376,136.36351v-9.39796h57.74528v9.39796z" fill="#dfa459"/><path d="M35.60551,134.7676v-77.78054h85.29891v77.78054z" fill="#aa7e44"/><path d="M40.52808,129.03737v-67.47057h73.63149v67.47057z" fill="#dfa459"/><path d="M43.74508,141.50158v-7.91131h68.69021v7.91131z" fill="#aa7e44"/><g fill="#000000"><path d="M51.99678,125.32932v-3.76728h51.48625v3.76728z"/><path d="M49.86202,129.43893v-11.30186h4.14401v11.30186z"/><path d="M101.56692,128.30874v-8.91592h4.01845v8.91592z"/></g><g><g fill="#41311a"><path d="M32.7948,79.72003v-34.25824h97.68096v34.25824z"/><path d="M23.82411,77.1516v-16.86462h60.40273v11.47248l-50.57511,0.49101l-0.59943,4.90113z"/><path d="M46.37885,54.53082v-16.8286h80.93565v16.8286z"/><path d="M52.15993,49.72266v-14.22419h72.9617v14.22419z"/></g><path d="M36.95199,77.2939v-30.95416h88.69905v30.95416z" fill="#6a4f2a"/><path d="M35.96072,61.56237v-4.47329h42.6682v4.47329z" fill="#41311a"/><path d="M29.00589,78.2689l-0.19971,-18.53379h54.8486v25.5236l-48.80511,-11.1837l-0.99854,4.19389z" fill="#6a4f2a"/><path d="M86.36679,56.0037v-2.05025h36.30237v2.05025z" fill="#41311a"/><path d="M49.28698,54.53412v-15.20556h73.49349v15.20556z" fill="#6a4f2a"/><path d="M58.50909,43.16826v-3.78509h43.01228v3.78509z" fill="#f0c992"/><path d="M85.68789,45.32027v-7.22606h23.39869v7.22606z" fill="#f0c992"/><path d="M54.53653,40.03878v-2.70141h66.25276v2.70141z" fill="#6a4f2a"/><path d="M37.15183,48.9446v-2.32982h12.21549v2.32982z" fill="#f0c992"/><path d="M49.28833,48.86105v-8.94655h1.20435v8.94655z" fill="#f0c992"/><path d="M49.63244,41.46293v-1.89254h4.81737v1.89254z" fill="#f0c992"/><path d="M54.2778,41.46293v-4.30122h1.54843v4.30122z" fill="#f0c992"/><path d="M29.5678,64.95551v-2.58074h21.3341v2.58074z" fill="#f0c992"/></g><g><path d="M33.05229,92.41811v-20.57002h92.66495v20.57002z" fill="#efefef"/><path d="M34.94745,89.7515v-6.19097h87.47252v6.19097z" fill="#f8f8f8"/><path d="M35.01147,73.83486l7.3723,-0.03543l13.65209,8.28681l-8.7818,-0.10156z" fill="#f8f8f8"/><path d="M47.4007,73.24302l7.37229,-0.03543l13.65209,8.28681l-8.7818,-0.10156z" fill="#f8f8f8"/><path d="M35.60821,76.60992l8.65937,5.69059l-8.7818,-0.10156z" fill="#f8f8f8"/><path d="M73.29882,80.17275l-9.18661,-6.19097l57.51618,0.39942v6.19097z" fill="#f8f8f8"/></g><g><g fill="#c5803f"><path d="M116.07493,101.01686l-34.76754,-36.83371l15.10986,-16.00781l34.76755,36.83371z"/><path d="M117.7735,101.08951l-36.72134,-38.90362l13.68645,-14.49981l36.72134,38.90362z"/><path d="M114.41377,100.68225l-32.68919,-34.63185l16.66176,-17.65194l32.6892,34.63185z"/></g><g fill="#de9147"><path d="M115.5278,98.61872l-32.18153,-34.09401l13.53844,-14.343l32.18152,34.09401z"/><path d="M117.07589,98.71154l-33.99001,-36.00996l12.26306,-12.99183l33.99,36.00996z"/><path d="M114.01012,98.28789l-30.25777,-32.05593l14.92894,-15.81614l30.25777,32.05593z"/></g></g><g fill="#000000"><path d="M45.71634,109.33169l17.79316,-17.79316l3.81282,3.81282l-17.79316,17.79316z"/><path d="M49.52916,91.83125l17.79316,17.79316l-3.81282,3.81282l-17.79316,-17.79316z"/></g><g fill="#000000"><path d="M89.06046,108.73984l17.79316,-17.79316l3.81282,3.81282l-17.79316,17.79316z"/><path d="M92.87328,91.2394l17.79316,17.79316l-3.81282,3.81282l-17.79316,-17.79316z"/></g></g></g></svg>