<svg version="1.1" xmlns="http://www.w3.org/2000/svg" xmlns:xlink="http://www.w3.org/1999/xlink" width="327.78954" height="163.70043" viewBox="0,0,327.78954,163.70043"><g transform="translate(-102.9284,-71.63998)"><g data-paper-data="{&quot;isPaintingLayer&quot;:true}" fill-rule="nonzero" stroke="none" stroke-linecap="butt" stroke-linejoin="miter" stroke-miterlimit="10" stroke-dasharray="" stroke-dashoffset="0" style="mix-blend-mode: normal"><g stroke-width="0"><path d="M399.38922,79.13413v-5.5641h14.70513v5.5641z" fill="#81683a"/><path d="M414.09435,87.08285v-9.14102h6.35897v9.14102z" fill="#81683a"/><path d="M413.94401,225.71637v-6.75641h5.5641v6.75641z" fill="#81683a"/><path d="M396.81793,230.8149v-6.84725h18.71582v6.84725z" fill="#81683a"/><path d="M392.13404,85.46811v-9.89362h8.57447v9.89362z" fill="#81683a"/><path d="M392.13404,94.70215v-11.87235h4.61702v11.87235z" fill="#81683a"/><path d="M392.79361,228.96951v-8.57447h7.9149v8.57447z" fill="#81683a"/><path d="M392.79361,225.67164v-15.82979h4.61702v15.82979z" fill="#81683a"/><path d="M413.87838,222.53689v-138.70514h11.19384v138.70514z" fill="#81683a"/><path d="M422.18725,215.27658v-118.72342h5.93617v118.72342z" fill="#81683a"/><path d="M118.58031,225.57898v-146.25643h23.84616v146.25643z" fill="#e3c466"/><path d="M133.15752,229.04965v-152.36173h275.0426v152.36173z" fill="#e3c466"/><path d="M113.52023,219.4906v-132.95501h46.57611v132.95501z" fill="#e3c466"/><path d="M117.47767,215.15263v-122.0213h16.10884v122.0213z" fill="#d9bb61"/><path d="M121.7598,220.41231v-132.34617h7.94872v132.34617z" fill="#d9bb61"/><path d="M118.86519,79.41073v-5.5641h14.70513v5.5641z" fill="#81683a"/><path d="M112.50621,87.35945v-9.14103h6.35898v9.14103z" fill="#81683a"/><path d="M113.45141,225.99297v-6.75641h5.5641v6.75641z" fill="#81683a"/><path d="M117.42577,231.0915v-5.96154h16.29487v5.96154z" fill="#81683a"/><path d="M138.19086,86.73407v-12.53192h269.10643v12.53192z" fill="#81683a"/><path d="M138.85044,232.49547v-13.18233h269.766v13.18233z" fill="#81683a"/><path d="M132.25103,85.74471v-9.89362h8.57447v9.89362z" fill="#81683a"/><path d="M136.4299,94.97875v-11.87234h4.61702v11.87234z" fill="#81683a"/><path d="M132.25103,229.24611v-8.57447h7.91489v8.57447z" fill="#81683a"/><path d="M135.5489,225.94824v-15.82979h4.61702v15.82979z" fill="#81683a"/><path d="M138.78864,222.68256v-7.91489h105.53193v7.91489z" fill="#81683a"/><path d="M331.05766,224.00171v-9.23404h85.08512v9.23404z" fill="#81683a"/><path d="M140.76736,92.08679v-7.91489h103.55321v7.91489z" fill="#81683a"/><path d="M305.66101,91.42722v-14.5318h107.25853v14.5318z" fill="#81683a"/><path d="M233.76738,76.91657v-5.2766h78.48937v5.2766z" fill="#81683a"/><path d="M234.42695,235.34041v-5.2766h104.87236v5.2766z" fill="#81683a"/><path d="M107.88731,222.81348v-138.70514h6.35898v138.70514z" fill="#81683a"/><path d="M104.83612,215.55318v-118.72342h5.93617v118.72342z" fill="#81683a"/><path d="M110.59963,207.32598v-104.12822h3.97436v104.12822z" fill="#e3c466"/><path d="M164.85686,93.80387v-3.17949h60.41026v3.17949z" fill="#e3c466"/><path d="M332.68677,93.80387v-4.76923h66.76924v4.76923z" fill="#e3c466"/><path d="M154.30036,217.72055v-4.76923h78.69232v4.76923z" fill="#e3c466"/><path d="M336.12819,217.72055v-7.15385h66.76924v7.15385z" fill="#e3c466"/><path d="M113.99134,201.32169v-89.02565h24.64103v89.02565z" fill="#d9bb61"/><path d="M102.9284,202.34242v-94.98719h2.78205v94.98719z" fill="#81683a"/><path d="M108.4925,194.79114v-75.91026h2.78205v75.91026z" fill="#e3c466"/><path d="M426.74358,205.0802v-96.97437h3.97436v96.97437z" fill="#81683a"/><path d="M142.30215,130.2674v-39.41429h9.07857v39.41429z" fill="#81683a"/><path d="M137.87357,106.79597v-16.16429h7.75v16.16429z" fill="#81683a"/><path d="M138.18391,214.90942v-10.85h3.76429v10.85z" fill="#81683a"/><path d="M141.94819,227.30942v-50.70715h9.07857v50.70715z" fill="#81683a"/><path d="M143.49819,182.43374v-53.36429h6.42143v53.36429z" fill="#81683a"/><path d="M149.25533,215.81691v-124.66429h3.54286v124.66429z" fill="#81683a"/><path d="M151.46962,130.19746v-40.3h3.1v40.3z" fill="#81683a"/><path d="M149.25533,218.32891v-35.87143h5.97857v35.87143z" fill="#81683a"/><path d="M153.24105,220.10034v-4.87143h3.54286v4.87143z" fill="#81683a"/><path d="M150.64814,111.25303v-25.38704h8.66146v25.38704z" fill="#81683a"/><path d="M154.2322,98.41017v-12.24552h9.2588v12.24552z" fill="#81683a"/><path d="M153.52672,223.75843v-24.8h5.09286v24.8z" fill="#81683a"/><path d="M156.84815,227.07986v-20.37143h5.97857v20.37143z" fill="#81683a"/><path d="M160.391,224.20129v-11.07143h6.42143v11.07143z" fill="#81683a"/><path d="M164.15529,221.32272v-5.97857h12.4v5.97857z" fill="#81683a"/><path d="M407.19266,224.12405v-145.61469h7.6789v145.61469z" fill="#81683a"/><path d="M406.05504,79.40481v-4.26606h3.69725v4.26606z" fill="#81683a"/><path d="M363.79797,91.81307v-6.82569h44.65138v6.82569z" fill="#81683a"/><path d="M390.81632,133.33601v-44.93578h17.06422v44.93578z" fill="#81683a"/><path d="M374.80131,95.41279v-7.3945h20.76147v7.3945z" fill="#81683a"/><path d="M381.05819,99.67885v-8.53211h11.37615v8.53211z" fill="#81683a"/><path d="M385.03984,111.90821v-15.92661h7.3945v15.92661z" fill="#81683a"/><path d="M388.73709,122.14674v-12.79817h5.97248v12.79817z" fill="#81683a"/><path d="M393.76794,169.44165v-38.11009h15.92661v38.11009z" fill="#81683a"/><path d="M391.03146,223.57228v-65.41285h18.48624v65.41285z" fill="#81683a"/><path d="M389.32504,225.26339v-49.48624h11.66055v49.48624z" fill="#81683a"/><path d="M388.18743,226.68541v-41.52294h10.52294v41.52294z" fill="#81683a"/><path d="M385.9122,232.08908v-39.81652h8.81651v39.81652z" fill="#81683a"/><path d="M373.96724,222.98816v-11.66055h33.27523v11.66055z" fill="#81683a"/><path d="M369.13238,220.14412v-5.11927h12.79817v5.11927z" fill="#927642"/><path d="M381.64614,214.74045v-9.10092h17.63303v9.10092z" fill="#81683a"/><path d="M149.68003,82.19267v-4.83486h82.19267v4.83486z" fill="#927642"/><path d="M139.72591,85.60552v-6.25688h89.01836v6.25688z" fill="#927642"/><path d="M230.91854,82.47708v-4.55046h72.23854v4.55046z" fill="#927642"/><path d="M236.60662,83.04589v-8.24771h71.38533v8.24771z" fill="#927642"/><path d="M307.68024,83.8991v-4.83486h97.55047v4.83486z" fill="#927642"/><path d="M313.36831,85.60552v-9.10092h96.12845v9.10092z" fill="#927642"/><path d="M309.38666,89.58717v-6.25688h20.47707v6.25688z" fill="#927642"/><path d="M141.90888,94.42204v-9.66973h17.63303v9.66973z" fill="#927642"/><path d="M145.60613,98.68809v-7.3945h9.10092v7.3945z" fill="#927642"/><path d="M148.16576,101.53213v-7.11009h3.41284v7.11009z" fill="#927642"/><path d="M369.4435,89.87158v-8.24771h46.3578v8.24771z" fill="#927642"/><path d="M378.54441,92.71561v-6.25688h41.52294v6.25688z" fill="#927642"/><path d="M383.94808,96.12846v-4.55046h38.6789v4.55046z" fill="#927642"/><path d="M389.63616,102.38534v-8.81651h26.44954v8.81651z" fill="#927642"/><path d="M395.03983,106.9358v-5.40367h17.06422v5.40367z" fill="#927642"/><path d="M397.31506,112.68851v-7.9633h11.09174v7.9633z" fill="#927642"/><path d="M400.15909,117.23897v-7.11009h12.79817v7.11009z" fill="#927642"/><path d="M404.99396,120.65182v-5.11927h10.52294v5.11927z" fill="#927642"/><path d="M141.22306,219.13209v-11.66055h13.08257v11.66055z" fill="#7c6438"/><path d="M138.09462,224.25136v-9.66973h19.62385v9.66973z" fill="#7c6438"/><path d="M142.07628,230.22384v-12.79817h24.17431v12.79817z" fill="#7c6438"/><path d="M158.33895,229.21887v-8.24771h15.92661v8.24771z" fill="#7c6438"/><path d="M172.73779,229.48413v-6.25688h110.63304v6.25688z" fill="#7c6438"/><path d="M235.3066,225.21807v-4.55046h7.6789v4.55046z" fill="#7c6438"/><path d="M241.81133,233.75018v-7.3945h95.27524v7.3945z" fill="#7c6438"/><path d="M281.05904,228.91532v-6.82569h81.05505v6.82569z" fill="#7c6438"/><path d="M359.66116,226.92449v-5.97248h46.92661v5.97248z" fill="#7c6438"/><path d="M333.21161,224.93367v-4.55046h3.12844v4.55046z" fill="#7c6438"/><path d="M367.62446,230.05294v-5.40367h38.11009v5.40367z" fill="#7c6438"/><path d="M385.47223,224.78642v-10.52294h25.88074v10.52294z" fill="#7c6438"/><path d="M390.59149,215.4011v-6.82569h22.46789v6.82569z" fill="#7c6438"/><path d="M396.84838,211.41944v-7.9633h23.60551v7.9633z" fill="#7c6438"/><path d="M400.26122,205.73137v-7.11009h23.60551v7.11009z" fill="#7c6438"/><path d="M403.38966,200.3277v-5.40367h18.77064v5.40367z" fill="#7c6438"/><path d="M390.8759,204.87816v-7.9633h10.80734v7.9633z" fill="#7c6438"/><path d="M405.38049,198.33687v-20.76147h12.79817v20.76147z" fill="#7c6438"/><path d="M398.27039,200.0433v-15.92661h10.52294v15.92661z" fill="#7c6438"/><path d="M408.79333,180.70385v-7.9633h4.26606v7.9633z" fill="#7c6438"/><path d="M165.85332,204.00398v-26.23077h215.01284v26.23077z" fill="#ddbe63"/><path d="M296.57318,187.70911v-17.08975h87.43591v17.08975z" fill="#ddbe63"/><path d="M170.87864,209.56809v-9.9359h58.82052v9.9359z" fill="#ddbe63"/><path d="M245.76915,212.35014v-10.33333h81.07693v10.33333z" fill="#ddbe63"/><path d="M338.49374,211.15783v-10.33333h31.79488v10.33333z" fill="#ddbe63"/><path d="M158.17661,182.64848v-16.29487h64.38462v16.29487z" fill="#ddbe63"/><path d="M161.3561,194.57156v-15.10257h7.15385v15.10257z" fill="#ddbe63"/><path d="M157.27004,167.651v-9.53846h49.28206v9.53846z" fill="#ddbe63"/><path d="M328.99555,179.17665v-14.70513h58.02565v14.70513z" fill="#ddbe63"/><path d="M157.84587,163.2792v-15.10257h12.71795v15.10257z" fill="#ddbe63"/><path d="M361.56409,172.81767v-18.67949h25.03846v18.67949z" fill="#ddbe63"/><path d="M161.3727,161.29203v-29.8077h10.73077v29.8077z" fill="#ddbe63"/><path d="M375.07691,170.99832v-35.76923h11.12821v35.76923z" fill="#ddbe63"/></g><g fill="#4b4841" stroke-width="0.5"><path d="M196.69079,148.37446c2.803,-0.85898 5.72876,-1.4249 8.67723,-1.93511c-0.8376,-0.58901 -1.68542,-1.17756 -2.50921,-1.83526c-2.06441,-1.6482 -3.74028,-3.46199 -6.01526,-4.77182c0,0 -1.42512,-0.85432 -2.1398,-2.39952c-1.00992,3.76358 -1.03736,8.42212 -1.63185,11.68695c-0.08444,0.46375 -0.16995,0.92847 -0.25664,1.39397c1.08315,-1.68094 3.05167,-2.05568 3.87553,-2.13922zM221.47865,142.61578c0,0 4.64296,-1.85551 6.49847,2.78745c1.85551,4.64296 -2.78745,6.49847 -2.78745,6.49847c-8.34283,3.22458 -17.61631,3.32085 -26.0715,6.19263l-2.04888,0.25616c0,0 -4.45316,0 -4.95429,-4.2026c-1.16866,5.84816 -2.56791,11.74333 -4.42175,17.32464l-0.99065,2.48023c0,0 -1.85838,4.64181 -6.50019,2.78343c-4.64181,-1.85838 -2.78343,-6.50019 -2.78343,-6.50019l0.88542,-2.20575c2.22999,-6.64513 3.68424,-13.85507 4.93967,-20.75808c1.15463,-6.34877 1.12946,-12.82312 4.37961,-18.51989c0,0 2.57417,-4.28645 6.86062,-1.71228c1.95629,1.17482 2.48357,2.7063 2.47874,4.02418c2.37983,-1.39283 5.02216,0.19118 5.02216,0.19118c4.78531,2.94197 10.07728,7.13692 14.09556,11.06047l0.93809,0.93728c0,0 0.26567,0.26544 0.57864,0.72364c1.32304,-0.3845 2.62022,-0.82995 3.88117,-1.36095z"/><path d="M293.84805,179.09602c-4.90273,0.98147 -5.8842,-3.92125 -5.8842,-3.92125l-0.12262,-0.71984c-1.47676,1.14739 -2.8561,2.43969 -4.73365,3.80828c0,0 -3.82632,2.73061 -6.7065,-0.81349l-1.97703,-1.53707c-3.90616,-4.87845 -7.65376,-9.65624 -11.66206,-14.44904c0,0 -0.64637,-0.77496 -1.0102,-1.91896c-0.03142,-0.03034 -0.06285,-0.06124 -0.09427,-0.09269c-3.53394,-3.53713 0.00319,-7.07107 0.00319,-7.07107l1.40703,-1.40576c2.7543,-2.68939 5.87424,-4.65297 8.90082,-6.96557c2.08039,-1.58962 3.53488,-4.02597 5.6282,-5.62317c2.27435,-1.73532 3.41792,-2.03186 5.91001,-3.04361c0,0 2.82159,-1.12763 4.94463,0.57483c0.03617,-1.84812 0.1459,-3.69588 0.40355,-5.54298c0,0 0.70776,-4.94965 5.65741,-4.2419c4.94965,0.70776 4.2419,5.65741 4.2419,5.65741c-0.94679,6.42584 0.09439,12.93438 -0.43576,19.38607c-0.57144,6.95422 -0.92097,13.66269 -0.92097,20.67411l0.37176,1.3615c0,0 0.98147,4.90273 -3.92125,5.8842zM288.35264,150.35071c0.18434,-2.16873 0.20338,-4.3381 0.17735,-6.5076c-0.69463,0.53878 -1.31215,0.78557 -1.31215,0.78557c-4.04679,1.58216 -5.76342,4.63907 -9.09845,7.26551c-2.07861,1.63697 -4.37727,3.00217 -6.40849,4.69869c2.93272,3.56232 5.77211,7.12714 8.64624,10.72649c0.59285,-0.60126 1.19722,-1.18902 1.86332,-1.70161c1.17468,-0.90398 2.89026,-1.66829 4.50964,-2.32537c0.23566,-0.2853 0.51726,-0.55247 0.85378,-0.78358c0.16017,-4.04029 0.42048,-8.06059 0.76877,-12.1581z"/><path d="M242.76912,176.55683c-5,0 -5,-5 -5,-5l0.06815,-1.2913c0.81469,-4.88013 1.40635,-9.68399 1.82497,-14.58517c0.6641,-7.77535 2.30726,-15.09806 1.42064,-22.93304c0,0 -0.55262,-4.96937 4.41674,-5.52199c4.96937,-0.55262 5.52199,4.41674 5.52199,4.41674c0.93616,8.55018 -0.7064,16.39117 -1.39351,24.86385c-0.41987,5.17745 -1.069,10.25714 -1.92713,15.40503l0.06815,-0.35412c0,0 0,5 -5,5z"/><path d="M330.32227,193.37365c-2.57079,4.28848 -6.85927,1.71769 -6.85927,1.71769l-2.84968,-1.75194c-1.53863,-1.53118 -3.35038,-2.78429 -5.20109,-3.91865c0,0 -4.24105,-2.64829 -1.59276,-6.88935c2.64829,-4.24105 6.88935,-1.59276 6.88935,-1.59276c2.12716,1.34739 4.27769,2.73279 6.05532,4.51612l0.66881,0.38506c0.31122,-0.80184 0.69937,-1.3189 0.69937,-1.3189l1.50277,-1.99779c2.66867,-3.33285 4.85861,-6.90802 7.08288,-10.48071c-1.19686,-0.81148 -1.70593,-2.0776 -1.92244,-3.00783c-4.65955,-7.61541 -10.17267,-14.95028 -14.17109,-22.85374c0,0 -2.23767,-4.47133 2.23366,-6.70901c4.47133,-2.23767 6.70901,2.23366 6.70901,2.23366c3.62913,7.35071 8.81481,14.20316 13.22112,21.24593c1.80915,-2.55529 3.60141,-5.12851 5.15039,-7.86638c2.95331,-5.22007 4.93987,-10.87045 8.04685,-16.05901c0,0 2.57414,-4.28647 6.86061,-1.71233c4.28647,2.57414 1.71233,6.86061 1.71233,6.86061c-3.07543,5.10443 -5.00321,10.63997 -7.89968,15.8056c-2.28854,4.08143 -5.08188,7.85066 -7.76031,11.655c-3.98778,5.66411 -7.10453,11.70237 -11.45736,17.13856l-1.31137,1.75096c0,0 -2.19539,2.92451 -5.33221,1.89394c-0.12146,0.30808 -0.27819,0.62663 -0.47519,0.95527z"/></g><path d="M222.31032,146.22699c1.11724,2.23647 -1.11923,3.3537 -1.11923,3.3537l-1.94518,0.94367c-6.82482,2.27291 -13.61444,4.57208 -20.48116,6.68555c0,0 -2.38963,0.73462 -3.12425,-1.65501c-0.73462,-2.38963 1.65501,-3.12425 1.65501,-3.12425c4.63167,-1.42226 9.22662,-2.93376 13.82133,-4.46434c-0.50753,-0.41036 -0.7614,-0.91765 -0.7614,-0.91765l0.06422,-0.1585c-4.63216,-4.64259 -10.49279,-7.9923 -16.76441,-9.8858c0,0 -0.07734,-0.02378 -0.19992,-0.07669c-0.69648,6.16799 -2.51225,11.66427 -4.13343,17.73158c-1.00696,3.76857 -1.3281,7.63191 -2.2035,11.43259l-0.38074,2.10758c0,0 -0.4476,2.4596 -2.90721,2.012c-2.4596,-0.4476 -2.012,-2.90721 -2.012,-2.90721l0.42821,-2.33763c0.89384,-3.85819 1.22391,-7.7697 2.24569,-11.60174c1.71936,-6.44821 3.71832,-12.18735 4.16728,-18.91658c0,0 0.16645,-2.49445 2.66091,-2.328c0.6463,0.04313 1.11397,0.24253 1.45219,0.51434c0.98406,-0.82996 2.35174,-0.40952 2.35174,-0.40952c7.06379,2.20398 13.57639,5.89468 18.82914,11.12796l0.87316,1.45795c0,0 0.45162,0.90244 0.20765,1.84754c0.87675,-0.29287 1.75387,-0.58571 2.6316,-0.87802l1.29057,-0.67276c0,0 2.23647,-1.11724 3.3537,1.11923z" fill="#1a1916" stroke-width="0.5"/><path d="M243.93771,170.25183c-2.5,0 -2.5,-2.5 -2.5,-2.5l0.02912,-0.78458c1.59937,-10.33096 2.28925,-20.76192 1.59432,-31.17579c0,0 -0.16645,-2.49445 2.328,-2.66091c2.49445,-0.16645 2.66091,2.328 2.66091,2.328c0.71951,10.78284 -0.00261,21.57325 -1.64147,32.26965l0.02912,0.02363c0,0 0,2.5 -2.5,2.5z" fill="#1a1916" stroke-width="0.5"/><path d="M278.98843,173.57261c-1.28542,-2.14422 0.8588,-3.42964 0.8588,-3.42964l0.62502,-0.32094c2.6653,-2.38575 5.53579,-4.13823 8.59888,-5.84063c0.95718,-8.24257 1.38141,-16.5598 1.47364,-24.85418c-0.2094,0.20079 -0.37611,0.30785 -0.37611,0.30785c-6.68428,4.29159 -12.67772,9.19674 -19.0939,13.8608l-1.44202,1.27409c0,0 -0.06161,0.05386 -0.17229,0.13095c0.01697,0.03547 0.02531,0.05545 0.02531,0.05545c2.31036,5.54907 4.85564,11.11142 8.0929,16.18779l-0.13938,-0.22343c0,0 1.76853,1.76701 0.00152,3.53553c-1.76701,1.76853 -3.53553,0.00152 -3.53553,0.00152l-0.54383,-0.62754c-3.38822,-5.32575 -6.06143,-11.13379 -8.49045,-16.94934c0,0 -0.79749,-1.91228 0.80042,-2.98111c-0.80636,-1.60307 0.67049,-2.89416 0.67049,-2.89416l1.79373,-1.55467c6.49129,-4.71491 12.56758,-9.67717 19.33097,-14.02287c0,0 1.76332,-1.13255 3.09798,0.29067c0,-0.00189 0,-0.00378 0,-0.00568c0,0 0,-2.5 2.5,-2.5c2.5,0 2.5,2.5 2.5,2.5c0,9.70347 -0.41128,19.4552 -1.53465,29.10745c0.35638,0.92836 0.10056,1.65326 -0.26322,2.15689c-0.19962,1.56242 -0.41855,3.12193 -0.65807,4.67791l-0.22176,1.12054c0,0 -0.49073,2.45136 -2.94209,1.96064c-2.45136,-0.49073 -1.96064,-2.94209 -1.96064,-2.94209l0.18273,-0.90004c0.0228,-0.14804 0.04542,-0.29612 0.06784,-0.44423c-1.53864,0.96415 -3.01464,2.02023 -4.4193,3.28985l-1.39733,0.89142c0,0 -2.14422,1.28542 -3.42964,-0.8588z" fill="#1a1916" stroke-width="0.5"/><path d="M331.67969,188.93297c-0.27583,2.48474 -2.76057,2.2089 -2.76057,2.2089l-1.73586,-0.19414c-3.64587,-0.30023 -6.4532,-1.31665 -9.76324,-2.85355c0,0 -2.26582,-1.05643 -1.20939,-3.32226c1.05643,-2.26582 3.32226,-1.20939 3.32226,-1.20939c2.77378,1.2992 4.97634,2.18574 8.03351,2.3999l0.33708,0.03717c-0.07522,-0.80389 0.26924,-1.49217 0.26924,-1.49217l0.67091,-1.05378c4.08789,-4.07144 7.3427,-8.61538 10.40925,-13.32084c-0.77451,-0.18722 -1.30867,-0.72092 -1.30867,-0.72092l-0.38671,-0.40799c-5.40013,-6.74759 -8.94715,-14.80958 -14.51726,-21.36478c0,0 -1.6157,-1.90775 0.29205,-3.52345c1.90775,-1.6157 3.52345,0.29205 3.52345,0.29205c5.59166,6.62231 9.1678,14.68453 14.60475,21.47101l0.01774,-0.00388c0,0 0.12576,0.12565 0.2767,0.34348c1.30185,-2.06221 2.60167,-4.13861 3.95154,-6.20409c3.82568,-5.8538 8.0583,-11.23958 11.42738,-17.41138c0,0 1.19796,-2.19429 3.39225,-0.99633c2.19429,1.19796 0.99633,3.39225 0.99633,3.39225c-3.4328,6.28709 -7.73817,11.78027 -11.62755,17.74627c-5.51504,8.45963 -10.31024,17.02472 -17.51727,24.24571l0.26642,-0.24556c0,0 -0.34507,0.68948 -1.03483,1.11102c0.08511,0.30242 0.11696,0.65826 0.07051,1.07677z" fill="#1a1916" stroke-width="0.5"/></g></g></svg>