<svg version="1.1" xmlns="http://www.w3.org/2000/svg" xmlns:xlink="http://www.w3.org/1999/xlink" width="327.78954" height="163.70043" viewBox="0,0,327.78954,163.70043"><g transform="translate(-94.9284,-74.63998)"><g data-paper-data="{&quot;isPaintingLayer&quot;:true}" fill-rule="nonzero" stroke-linecap="butt" stroke-linejoin="miter" stroke-miterlimit="10" stroke-dasharray="" stroke-dashoffset="0" style="mix-blend-mode: normal"><g stroke="none" stroke-width="0"><g><path d="M391.38922,82.13415v-5.5641h14.70513v5.5641z" fill="#81683a"/><path d="M406.09435,90.08287v-9.14102h6.35897v9.14102z" fill="#81683a"/><path d="M405.94401,228.71639v-6.75641h5.5641v6.75641z" fill="#81683a"/><path d="M388.81793,233.8149v-6.84725h18.71582v6.84725z" fill="#81683a"/><path d="M384.13404,88.46813v-9.89362h8.57447v9.89362z" fill="#81683a"/><path d="M384.13404,97.70217v-11.87235h4.61702v11.87235z" fill="#81683a"/><path d="M384.79361,231.96953v-8.57447h7.9149v8.57447z" fill="#81683a"/><path d="M384.79361,228.67164v-15.82979h4.61702v15.82979z" fill="#81683a"/><path d="M405.87838,225.53691v-138.70514h11.19384v138.70514z" fill="#81683a"/><path d="M414.18725,218.27658v-118.72342h5.93617v118.72342z" fill="#81683a"/><path d="M110.58031,228.579v-146.25643h23.84616v146.25643z" fill="#e3c466"/><path d="M125.15752,232.04967v-152.36173h275.0426v152.36173z" fill="#e3c466"/><path d="M105.52023,222.49062v-132.95501h46.57611v132.95501z" fill="#e3c466"/><path d="M109.47767,218.15264v-122.0213h16.10884v122.0213z" fill="#d9bb61"/><path d="M113.7598,223.41232v-132.34617h7.94872v132.34617z" fill="#d9bb61"/><path d="M110.86519,82.41075v-5.5641h14.70513v5.5641z" fill="#81683a"/><path d="M104.50621,90.35947v-9.14103h6.35898v9.14103z" fill="#81683a"/><path d="M105.45141,228.99299v-6.75641h5.5641v6.75641z" fill="#81683a"/><path d="M109.42577,234.09152v-5.96154h16.29487v5.96154z" fill="#81683a"/><path d="M130.19086,89.73409v-12.53192h269.10643v12.53192z" fill="#81683a"/><path d="M130.85044,235.49549v-13.18233h269.766v13.18233z" fill="#81683a"/><path d="M124.25103,88.74473v-9.89362h8.57447v9.89362z" fill="#81683a"/><path d="M128.4299,97.97877v-11.87234h4.61702v11.87234z" fill="#81683a"/><path d="M124.25103,232.24612v-8.57447h7.91489v8.57447z" fill="#81683a"/><path d="M127.5489,228.94826v-15.82979h4.61702v15.82979z" fill="#81683a"/><path d="M130.78864,225.68256v-7.91489h105.53193v7.91489z" fill="#81683a"/><path d="M323.05766,227.00173v-9.23404h85.08512v9.23404z" fill="#81683a"/><path d="M132.76736,95.08681v-7.91489h103.55321v7.91489z" fill="#81683a"/><path d="M297.66101,94.42724v-14.5318h107.25853v14.5318z" fill="#81683a"/><path d="M225.76738,79.91657v-5.2766h78.48937v5.2766z" fill="#81683a"/><path d="M226.42695,238.34041v-5.2766h104.87236v5.2766z" fill="#81683a"/><path d="M99.88731,225.8135v-138.70514h6.35898v138.70514z" fill="#81683a"/><path d="M96.83612,218.5532v-118.72342h5.93617v118.72342z" fill="#81683a"/><path d="M102.59963,210.32599v-104.12822h3.97436v104.12822z" fill="#e3c466"/><path d="M324.68677,96.80389v-4.76923h66.76924v4.76923z" fill="#e3c466"/><path d="M146.30036,220.72057v-4.76923h78.69232v4.76923z" fill="#e3c466"/><path d="M328.12819,220.72057v-7.15385h66.76924v7.15385z" fill="#e3c466"/><path d="M105.99134,204.3217v-89.02565h24.64103v89.02565z" fill="#d9bb61"/><path d="M94.9284,205.34244v-94.98719h2.78205v94.98719z" fill="#81683a"/><path d="M100.4925,197.79116v-75.91026h2.78205v75.91026z" fill="#e3c466"/><path d="M418.74358,208.08021v-96.97437h3.97436v96.97437z" fill="#81683a"/><path d="M134.30215,133.26742v-39.41429h9.07857v39.41429z" fill="#81683a"/><path d="M129.87357,109.79599v-16.16429h7.75v16.16429z" fill="#81683a"/><path d="M130.18391,217.90944v-10.85h3.76429v10.85z" fill="#81683a"/><path d="M133.94819,230.30943v-50.70715h9.07857v50.70715z" fill="#81683a"/><path d="M135.49819,185.43376v-53.36429h6.42143v53.36429z" fill="#81683a"/><path d="M141.25533,218.81693v-124.66429h3.54286v124.66429z" fill="#81683a"/><path d="M143.46962,133.19748v-40.3h3.1v40.3z" fill="#81683a"/><path d="M141.25533,221.32893v-35.87143h5.97857v35.87143z" fill="#81683a"/><path d="M142.64814,114.25305v-25.38704h8.66146v25.38704z" fill="#81683a"/><path d="M146.2322,101.41019v-12.24552h9.2588v12.24552z" fill="#81683a"/><path d="M145.52672,226.75845v-24.8h5.09286v24.8z" fill="#81683a"/><path d="M148.84815,230.07988v-20.37143h5.97857v20.37143z" fill="#81683a"/><path d="M152.391,227.20131v-11.07143h6.42143v11.07143z" fill="#81683a"/><path d="M156.15529,224.32274v-5.97857h12.4v5.97857z" fill="#81683a"/><path d="M399.19266,227.12407v-145.61469h7.6789v145.61469z" fill="#81683a"/><path d="M398.05504,82.40483v-4.26606h3.69725v4.26606z" fill="#81683a"/><path d="M355.79797,94.81309v-6.82569h44.65138v6.82569z" fill="#81683a"/><path d="M382.81632,136.33602v-44.93578h17.06422v44.93578z" fill="#81683a"/><path d="M366.80131,98.41281v-7.3945h20.76147v7.3945z" fill="#81683a"/><path d="M373.05819,102.67887v-8.53211h11.37615v8.53211z" fill="#81683a"/><path d="M377.03984,114.90823v-15.92661h7.3945v15.92661z" fill="#81683a"/><path d="M380.73709,125.14676v-12.79817h5.97248v12.79817z" fill="#81683a"/><path d="M385.76794,172.44167v-38.11009h15.92661v38.11009z" fill="#81683a"/><path d="M383.03146,226.5723v-65.41285h18.48624v65.41285z" fill="#81683a"/><path d="M381.32504,228.2634v-49.48624h11.66055v49.48624z" fill="#81683a"/><path d="M380.18743,229.68542v-41.52294h10.52294v41.52294z" fill="#81683a"/><path d="M377.9122,235.08908v-39.81652h8.81651v39.81652z" fill="#81683a"/><path d="M365.96724,225.98817v-11.66055h33.27523v11.66055z" fill="#81683a"/><path d="M361.13238,223.14413v-5.11927h12.79817v5.11927z" fill="#927642"/><path d="M373.64614,217.74047v-9.10092h17.63303v9.10092z" fill="#81683a"/><path d="M141.68003,85.19269v-4.83486h82.19267v4.83486z" fill="#927642"/><path d="M131.72591,88.60554v-6.25688h89.01836v6.25688z" fill="#927642"/><path d="M222.91854,85.4771v-4.55046h72.23854v4.55046z" fill="#927642"/><path d="M228.60662,86.04591v-8.24771h71.38533v8.24771z" fill="#927642"/><path d="M299.68024,86.89912v-4.83486h97.55047v4.83486z" fill="#927642"/><path d="M305.36831,88.60554v-9.10092h96.12845v9.10092z" fill="#927642"/><path d="M301.38666,92.58719v-6.25688h20.47707v6.25688z" fill="#927642"/><path d="M133.90888,97.42206v-9.66973h17.63303v9.66973z" fill="#927642"/><path d="M137.60613,101.68811v-7.3945h9.10092v7.3945z" fill="#927642"/><path d="M140.16576,104.53215v-7.11009h3.41284v7.11009z" fill="#927642"/><path d="M361.4435,92.8716v-8.24771h46.3578v8.24771z" fill="#927642"/><path d="M370.54441,95.71563v-6.25688h41.52294v6.25688z" fill="#927642"/><path d="M375.94808,99.12848v-4.55046h38.6789v4.55046z" fill="#927642"/><path d="M381.63616,105.38536v-8.81651h26.44954v8.81651z" fill="#927642"/><path d="M387.03983,109.93582v-5.40367h17.06422v5.40367z" fill="#927642"/><path d="M389.31506,115.68853v-7.9633h11.09174v7.9633z" fill="#927642"/><path d="M392.15909,120.23899v-7.11009h12.79817v7.11009z" fill="#927642"/><path d="M396.99396,123.65184v-5.11927h10.52294v5.11927z" fill="#927642"/><path d="M133.22306,222.13211v-11.66055h13.08257v11.66055z" fill="#7c6438"/><path d="M130.09462,227.25138v-9.66973h19.62385v9.66973z" fill="#7c6438"/><path d="M134.07628,233.22386v-12.79817h24.17431v12.79817z" fill="#7c6438"/><path d="M150.33895,232.21889v-8.24771h15.92661v8.24771z" fill="#7c6438"/><path d="M164.73779,232.48414v-6.25688h110.63304v6.25688z" fill="#7c6438"/><path d="M273.05904,231.91534v-6.82569h81.05505v6.82569z" fill="#7c6438"/><path d="M351.66116,229.9245v-5.97248h46.92661v5.97248z" fill="#7c6438"/><path d="M359.62446,233.05296v-5.40367h38.11009v5.40367z" fill="#7c6438"/><path d="M377.47223,227.78642v-10.52294h25.88074v10.52294z" fill="#7c6438"/><path d="M382.59149,218.40112v-6.82569h22.46789v6.82569z" fill="#7c6438"/><path d="M388.84838,214.41946v-7.9633h23.60551v7.9633z" fill="#7c6438"/><path d="M392.26122,208.73139v-7.11009h23.60551v7.11009z" fill="#7c6438"/><path d="M395.38966,203.32771v-5.40367h18.77064v5.40367z" fill="#7c6438"/><path d="M382.8759,207.87818v-7.9633h10.80734v7.9633z" fill="#7c6438"/><path d="M397.38049,201.33689v-20.76147h12.79817v20.76147z" fill="#7c6438"/><path d="M390.27039,203.04331v-15.92661h10.52294v15.92661z" fill="#7c6438"/><path d="M400.79333,183.70386v-7.9633h4.26606v7.9633z" fill="#7c6438"/><path d="M157.85332,207.004v-26.23077h215.01284v26.23077z" fill="#ddbe63"/><path d="M288.57318,190.70913v-17.08975h87.43591v17.08975z" fill="#ddbe63"/><path d="M162.87864,212.56811v-9.9359h58.82052v9.9359z" fill="#ddbe63"/><path d="M237.76915,215.35016v-10.33333h81.07693v10.33333z" fill="#ddbe63"/><path d="M330.49374,214.15784v-10.33333h31.79488v10.33333z" fill="#ddbe63"/><path d="M150.17661,185.6485v-16.29487h64.38462v16.29487z" fill="#ddbe63"/><path d="M149.27004,170.65102v-9.53846h49.28206v9.53846z" fill="#ddbe63"/><path d="M320.99555,182.17667v-14.70513h58.02565v14.70513z" fill="#ddbe63"/><path d="M149.84587,166.2792v-15.10257h12.71795v15.10257z" fill="#ddbe63"/><path d="M353.56409,175.81769v-18.67949h25.03846v18.67949z" fill="#ddbe63"/><path d="M153.3727,164.29205v-29.8077h10.73077v29.8077z" fill="#ddbe63"/><path d="M367.07691,173.99834v-35.76923h11.12821v35.76923z" fill="#ddbe63"/></g><path d="M156.85686,96.80389v-3.17949h60.41026v3.17949z" fill="#e3c466"/><path d="M233.81133,236.7502v-7.3945h95.27524v7.3945z" fill="#7c6438"/></g><g fill="#4b4841" stroke="none" stroke-width="0"><path d="M175.36152,135.60297v-16.75141h7.17918v16.75141z"/><path d="M171.17366,157.14048v-28.71669h6.58091v28.71669z"/><path d="M168.78061,182.86585v-27.52016h6.58091v27.52016z"/><path d="M180.14764,124.81669v-5.98264h10.1705v5.98264z"/><path d="M187.33746,128.90147v-5.54202h10.16037v5.54202z"/><path d="M195.0347,132.28825v-4.61834h9.54459v4.61834z"/><path d="M201.1925,135.67504v-5.23412h7.69724v5.23412z"/><path d="M205.81085,139.98549v-7.08146h4.61834v7.08146z"/><path d="M199.87969,142.795v-5.5805h10.67779v5.5805z"/><path d="M192.11403,146.78107v-5.1819h10.67779v5.1819z"/><path d="M182.8923,150.36853v-5.1819h11.6485v5.1819z"/><path d="M175.61199,153.956v-5.5805h10.19244v5.5805z"/></g><g fill="#4b4841" stroke="none" stroke-width="0"><path d="M234.19399,145.83796v-25.02611h5.23412v25.02611z"/><path d="M236.965,166.52621v-23.02402h4.61835v23.02402z"/><path d="M234.19399,181.54189v-17.01776h4.31045v17.01776z"/><path d="M229.57564,184.54502v-5.00522h6.1578v5.00522z"/></g><g fill="#4b4841" stroke="none" stroke-width="0"><path d="M260.08684,184.01858v-9.85247h5.23413v9.85247z"/><path d="M262.85785,176.93712v-12.3156h4.61835v12.3156z"/><path d="M265.32097,167.70043v-11.08403h3.69468v11.08404z"/><path d="M267.78409,160.00318v-10.46825h3.69468v10.46825z"/><path d="M270.2472,152.30594v-7.38935h3.38679v7.38935z"/><path d="M272.09454,147.07181v-8.00513h3.69468v8.00513z"/><path d="M274.86555,141.5298v-10.16036h4.61835v10.16036z"/><path d="M277.94445,134.44833v-8.9288h4.00257v8.9288z"/><path d="M280.40756,127.67476v-4.61835h8.00513v4.61835z"/><path d="M285.02591,124.28797v-4.31046h7.08146v4.31046z"/><path d="M290.56793,132.601v-10.16037h4.00257v10.16037z"/><path d="M293.03105,141.22191v-11.39193h3.38678v11.39193z"/><path d="M294.57049,149.53492v-10.16035h4.00257v10.16035z"/><path d="M296.41783,158.46374v-12.3156h4.00257v12.3156z"/><path d="M298.57306,169.23988v-13.23926h4.00257v13.23926z"/><path d="M300.4204,180.6318v-14.77871h3.69468v14.77871z"/><path d="M301.95984,183.40281v-4.00257h4.92624v4.00257z"/><path d="M270.55509,158.46374v-3.69468h11.69981v3.69468z"/><path d="M280.09968,156.61639v-3.38678h12.62348v3.38678z"/><path d="M291.1837,154.46117v-3.0789h5.84991v3.0789z"/></g><g fill="#4b4841" stroke="#4b4841" stroke-width="1.5"><g><path d="M352.44129,141.24308v-15.45538h3.46868v15.45538z" data-paper-data="{&quot;index&quot;:null}"/><path d="M353.6801,130.36708v-8.87253h3.9642v8.87253z" data-paper-data="{&quot;index&quot;:null}"/><path d="M350.70695,153.55014v-14.59674h3.46868v14.59674z" data-paper-data="{&quot;index&quot;:null}"/><path d="M348.22932,162.99509v-14.02433h3.46868v14.02433z" data-paper-data="{&quot;index&quot;:null}"/><path d="M346.49499,169.57793v-12.02085h3.71643v12.02085z" data-paper-data="{&quot;index&quot;:null}"/><path d="M345.00841,175.01594v-8.87253h2.97315v8.87253z" data-paper-data="{&quot;index&quot;:null}"/><path d="M342.28302,188.46783v-15.74158h4.21196v15.74158z" data-paper-data="{&quot;index&quot;:null}"/><path d="M340.30092,200.89323v-18.60369h3.46867v18.60369z" data-paper-data="{&quot;index&quot;:null}"/><path d="M337.32777,211.86834v-17.45884h4.70749v17.45884z" data-paper-data="{&quot;index&quot;:null}"/></g><path d="M337.53702,175.63126v-4.21197h5.69853v4.21197z"/><path d="M332.82953,172.65811v-3.46868h7.18511v3.46868z"/><path d="M330.84742,171.17153v-4.21196h4.21197v4.21196z"/><path d="M328.86532,168.44615v-6.68959h3.46868v6.68959z"/><path d="M326.88322,164.23418v-8.91945h3.71644v8.91945z"/><path d="M323.41454,158.28788v-8.42393h3.96421v8.42393z"/><path d="M320.4414,151.35053v-12.38813h3.71643v12.38813z"/><path d="M317.96377,140.9445v-12.63589h3.46867v12.63589z"/><path d="M316.22944,130.53847v-10.40602h3.71643v10.40602z"/></g></g></g></svg>