<svg version="1.1" xmlns="http://www.w3.org/2000/svg" xmlns:xlink="http://www.w3.org/1999/xlink" width="187.4375" height="193.47521" viewBox="0,0,187.4375,193.47521"><g transform="translate(-147.0625,-81.52479)"><g data-paper-data="{&quot;isPaintingLayer&quot;:true}" fill-rule="nonzero" stroke="none" stroke-width="0" stroke-linecap="butt" stroke-linejoin="miter" stroke-miterlimit="10" stroke-dasharray="" stroke-dashoffset="0" style="mix-blend-mode: normal"><path d="M147.5,272.5v-185h185v185z" fill="#a66a37"/><path d="M147.0625,273v-188h6.875v188z" fill="#89582d"/><path d="M325.5,272v-185h9v185z" fill="#89582d"/><path d="M200.5,273v-153h4v153z" fill="#89582d"/><path d="M147.5,275v-8h187v8z" fill="#89582d"/><path d="M266.5,273v-173h4v173z" fill="#89582d"/><path d="M274.5,262v-164h16v164z" fill="#b2723b"/><path d="M277.5,264v-13h44v13z" fill="#b2723b"/><path d="M300.5,208v-117h22v117z" fill="#b2723b"/><path d="M186.5,114v-22h32v22z" fill="#ae7039"/><path d="M270.5,107v-17h22v17z" fill="#bb783e"/><g fill="#89582d"><path d="M231.5,245v-62.77333h4v62.77334z"/><path d="M234.5,182.81334v-27.28h4v27.28z"/><path d="M230.83334,155.82667v-50.16h4v50.16z"/></g><g data-paper-data="{&quot;index&quot;:null}" fill="#89582d"><path d="M172.83334,253.5v-62.77333h4v62.77334z"/><path d="M169.83334,191.31334v-27.28h4v27.28z"/><path d="M173.5,164.32667v-50.16h4v50.16z"/></g><g><path d="M208.5,262v-169h18v169z" fill="#b4743b"/><path d="M242.5,262v-168h17v168z" fill="#b4743b"/><path d="M223.5,263v-13h29v13z" fill="#b4743b"/><path d="M203.5,98v-7h71v7z" fill="#af703a"/><path d="M237.58334,148.75406v-53h12.5v53z" fill="#b4743b"/><path d="M224.08334,179.75406v-21h7v21z" fill="#b4743b"/><path d="M239.08334,251.83661v-65.5h5.5v65.5z" fill="#b4743b"/></g><path d="M182,265.5v-164.5h12.5v164.5z" fill="#af703a"/><path d="M158,263.5v-161.5h8v161.5z" fill="#aa6d38"/><path d="M156,265v-7h29v7z" fill="#aa6d38"/><path d="M158,106v-13h47v13z" fill="#aa6d38"/><path d="M158.41667,156.75406v-53h12.5v53z" fill="#aa6d38"/><path d="M177.41667,187.75406v-21h7v21z" fill="#af703a"/><path d="M163.91667,259.83661v-65.5h5.5v65.5z" fill="#aa6d38"/><path d="M294.16667,213.33334v-120.33333h3.62069v120.33334z" fill="#89582d"/><path d="M297.54598,245.66667v-33.33333h3.62069v33.33333z" fill="#89582d"/><path d="M304.09765,254.35123v-48h16.66667v48z" fill="#b2723b"/><path d="M289.76432,256.0179v-39h4.66666v39z" fill="#b2723b"/><g fill="#89582d"><path d="M152.88687,87.85813v-6.33334h20.66667v6.33334z"/><path d="M172.88687,92.19147v-6.33333h5.71429v6.33333z"/><path d="M178.34142,88.19147v-6.33333h19.54545v6.33333z"/><path d="M196.88687,92.5248v-5.66666h6.66667v5.66666z"/></g><g fill="#89582d"><path d="M203.55354,88.5248v-6.33333h27.60088v6.33333z"/><path d="M230.26407,92.85813v-6.33334h7.63157v6.33334z"/><path d="M237.54875,88.85813v-6.33334h26.10347v6.33334z"/><path d="M262.3167,93.19146v-5.66667h8.9035v5.66667z"/></g><g fill="#89582d"><path d="M268.88687,88.19147v-6.33333h23.52193v6.33333z"/><path d="M291.65003,92.5248v-6.33334h6.50376v6.33334z"/><path d="M297.85816,88.5248v-6.33334h22.24581v6.33334z"/><path d="M318.96582,92.85813v-5.66667h7.58772v5.66667z"/></g></g></g></svg>