<svg version="1.1" xmlns="http://www.w3.org/2000/svg" xmlns:xlink="http://www.w3.org/1999/xlink" width="256.53095" height="210.74998" viewBox="0,0,256.53095,210.74998"><g transform="translate(-84,-113.75002)"><g data-paper-data="{&quot;isPaintingLayer&quot;:true}" fill-rule="nonzero" stroke="none" stroke-linecap="butt" stroke-linejoin="miter" stroke-miterlimit="10" stroke-dasharray="" stroke-dashoffset="0" style="mix-blend-mode: normal"><g stroke-width="0"><path d="M208.69386,301.23843v-19.18624h57.3303v19.18624z" fill="#cb9651"/><g fill="#ebae5e"><path d="M205.32765,300.99055v-13.32155h13.32157v13.32155z"/><path d="M203.34544,299.92454v-11.12265h17.53618v11.12266z"/><path d="M206.494,285.62857h11.12263v17.53618h-11.12263z"/></g><g fill="#ebae5e"><path d="M223.83315,301.17995v-10.54597h10.54597v10.54597z"/><path d="M222.26394,300.33605v-8.8052h13.88243v8.8052z"/><path d="M224.7565,289.0187h8.80518v13.88246h-8.80518z"/></g><g fill="#ebae5e"><path d="M240.14186,300.78587v-10.54597h10.54597v10.54597z"/><path d="M238.57264,299.94197v-8.8052h13.88243v8.8052z"/><path d="M241.06518,288.62461h8.80518v13.88245h-8.80518z"/></g><g fill="#ebae5e"><path d="M257.32997,301.2373v-8.5634h8.56339v8.5634z"/><path d="M256.05575,300.55205v-7.14988h11.27263v7.14988z"/><path d="M258.0797,291.36228h7.14988v11.27265h-7.14988z"/></g></g><path d="M208.44361,284.19523v-45.06611h127.4547v45.06612z" fill="#361d0e" stroke-width="0"/><path d="M223.40002,248.23304v-16.25699h97.54186v16.25699z" fill="#532d15" stroke-width="0"/><path d="M266.01282,284.37984v-16.81587h8.40794v16.81587z" fill="#201108" stroke-width="0"/><g data-paper-data="{&quot;index&quot;:null}" stroke-width="0"><path d="M277.85219,303.32366v-19.18625h57.3303v19.18625z" fill="#cb9651"/><g fill="#ebae5e"><path d="M325.22713,303.07577v-13.32155h13.32156v13.32155z"/><path d="M322.99477,302.00977v-11.12265h17.53618v11.12266z"/><path d="M337.38234,305.24998h-11.12265v-17.53619h11.12265z"/></g><g fill="#ebae5e"><path d="M309.49722,303.26518v-10.54596h10.54596v10.54596z"/><path d="M307.72999,302.42128v-8.8052h13.88244v8.8052z"/><path d="M319.11988,304.98636h-8.80518v-13.88243h8.80518z"/></g><g fill="#ebae5e"><path d="M293.18854,302.87109v-10.54597h10.54597v10.54597z"/><path d="M291.4213,302.02719v-8.8052h13.88244v8.8052z"/><path d="M302.81118,304.59228h-8.8052v-13.88243h8.8052z"/></g><g fill="#ebae5e"><path d="M277.98301,303.32253v-8.5634h8.5634v8.5634z"/><path d="M276.548,302.63729v-7.14988h11.27263v7.14988z"/><path d="M285.79665,304.72016h-7.14986v-11.27265h7.14986z"/></g></g><g stroke-width="0"><g fill="#532d15"><path d="M223.72882,212.66954v-19.41288h99.4033v19.41288z"/><path d="M208.46161,242.17111v-37.8902h127.00231v37.8902z"/></g><g fill="#442411"><path d="M228.77142,212.55694v-18.99057h90.01531v18.99057z"/><path d="M233.32917,222.81186v-13.29341h78.24114v13.29341z"/></g><path d="M242.45797,226.13344v-4.47762h21.84203v4.47762z" fill="#442411"/><path d="M278.21309,225.80582v-3.05788h3.05788v3.05788z" fill="#442411"/><path d="M299.53116,228.64528v-5.89735h2.83946v5.89735z" fill="#442411"/><path d="M295.94983,232.23599v-3.49472h3.49472v3.49472z" fill="#442411"/><path d="M311.58797,219.02156v-2.83946h2.83947v2.83946z" fill="#442411"/><path d="M230.6283,219.92919v-2.73025h2.73025v2.73025z" fill="#442411"/></g><path d="M237.35093,248.43467v-2.62105h16.49073v2.62105z" fill="#361d0e" stroke-width="0"/><path d="M264.32584,248.65309v-2.94868h2.94868v2.94868z" fill="#361d0e" stroke-width="0"/><g stroke-width="0"><path d="M244.45093,212.81109v-9.22988h56.7125v9.22989z" fill="#dfa459"/><path d="M230.93882,211.24372v-76.38943h83.77334v76.38943z" fill="#aa7e44"/><path d="M235.77332,205.61598v-66.26386h72.31459v66.26386z" fill="#dfa459"/><g><g><g fill="#000000"><path d="M286.73763,187.92879v-18.32843h18.32845v18.32843z"/><path d="M284.01038,186.46213v-15.30306h24.12709v15.30306z"/><path d="M288.34236,166.79307h15.30306v24.12709h-15.30306z"/></g><g fill="#ededed"><path d="M288.58976,185.96285v-14.2284h14.22842v14.2284z"/><path d="M286.47257,184.82427v-11.8798h18.72991v11.8798z"/><path d="M289.8355,169.55512h11.8798v18.72992h-11.8798z"/></g></g><g fill="#000000"><path d="M291.64555,183.04164v-8.07837h8.07837v8.07837z"/><path d="M290.44349,182.39519v-6.7449h10.63416v6.7449z"/><path d="M292.35284,173.72594h6.7449v10.63416h-6.7449z"/></g></g><g><g><g fill="#000000"><path d="M242.99703,186.9658v-18.32841h18.32845v18.32841z"/><path d="M240.26979,185.49912v-15.30306h24.12709v15.30306z"/><path d="M244.60175,165.83006h15.30304v24.12709h-15.30304z"/></g><g fill="#ededed"><path d="M244.84915,184.99985v-14.22842h14.22842v14.22842z"/><path d="M242.73199,183.86126v-11.8798h18.72992v11.8798z"/><path d="M246.09491,168.59213h11.8798v18.72992h-11.8798z"/></g></g><g fill="#000000"><path d="M247.90494,182.07863v-8.07837h8.07837v8.07837z"/><path d="M246.70292,181.4322v-6.74492h10.63416v6.74492z"/><path d="M248.61223,172.76293h6.74492v10.63416h-6.74492z"/></g></g><path d="M238.93275,217.85727v-7.76981h67.46168v7.76981z" fill="#aa7e44"/><g fill="#000000"><path d="M247.0369,201.97425v-3.69989h50.56542v3.69989z"/><path d="M244.9403,206.01036v-11.09973h4.06989v11.09973z"/><path d="M295.72037,204.90038v-8.75646h3.94658v8.75646z"/></g><g><g fill="#41311a"><path d="M228.17836,157.18068v-33.64553h95.93394v33.64553z"/><path d="M219.3681,165.838v-27.74281h59.32242v27.74281z"/><path d="M241.51941,132.44199v-16.52762h79.48812v16.52762z"/><path d="M247.19713,127.71981v-13.96979h71.65678v13.96979z"/></g><path d="M232.26118,154.79796v-30.40054h87.11267v30.40054z" fill="#6a4f2a"/><path d="M231.28765,139.34777v-4.39328h41.90508v4.39328z" fill="#41311a"/><path d="M224.26105,162.62031v-25.0671h53.86763v25.0671z" fill="#6a4f2a"/><path d="M280.79205,133.88852v-2.01358h35.6531v2.01358z" fill="#41311a"/><path d="M244.37552,132.44522v-14.93361h72.17905v14.93361z" fill="#6a4f2a"/><path d="M253.4327,121.28264v-3.71739h42.24301v3.71739z" fill="#f0c992"/><path d="M280.12531,123.39616v-7.09682h22.9802v7.09682z" fill="#f0c992"/><path d="M249.53117,118.20913v-2.65309h65.06783v2.65309z" fill="#6a4f2a"/><path d="M232.45742,126.95567v-2.28815h11.99701v2.28815z" fill="#f0c992"/><path d="M244.71484,119.60782v-1.85869h4.73121v1.85869z" fill="#f0c992"/><path d="M249.27708,119.60782v-4.22429h1.52075v4.22429z" fill="#f0c992"/><path d="M225.00903,142.68023v-2.53458h20.95254v2.53458z" fill="#f0c992"/></g><path d="M268.94241,118.33595v-2.73025h2.73025v2.73025z" fill="#f0c992"/><path d="M261.2977,123.90567v-2.73025h2.73025v2.73025z" fill="#f0c992"/><path d="M264.02795,126.63593v-2.73025h2.73025v2.73025z" fill="#f0c992"/><path d="M277.50944,126.08988v-2.73025h2.73025v2.73025z" fill="#f0c992"/><path d="M244.38543,129.45642v-2.51183h2.51183v2.51183z" fill="#f0c992"/><path d="M302.98506,125.95408v-2.73025h2.73025v2.73025z" fill="#f0c992"/><path d="M303.0773,120.92682v-5.13288h2.29341v5.13288z" fill="#f0c992"/><path d="M230.18634,145.26797v-2.73025h2.73025v2.73025z" fill="#f0c992"/><path d="M234.66395,129.10487v-2.40263h2.40263v2.40263z" fill="#f0c992"/><path d="M237.17578,131.28907v-2.29341h2.29341v2.29341z" fill="#f0c992"/><path d="M239.35999,129.21408v-2.29341h2.29341v2.29341z" fill="#f0c992"/><path d="M247.76917,124.0812v-2.29341h2.29341v2.29341z" fill="#f0c992"/><path d="M248.64285,142.75614v-2.29341h2.29341v2.29341z" fill="#f0c992"/><path d="M254.43099,126.04698v-2.29341h2.29341v2.29341z" fill="#f0c992"/><path d="M236.1929,140.2443v-2.29341h2.29341v2.29341z" fill="#f0c992"/><path d="M227.12845,140.1351v-2.29341h2.29341v2.29341z" fill="#f0c992"/><path d="M250.71785,144.94033v-2.29341h2.29341v2.29341z" fill="#f0c992"/><path d="M290.79797,125.50093v-2.29341h2.29341v2.29341z" fill="#f0c992"/><path d="M286.53877,118.29306v-2.29341h2.29341v2.29341z" fill="#f0c992"/><path d="M305.32292,123.20752v-2.29341h2.29341v2.29341z" fill="#f0c992"/><path d="M316.68077,129.21408v-2.29341h2.29341v2.29341z" fill="#f0c992"/><path d="M262.18491,162.74159v-2.29341h2.29341v2.29341z" fill="#41311a"/><path d="M262.94938,139.26141v-2.29341h2.29341v2.29341z" fill="#41311a"/><path d="M260.10992,160.6666v-2.29341h2.29341v2.29341z" fill="#41311a"/><path d="M236.08368,162.8508v-2.29341h6.00656v2.29341z" fill="#41311a"/><path d="M254.86783,135.32984v-5.02367h2.29341v5.02367z" fill="#41311a"/><path d="M295.60321,135.8759v-2.29341h8.19076v2.29341z" fill="#41311a"/><path d="M272.66908,131.83512v-2.29341h2.29341v2.29341z" fill="#41311a"/><path d="M267.20858,135.11143v-2.29341h2.29341v2.29341z" fill="#41311a"/><path d="M306.63344,132.59959v-2.29341h2.29341v2.29341z" fill="#41311a"/><path d="M256.94282,117.85622v-2.29341h2.29341v2.29341z" fill="#41311a"/><path d="M286.42956,154.87846v-2.29341h2.29341v2.29341z" fill="#41311a"/><path d="M276.49144,135.65747v-2.29341h2.29341v2.29341z" fill="#41311a"/><path d="M317.22682,154.87846v-2.29341h2.29341v2.29341z" fill="#41311a"/><path d="M314.93341,153.02189v-2.29341h2.29341v2.29341z" fill="#41311a"/><path d="M317.0084,147.99822v-2.29341h2.29341v2.29341z" fill="#41311a"/><path d="M224.3982,162.74159v-2.29341h2.29341v2.29341z" fill="#41311a"/><path d="M299.31636,154.87846v-2.29341h6.4434v2.29341z" fill="#41311a"/><path d="M286.32035,132.49038v-2.29341h5.4605v2.29341z" fill="#41311a"/><path d="M305.86897,203.36777v-2.29341h2.29341v2.29341z" fill="#aa7e44"/><path d="M303.68477,201.40198v-2.29341h2.29341v2.29341z" fill="#aa7e44"/><path d="M303.79398,205.66118v-2.29341h2.29341v2.29341z" fill="#aa7e44"/><path d="M235.64684,205.66118v-2.29341h2.29341v2.29341z" fill="#aa7e44"/><path d="M237.72184,203.6954v-2.29341h2.29341v2.29341z" fill="#aa7e44"/><path d="M254.32178,205.77039v-2.29341h7.31708v2.29341z" fill="#aa7e44"/><path d="M266.88095,167.98367v-2.29341h9.61049v2.29341z" fill="#aa7e44"/><path d="M278.67564,159.46529v-2.29341h2.29341v2.29341z" fill="#aa7e44"/><path d="M235.67801,184.06894v-18.23809h2.1842v18.23809z" fill="#aa7e44"/><path d="M237.86221,167.57821v-1.74736h5.78814v1.74736z" fill="#aa7e44"/><path d="M235.61492,199.65316v-2.29341h2.29341v2.29341z" fill="#aa7e44"/></g><path d="M100.90706,277.29509v-2.86973h7.84394v2.86973z" fill="#81683a" stroke-width="0"/><path d="M157.22845,279.34041v-2.54002h50.48288v2.54002z" fill="#81683a" stroke-width="0"/><path d="M160.78311,278.57491v-3.55952h45.86308v3.55952z" fill="#7c6438" stroke-width="0"/><path d="M221.34634,276.79515v-2.60119h18.34523v2.60119z" fill="#7c6438" stroke-width="0"/><g stroke-width="0"><path d="M236.63709,204.14668v-2.67842h7.07868v2.67842z" fill="#81683a"/><path d="M243.71577,207.97299v-4.40025h3.06105v4.40025z" fill="#81683a"/><path d="M243.6434,274.70764v-3.25236h2.67842v3.25236z" fill="#81683a"/><path d="M235.39934,277.16194v-3.29609h9.00932v3.29609z" fill="#81683a"/><path d="M233.14463,207.1957v-4.76254h4.12753v4.76254z" fill="#81683a"/><path d="M233.14463,211.64073v-5.71505h2.22252v5.71505z" fill="#81683a"/><path d="M233.46213,276.27362v-4.12753h3.81003v4.12753z" fill="#81683a"/><path d="M233.46213,274.68611v-7.62006h2.22252v7.62006z" fill="#81683a"/><path d="M243.6118,273.17712v-66.76912h5.38843v66.76912z" fill="#81683a"/><path d="M247.61148,269.68219v-57.15043h2.85752v57.15043z" fill="#81683a"/><path d="M101.46283,274.6415v-70.40412h11.47893v70.40412z" fill="#e3c466"/><path d="M108.47993,276.31219v-73.34306h132.39851v73.34306z" fill="#e3c466"/><path d="M99.02704,271.71071v-64.00116h22.42055v64.00116z" fill="#e3c466"/><path d="M100.93205,269.62252v-58.73795h7.75439v58.73795z" fill="#d9bb61"/><path d="M102.99336,272.1544v-63.70808h3.82631v63.70808z" fill="#d9bb61"/><path d="M101.59997,204.27983v-2.67842h7.07868v2.67842z" fill="#81683a"/><path d="M98.53891,208.10614v-4.40026h3.06105v4.40026z" fill="#81683a"/><path d="M98.99391,274.84079v-3.25236h2.67842v3.25236z" fill="#81683a"/><path d="M110.90285,207.8051v-6.03255h129.54098v6.03255z" fill="#81683a"/><path d="M111.22036,277.97092v-6.34564h129.85848v6.34564z" fill="#81683a"/><path d="M108.04357,207.32884v-4.76254h4.12753v4.76254z" fill="#81683a"/><path d="M110.05517,211.77388v-5.71504h2.22252v5.71504z" fill="#81683a"/><path d="M108.04357,276.40676v-4.12753h3.81003v4.12753z" fill="#81683a"/><path d="M109.63108,274.81925v-7.62006h2.22252v7.62006z" fill="#81683a"/><path d="M111.19061,273.24724v-3.81003h50.80038v3.81003z" fill="#81683a"/><path d="M203.74402,273.88224v-4.44503h40.95781v4.44503z" fill="#81683a"/><path d="M112.14311,210.38176v-3.81003h49.84788v3.81003z" fill="#81683a"/><path d="M191.51872,210.06426v-6.99524h51.63153v6.99524z" fill="#81683a"/><path d="M156.91095,203.0792v-2.54002h37.78278v2.54002z" fill="#81683a"/><path d="M96.31549,273.31026v-66.76912h3.06105v66.76912z" fill="#81683a"/><path d="M94.84673,269.81534v-57.15043h2.85752v57.15043z" fill="#81683a"/><path d="M97.62113,265.85497v-50.12467h1.91316v50.12467z" fill="#e3c466"/><path d="M123.73918,211.20832v-1.53053h29.07996v1.53053z" fill="#e3c466"/><path d="M204.52823,211.20832v-2.29579h32.14101v2.29579z" fill="#e3c466"/><path d="M118.65755,270.85865v-2.29579h37.88048v2.29579z" fill="#e3c466"/><path d="M206.18484,270.85865v-3.44368h32.14101v3.44368z" fill="#e3c466"/><path d="M99.25382,262.96466v-42.85468h11.86156v42.85468z" fill="#d9bb61"/><path d="M93.9284,263.45601v-45.72442h1.33921v45.72442z" fill="#81683a"/><path d="M96.60682,259.82102v-36.54127h1.33921v36.54127z" fill="#e3c466"/><path d="M249.80478,264.77391v-46.68099h1.91316v46.68099z" fill="#81683a"/><path d="M112.88192,228.76093v-18.97304h4.37019v18.97304z" fill="#81683a"/><path d="M110.75012,217.46238v-7.78108h3.73065v7.78108z" fill="#81683a"/><path d="M110.89951,269.50545v-5.22291h1.81203v5.22291z" fill="#81683a"/><path d="M112.71153,275.47449v-24.40913h4.37019v24.40913z" fill="#81683a"/><path d="M113.45766,253.87248v-25.68821h3.09111v25.68821z" fill="#81683a"/><path d="M116.229,269.94229v-60.01022h1.70544v60.01022z" fill="#81683a"/><path d="M117.29491,228.72727v-19.39939h1.49226v19.39939z" fill="#81683a"/><path d="M116.229,271.1515v-17.26759h2.87793v17.26759z" fill="#81683a"/><path d="M118.14763,272.00422v-2.34498h1.70544v2.34498z" fill="#81683a"/><path d="M116.89947,219.6079v-12.22067h4.16941v12.22067z" fill="#81683a"/><path d="M118.62474,213.42567v-5.89468h4.45695v5.89468z" fill="#81683a"/><path d="M118.28514,273.76513v-11.93809h2.45157v11.93809z" fill="#81683a"/><path d="M119.884,275.36399v-9.80629h2.87793v9.80629z" fill="#81683a"/><path d="M121.58943,273.97832v-5.3295h3.09111v5.3295z" fill="#81683a"/><path d="M123.40147,272.59265v-2.87793h5.96904v2.87793z" fill="#81683a"/><path d="M240.39347,273.94113v-70.0952h3.69643v70.0952z" fill="#81683a"/><path d="M239.84585,204.27698v-2.05357h1.77976v2.05357z" fill="#81683a"/><path d="M219.50437,210.25v-3.28571h21.49404v3.28571z" fill="#81683a"/><path d="M232.51032,230.23808v-21.63094h8.21428v21.63094z" fill="#81683a"/><path d="M224.8011,211.98281v-3.55952h9.99404v3.55952z" fill="#81683a"/><path d="M227.813,214.03638v-4.10714h5.47619v4.10714z" fill="#81683a"/><path d="M229.72967,219.92329v-7.66666h3.55952v7.66666z" fill="#81683a"/><path d="M231.50943,224.85185v-6.16071h2.875v6.16071z" fill="#81683a"/><path d="M233.93115,247.61842v-18.34523h7.66666v18.34523z" fill="#81683a"/><path d="M232.61388,273.67553v-31.48808h8.89881v31.48808z" fill="#81683a"/><path d="M231.79245,274.48958v-23.82142h5.61309v23.82142z" fill="#81683a"/><path d="M231.24484,275.17411v-19.98809h5.06548v19.98809z" fill="#81683a"/><path d="M230.1496,277.7753v-19.16666h4.24404v19.16666z" fill="#81683a"/><path d="M224.3996,273.39435v-5.61309h16.01785v5.61309z" fill="#81683a"/><path d="M222.07222,272.0253v-2.46429h6.16071v2.46429z" fill="#927642"/><path d="M228.09602,269.42411v-4.38095h8.48809v4.38095z" fill="#81683a"/><path d="M116.43344,205.61898v-2.32738h39.56546v2.32738z" fill="#927642"/><path d="M111.64178,207.26184v-3.0119h42.85117v3.0119z" fill="#927642"/><path d="M155.5396,205.75589v-2.19048h34.77379v2.19048z" fill="#927642"/><path d="M158.27769,206.0297v-3.97024h34.36308v3.97024z" fill="#927642"/><path d="M192.49072,206.44041v-2.32738h46.95831v2.32738z" fill="#927642"/><path d="M195.22882,207.26184v-4.38095h46.27379v4.38095z" fill="#927642"/><path d="M193.31215,209.17851v-3.0119h9.85714v3.0119z" fill="#927642"/><path d="M112.69261,211.50589v-4.65476h8.48809v4.65476z" fill="#927642"/><path d="M114.47237,213.55946v-3.55952h4.38095v3.55952z" fill="#927642"/><path d="M115.70451,214.92851v-3.42262h1.64285v3.42262z" fill="#927642"/><path d="M222.22198,209.31541v-3.97024h22.31546v3.97024z" fill="#927642"/><path d="M226.60293,210.68446v-3.0119h19.98809v3.0119z" fill="#927642"/><path d="M229.20412,212.32732v-2.19048h18.61904v2.19048z" fill="#927642"/><path d="M231.94222,215.33922v-4.24404h12.73214v4.24404z" fill="#927642"/><path d="M234.54341,217.52969v-2.60119h8.21428v2.60119z" fill="#927642"/><path d="M235.63864,220.2989v-3.83333h5.33928v3.83333z" fill="#927642"/><path d="M237.00769,222.48938v-3.42262h6.16071v3.42262z" fill="#927642"/><path d="M239.33507,224.13224v-2.46429h5.06548v2.46429z" fill="#927642"/><path d="M112.36247,271.53813v-5.61309h6.29762v5.61309z" fill="#7c6438"/><path d="M110.85652,274.00242v-4.65476h9.44642v4.65476z" fill="#7c6438"/><path d="M112.77319,276.87742v-6.16071h11.6369v6.16071z" fill="#7c6438"/><path d="M120.60163,276.39365v-3.97024h7.66666v3.97024z" fill="#7c6438"/><path d="M127.53286,276.52134v-3.0119h53.25593v3.0119z" fill="#7c6438"/><path d="M157.6519,274.46777v-2.19048h3.69643v2.19048z" fill="#7c6438"/><path d="M179.67596,276.24753v-3.28571h39.01784v3.28571z" fill="#7c6438"/><path d="M217.51302,275.2892v-2.875h22.58928v2.875z" fill="#7c6438"/><path d="M204.78087,274.33087v-2.19048h1.50595v2.19048z" fill="#7c6438"/><path d="M229.93781,274.25998v-5.06548h12.45833v5.06548z" fill="#7c6438"/><path d="M232.40209,269.74213v-3.28571h10.81547v3.28571z" fill="#7c6438"/><path d="M235.414,267.82546v-3.83333h11.36309v3.83333z" fill="#7c6438"/><path d="M237.05685,265.08737v-3.42262h11.36309v3.42262z" fill="#7c6438"/><path d="M238.5628,262.48618v-2.60119h9.03571v2.60119z" fill="#7c6438"/><path d="M232.539,264.67665v-3.83333h5.20238v3.83333z" fill="#7c6438"/><path d="M239.52114,261.52784v-9.99404h6.16071v9.99404z" fill="#7c6438"/><path d="M236.09852,262.34927v-7.66666h5.06548v7.66666z" fill="#7c6438"/><path d="M241.16399,253.03976v-3.83333h2.05357v3.83333z" fill="#7c6438"/><path d="M124.21885,264.25585v-12.62682h103.50171v12.62682z" fill="#ddbe63"/><path d="M187.14407,256.41191v-8.22657h42.08942v8.22657z" fill="#ddbe63"/><path d="M126.63792,266.93427v-4.78289h28.3147v4.78289z" fill="#ddbe63"/><path d="M162.6883,268.27347v-4.9742h39.02837v4.9742z" fill="#ddbe63"/><path d="M207.32356,267.69953v-4.9742h15.30525v4.9742z" fill="#ddbe63"/><path d="M120.52348,253.97585v-7.84394h30.99312v7.84394z" fill="#ddbe63"/><path d="M122.05401,259.71532v-7.26999h3.44368v7.26999z" fill="#ddbe63"/><path d="M120.08708,246.75645v-4.59157h23.72313v4.59157z" fill="#ddbe63"/><path d="M202.75137,252.3046v-7.07868h27.93207v7.07868z" fill="#ddbe63"/><path d="M120.36427,244.65197v-7.26999h6.1221v7.26999z" fill="#ddbe63"/><path d="M218.42904,249.24355v-8.99183h12.05288v8.99183z" fill="#ddbe63"/><path d="M122.062,243.6954v-14.34867h5.16552v14.34867z" fill="#ddbe63"/><path d="M224.93376,248.36776v-17.2184h5.35684v17.2184z" fill="#ddbe63"/></g><text transform="translate(129.3193,234.41269) scale(0.5,0.5)" font-size="40" xml:space="preserve" fill="#81683a" fill-rule="nonzero" stroke="none" stroke-width="1" stroke-linecap="butt" stroke-linejoin="miter" stroke-miterlimit="10" stroke-dasharray="" stroke-dashoffset="0" font-family="Pixel" font-weight="normal" text-anchor="start" style="mix-blend-mode: normal"><tspan x="0" dy="0"> ISLAND</tspan><tspan x="0" dy="46.150000000000006px">KINGDOM</tspan></text><g fill="#ebae5e" stroke-width="0"><path d="M143.22969,192.60863l15.69642,4.87803l-2.89043,9.30078l-15.69641,-4.87803z"/><path d="M144.91584,191.61503l13.10552,4.07285l-3.80491,12.24331l-13.10552,-4.07285z"/><path d="M161.07724,199.04814l-2.41332,7.76555l-20.6624,-6.42134l2.41332,-7.76555z"/></g><g data-paper-data="{&quot;index&quot;:null}" stroke-width="0"><path d="M270.48571,252.17821l-31.53545,13.57068l-13.40018,-31.13923l31.53545,-13.5707z" fill="#d8a057"/><g fill="#ebae5e"><path d="M236.21359,240.87081l-20.95044,1.49294l-0.54804,-7.69076l20.95045,-1.49294z"/><path d="M234.62895,242.27906l-17.4923,1.24651l-0.72143,-10.12396l17.4923,-1.24651z"/><path d="M239.13281,233.60975l0.45759,6.42131l-27.57866,1.96526l-0.45759,-6.42132z"/></g><g fill="#ebae5e"><path d="M240.80877,253.03324l-18.45411,7.94139l-3.04776,-7.08233l18.45412,-7.94138z"/><path d="M239.84276,254.85553l-15.408,6.63056l-4.01201,-9.32303l15.40801,-6.63055z"/><path d="M241.03973,245.27489l2.54468,5.91331l-24.29257,10.45384l-2.54468,-5.91329z"/></g><g fill="#ebae5e"><path d="M247.42744,262.58149l-17.073,4.91475l-1.69734,-6.02786l17.073,-4.91477z"/><path d="M246.34566,263.98489l-14.25487,4.10351l-2.23436,-7.93494l14.25488,-4.10352z"/><path d="M248.66517,256.27922l1.41718,5.03288l-22.47449,6.46967l-1.41716,-5.03288z"/></g><path d="M266.80082,254.77387l-19.75613,8.50169l-14.9824,-34.81596l19.75615,-8.50169z" fill="#d8a057"/><g fill="#ebae5e"><path d="M241.87312,230.52848l-13.08345,-9.94966l5.89559,-7.75249l13.08344,9.94968z"/><path d="M239.83824,231.03143l-10.92387,-8.30735l7.7608,-10.20518l10.92387,8.30736z"/><path d="M249.38789,225.0786l-4.92245,6.47282l-17.22276,-13.09751l4.92245,-6.47282z"/></g></g><g fill="#d8a057" stroke-width="0"><path d="M142.76804,188.90882l-8.49189,26.89112l-33.47607,-3.08871l9.63474,-25.74826z"/><path d="M144.38282,192.27606l-5.57122,19.69494l-36.61323,-7.6073l5.71408,-15.8378z"/></g><g fill="#ebae5e" stroke-width="0"><path d="M121.221,211.70876l-2.08048,19.98228l-7.66882,-0.79846l2.08049,-19.98227z"/><path d="M122.19563,213.42657l-1.73707,16.68392l-10.09504,-1.05104l1.73707,-16.68392z"/><path d="M118.15043,234.68176l-6.40298,-0.66665l2.73869,-26.3042l6.40298,0.66665z"/></g><g fill="#ebae5e" stroke-width="0"><path d="M133.0256,213.064l-3.16687,20.76345l-7.62215,-1.16253l3.16685,-20.76344z"/><path d="M133.90634,214.89849l-2.64413,17.33617l-10.03359,-1.53034l2.64413,-17.33617z"/><path d="M128.70634,236.90595l-6.36399,-0.97064l4.16877,-27.33252l6.36398,0.97064z"/></g><g fill="#ebae5e" stroke-width="0"><path d="M109.59078,210.89327l-2.85423,17.53555l-6.18668,-0.97011l2.85423,-17.53555z"/><path d="M110.28295,212.44082l-2.38309,14.64108l-8.144,-1.27704l2.38309,-14.64107z"/><path d="M105.75772,231.02974l-5.16548,-0.80998l3.75722,-23.08338l5.16548,0.80998z"/></g><path d="M84,322c0,-1.38071 1.11929,-2.5 2.5,-2.5c1.38071,0 2.5,1.11929 2.5,2.5c0,1.38071 -1.11929,2.5 -2.5,2.5c-1.38071,0 -2.5,-1.11929 -2.5,-2.5z" fill="none" stroke-width="0.5"/></g></g></svg>