<svg version="1.1" xmlns="http://www.w3.org/2000/svg" xmlns:xlink="http://www.w3.org/1999/xlink" width="327.78954" height="163.70043" viewBox="0,0,327.78954,163.70043"><g transform="translate(-102.9284,-71.63997)"><g data-paper-data="{&quot;isPaintingLayer&quot;:true}" fill-rule="nonzero" stroke-linecap="butt" stroke-linejoin="miter" stroke-miterlimit="10" stroke-dasharray="" stroke-dashoffset="0" style="mix-blend-mode: normal"><g stroke="none" stroke-width="0"><path d="M117.42577,231.09149v-5.96154h16.29487v5.96154z" fill="#81683a"/><path d="M234.42695,235.3404v-5.2766h104.87236v5.2766z" fill="#81683a"/><path d="M241.81133,233.75017v-7.3945h95.27524v7.3945z" fill="#7c6438"/><path d="M367.62446,230.05293v-5.40367h38.11009v5.40367z" fill="#7c6438"/><g><path d="M399.38922,79.13412v-5.5641h14.70513v5.5641z" fill="#81683a"/><path d="M414.09435,87.08284v-9.14102h6.35897v9.14102z" fill="#81683a"/><path d="M413.94401,225.71636v-6.75641h5.5641v6.75641z" fill="#81683a"/><path d="M396.81793,230.81489v-6.84725h18.71582v6.84725z" fill="#81683a"/><path d="M392.13404,85.4681v-9.89362h8.57447v9.89362z" fill="#81683a"/><path d="M392.13404,94.70214v-11.87235h4.61702v11.87235z" fill="#81683a"/><path d="M392.79361,228.9695v-8.57447h7.9149v8.57447z" fill="#81683a"/><path d="M392.79361,225.67163v-15.82979h4.61702v15.82979z" fill="#81683a"/><path d="M413.87838,222.53688v-138.70514h11.19384v138.70514z" fill="#81683a"/><path d="M422.18725,215.27657v-118.72342h5.93617v118.72342z" fill="#81683a"/><path d="M118.58031,225.57897v-146.25643h23.84616v146.25643z" fill="#e3c466"/><path d="M133.15752,229.04964v-152.36173h275.0426v152.36173z" fill="#e3c466"/><path d="M113.52023,219.49059v-132.95501h46.57611v132.95501z" fill="#e3c466"/><path d="M117.47767,215.15262v-122.0213h16.10884v122.0213z" fill="#d9bb61"/><path d="M121.7598,220.4123v-132.34617h7.94872v132.34617z" fill="#d9bb61"/><path d="M118.86519,79.41072v-5.5641h14.70513v5.5641z" fill="#81683a"/><path d="M112.50621,87.35944v-9.14103h6.35898v9.14103z" fill="#81683a"/><path d="M113.45141,225.99296v-6.75641h5.5641v6.75641z" fill="#81683a"/><path d="M138.19086,86.73406v-12.53192h269.10643v12.53192z" fill="#81683a"/><path d="M138.85044,232.49546v-13.18233h269.766v13.18233z" fill="#81683a"/><path d="M132.25103,85.7447v-9.89362h8.57447v9.89362z" fill="#81683a"/><path d="M136.4299,94.97874v-11.87234h4.61702v11.87234z" fill="#81683a"/><path d="M132.25103,229.2461v-8.57447h7.91489v8.57447z" fill="#81683a"/><path d="M135.5489,225.94823v-15.82979h4.61702v15.82979z" fill="#81683a"/><path d="M138.78864,222.68255v-7.91489h105.53193v7.91489z" fill="#81683a"/><path d="M331.05766,224.0017v-9.23404h85.08512v9.23404z" fill="#81683a"/><path d="M140.76736,92.08678v-7.91489h103.55321v7.91489z" fill="#81683a"/><path d="M305.66101,91.42721v-14.5318h107.25853v14.5318z" fill="#81683a"/><path d="M233.76738,76.91657v-5.2766h78.48937v5.2766z" fill="#81683a"/><path d="M107.88731,222.81347v-138.70514h6.35898v138.70514z" fill="#81683a"/><path d="M104.83612,215.55317v-118.72342h5.93617v118.72342z" fill="#81683a"/><path d="M110.59963,207.32597v-104.12822h3.97436v104.12822z" fill="#e3c466"/><path d="M164.85686,93.80386v-3.17949h60.41026v3.17949z" fill="#e3c466"/><path d="M332.68677,93.80386v-4.76923h66.76924v4.76923z" fill="#e3c466"/><path d="M154.30036,217.72054v-4.76923h78.69232v4.76923z" fill="#e3c466"/><path d="M336.12819,217.72054v-7.15385h66.76924v7.15385z" fill="#e3c466"/><path d="M113.99134,201.32168v-89.02565h24.64103v89.02565z" fill="#d9bb61"/><path d="M102.9284,202.34241v-94.98719h2.78205v94.98719z" fill="#81683a"/><path d="M108.4925,194.79113v-75.91026h2.78205v75.91026z" fill="#e3c466"/><path d="M426.74358,205.08019v-96.97437h3.97436v96.97437z" fill="#81683a"/><path d="M142.30215,130.26739v-39.41429h9.07857v39.41429z" fill="#81683a"/><path d="M137.87357,106.79596v-16.16429h7.75v16.16429z" fill="#81683a"/><path d="M138.18391,214.90941v-10.85h3.76429v10.85z" fill="#81683a"/><path d="M141.94819,227.30941v-50.70715h9.07857v50.70715z" fill="#81683a"/><path d="M143.49819,182.43373v-53.36429h6.42143v53.36429z" fill="#81683a"/><path d="M149.25533,215.8169v-124.66429h3.54286v124.66429z" fill="#81683a"/><path d="M151.46962,130.19745v-40.3h3.1v40.3z" fill="#81683a"/><path d="M149.25533,218.3289v-35.87143h5.97857v35.87143z" fill="#81683a"/><path d="M153.24105,220.10033v-4.87143h3.54286v4.87143z" fill="#81683a"/><path d="M150.64814,111.25302v-25.38704h8.66146v25.38704z" fill="#81683a"/><path d="M154.2322,98.41016v-12.24552h9.2588v12.24552z" fill="#81683a"/><path d="M153.52672,223.75842v-24.8h5.09286v24.8z" fill="#81683a"/><path d="M156.84815,227.07985v-20.37143h5.97857v20.37143z" fill="#81683a"/><path d="M160.391,224.20128v-11.07143h6.42143v11.07143z" fill="#81683a"/><path d="M164.15529,221.32271v-5.97857h12.4v5.97857z" fill="#81683a"/><path d="M407.19266,224.12404v-145.61469h7.6789v145.61469z" fill="#81683a"/><path d="M406.05504,79.4048v-4.26606h3.69725v4.26606z" fill="#81683a"/><path d="M363.79797,91.81306v-6.82569h44.65138v6.82569z" fill="#81683a"/><path d="M390.81632,133.336v-44.93578h17.06422v44.93578z" fill="#81683a"/><path d="M374.80131,95.41278v-7.3945h20.76147v7.3945z" fill="#81683a"/><path d="M381.05819,99.67884v-8.53211h11.37615v8.53211z" fill="#81683a"/><path d="M385.03984,111.9082v-15.92661h7.3945v15.92661z" fill="#81683a"/><path d="M388.73709,122.14673v-12.79817h5.97248v12.79817z" fill="#81683a"/><path d="M393.76794,169.44164v-38.11009h15.92661v38.11009z" fill="#81683a"/><path d="M391.03146,223.57227v-65.41285h18.48624v65.41285z" fill="#81683a"/><path d="M389.32504,225.26338v-49.48624h11.66055v49.48624z" fill="#81683a"/><path d="M388.18743,226.6854v-41.52294h10.52294v41.52294z" fill="#81683a"/><path d="M385.9122,232.08907v-39.81652h8.81651v39.81652z" fill="#81683a"/><path d="M373.96724,222.98815v-11.66055h33.27523v11.66055z" fill="#81683a"/><path d="M369.13238,220.14411v-5.11927h12.79817v5.11927z" fill="#927642"/><path d="M381.64614,214.74044v-9.10092h17.63303v9.10092z" fill="#81683a"/><path d="M149.68003,82.19267v-4.83486h82.19267v4.83486z" fill="#927642"/><path d="M139.72591,85.60551v-6.25688h89.01836v6.25688z" fill="#927642"/><path d="M230.91854,82.47707v-4.55046h72.23854v4.55046z" fill="#927642"/><path d="M236.60662,83.04588v-8.24771h71.38533v8.24771z" fill="#927642"/><path d="M307.68024,83.89909v-4.83486h97.55047v4.83486z" fill="#927642"/><path d="M313.36831,85.60551v-9.10092h96.12845v9.10092z" fill="#927642"/><path d="M309.38666,89.58716v-6.25688h20.47707v6.25688z" fill="#927642"/><path d="M141.90888,94.42203v-9.66973h17.63303v9.66973z" fill="#927642"/><path d="M145.60613,98.68808v-7.3945h9.10092v7.3945z" fill="#927642"/><path d="M148.16576,101.53212v-7.11009h3.41284v7.11009z" fill="#927642"/><path d="M369.4435,89.87157v-8.24771h46.3578v8.24771z" fill="#927642"/><path d="M378.54441,92.7156v-6.25688h41.52294v6.25688z" fill="#927642"/><path d="M383.94808,96.12845v-4.55046h38.6789v4.55046z" fill="#927642"/><path d="M389.63616,102.38533v-8.81651h26.44954v8.81651z" fill="#927642"/><path d="M395.03983,106.93579v-5.40367h17.06422v5.40367z" fill="#927642"/><path d="M397.31506,112.6885v-7.9633h11.09174v7.9633z" fill="#927642"/><path d="M400.15909,117.23896v-7.11009h12.79817v7.11009z" fill="#927642"/><path d="M404.99396,120.65181v-5.11927h10.52294v5.11927z" fill="#927642"/><path d="M141.22306,219.13208v-11.66055h13.08257v11.66055z" fill="#7c6438"/><path d="M138.09462,224.25135v-9.66973h19.62385v9.66973z" fill="#7c6438"/><path d="M142.07628,230.22383v-12.79817h24.17431v12.79817z" fill="#7c6438"/><path d="M158.33895,229.21886v-8.24771h15.92661v8.24771z" fill="#7c6438"/><path d="M172.73779,229.48412v-6.25688h110.63304v6.25688z" fill="#7c6438"/><path d="M235.3066,225.21806v-4.55046h7.6789v4.55046z" fill="#7c6438"/><path d="M281.05904,228.91531v-6.82569h81.05505v6.82569z" fill="#7c6438"/><path d="M359.66116,226.92448v-5.97248h46.92661v5.97248z" fill="#7c6438"/><path d="M333.21161,224.93366v-4.55046h3.12844v4.55046z" fill="#7c6438"/><path d="M385.47223,224.78641v-10.52294h25.88074v10.52294z" fill="#7c6438"/><path d="M390.59149,215.40109v-6.82569h22.46789v6.82569z" fill="#7c6438"/><path d="M396.84838,211.41943v-7.9633h23.60551v7.9633z" fill="#7c6438"/><path d="M400.26122,205.73136v-7.11009h23.60551v7.11009z" fill="#7c6438"/><path d="M403.38966,200.32769v-5.40367h18.77064v5.40367z" fill="#7c6438"/><path d="M390.8759,204.87815v-7.9633h10.80734v7.9633z" fill="#7c6438"/><path d="M405.38049,198.33686v-20.76147h12.79817v20.76147z" fill="#7c6438"/><path d="M398.27039,200.04329v-15.92661h10.52294v15.92661z" fill="#7c6438"/><path d="M408.79333,180.70384v-7.9633h4.26606v7.9633z" fill="#7c6438"/><path d="M165.85332,204.00397v-26.23077h215.01284v26.23077z" fill="#ddbe63"/><path d="M296.57318,187.7091v-17.08975h87.43591v17.08975z" fill="#ddbe63"/><path d="M170.87864,209.56808v-9.9359h58.82052v9.9359z" fill="#ddbe63"/><path d="M245.76915,212.35013v-10.33333h81.07693v10.33333z" fill="#ddbe63"/><path d="M338.49374,211.15782v-10.33333h31.79488v10.33333z" fill="#ddbe63"/><path d="M158.17661,182.64847v-16.29487h64.38462v16.29487z" fill="#ddbe63"/><path d="M161.3561,194.57155v-15.10257h7.15385v15.10257z" fill="#ddbe63"/><path d="M157.27004,167.65099v-9.53846h49.28206v9.53846z" fill="#ddbe63"/><path d="M328.99555,179.17664v-14.70513h58.02565v14.70513z" fill="#ddbe63"/><path d="M157.84587,163.2792v-15.10257h12.71795v15.10257z" fill="#ddbe63"/><path d="M361.56409,172.81766v-18.67949h25.03846v18.67949z" fill="#ddbe63"/><path d="M161.3727,161.29202v-29.8077h10.73077v29.8077z" fill="#ddbe63"/><path d="M375.07691,170.99831v-35.76923h11.12821v35.76923z" fill="#ddbe63"/></g></g><g fill="#4b4841" stroke="none" stroke-width="0"><path d="M196.45183,162.39652v-18.47517h3.69503v18.47517z"/><path d="M198.84274,174.5684v-12.17188h4.12974v12.17188z"/><path d="M201.451,177.61137v-3.91239h24.1264v3.91239z"/><path d="M223.83856,175.65517v-3.91239h6.73801v3.91239z"/><path d="M228.36679,172.82956v-16.73633h3.98484v16.73633z"/><path d="M229.92449,157.39736v-13.91072h4.12974v13.91072z"/><path d="M198.40803,145.22548v-10.21568h4.3471v10.21568z"/><path d="M200.79893,137.83541v-4.12974h14.99749v4.12974z"/><path d="M214.27494,140.00896v-4.12974h15.21484v4.12974z"/><path d="M226.88152,145.22548v-6.52065h4.12974v6.52065z"/></g><g fill="#4b4841" stroke="none" stroke-width="0"><path d="M159.50729,174.24106v-12.63428h4.3495v12.63428z"/><g><path d="M162.19984,137.78806v-4.55662h30.0323v4.55662z"/><path d="M157.64322,161.60678v-23.81872h4.55662v23.81872z"/><path d="M163.23544,176.72649v-5.17798h19.67634v5.17798z"/><path d="M182.0833,173.20546v-5.59222h12.63428v5.59222z"/></g></g><path d="M333.90278,180.5v-44.66667h4.86111v44.66667z" fill="#4b4841" stroke="none" stroke-width="0"/><g fill="#4b4841" stroke="none" stroke-width="0"><path d="M351.33333,137.66667v-3.33333h25.33333v3.33333z"/><path d="M351,151.66667v-15.66667h3.33333v15.66667z"/><path d="M352,156.66667v-6.66667h4v6.66667z"/><path d="M353.33333,160.33333v-5h11.33333v5z"/><path d="M363,163.66667v-5.33333h15.66667v5.33333z"/><path d="M374.66667,172.33333v-10.66667h5v10.66667z"/><path d="M368.66667,176.33333v-6.66667h6.66667v6.66667z"/><path d="M350.33333,180v-4.66667h19v4.66667z"/></g><g fill="#4b4841" stroke="#4b4841" stroke-width="1.5"><path d="M303.75904,172.18675v-19.81602h2.42196v19.81602z"/><path d="M304.63975,179.01227v-7.70623h1.9816v7.70623z"/><path d="M305.30029,180.33333v-2.64214h19.59584v2.64214z"/><path d="M305.05507,154.57251v-3.30267h23.55904v3.30267z"/><path d="M326.19215,175.7096v-22.67833h2.86231v22.67833z"/><path d="M323.77019,179.01227v-3.74303h3.30267v3.74303z"/></g><g fill="#4b4841" stroke="none" stroke-width="0"><path d="M284.10734,176.16667v-28.33333h4v28.33333z"/><path d="M286.77401,149.5v-4.33333h14v4.33333z"/></g><g fill="#4b4841" stroke="none" stroke-width="0"><path d="M272.10734,169v-33.33333h3.66667v33.33333z"/><path d="M273.44068,176v-9h4.33333v9z"/><path d="M262.10734,136.33333v-4h40.33333v4z"/></g><g fill="#4b4841" stroke="none" stroke-width="0"><path d="M237,164.83333v-30.33333h3.66667v30.33333z"/><path d="M238.33333,178.16667v-14.33333h3v14.33333z"/><path d="M240,138.16667v-3.66667h9.66667v3.66667z"/><path d="M246,151.16667v-14h5v14z"/><path d="M248.66667,167.5v-18.33333h3.66667v18.33333z"/><path d="M250.33333,174.5v-9h3.66667v9z"/><path d="M251.66667,177.5v-4.66667h7.66667v4.66667z"/><path d="M257.33333,174.83333v-9.66667h4v9.66667z"/><path d="M258.66667,167.16667v-17h4.33333v17z"/><path d="M261,153.16667v-11.33333h4.66667v11.33333z"/></g></g></g></svg>