<svg version="1.1" xmlns="http://www.w3.org/2000/svg" xmlns:xlink="http://www.w3.org/1999/xlink" width="305.51056" height="271.77319" viewBox="0,0,305.51056,271.77319"><g transform="translate(-78.57176,-33.75712)"><g data-paper-data="{&quot;isPaintingLayer&quot;:true}" fill-rule="nonzero" stroke-width="0" stroke-linecap="butt" stroke-linejoin="miter" stroke-miterlimit="10" stroke-dasharray="" stroke-dashoffset="0" style="mix-blend-mode: normal"><path d="M157.63996,301.56595v-25.23846h75.41487v25.23846z" fill="#2a682f" stroke="none"/><path d="M233.03989,279.38941v-22.12036h11.06018v22.12036z" fill="#29672f" stroke="none"/><path d="M248.61392,304.30897v-25.23846h75.41487v25.23846z" fill="#2a682f" stroke="none"/><path d="M194.23269,185.73564v-8.67726h87v8.67726z" fill="#29672f" stroke="none"/><path d="M207.27997,178.50064v-10.5h53.75v10.5z" data-paper-data="{&quot;index&quot;:null}" fill="#5c3687" stroke="none"/><path d="M197.70491,184.07867v-7.87381h78.94445v7.87381z" fill="#1e4b23" stroke="none"/><path d="M207.33944,176.43556v-3.2h53.6v3.2z" fill="#412660" stroke="none"/><path d="M207.13944,175.63555v-6h3v6z" fill="#412660" stroke="none"/><path d="M259.93944,175.23555v-4.8h1.2v4.8z" fill="#412660" stroke="none"/><path d="M265.89867,177.27809v-1.53846h1.38462v1.53846z" fill="#59df69" stroke="none"/><path d="M271.51405,177.27809v-2.07692h1.46154v2.07692z" fill="#59df69" stroke="none"/><path d="M272.6679,180.27809v-4.23077h0.76923v4.23077z" fill="#59df69" stroke="none"/><path d="M267.28328,182.04732v-0.69231h3.92308v0.69231z" fill="#59df69" stroke="none"/><path d="M271.12943,181.81655v-1.69231h2.15385v1.69231z" fill="#59df69" stroke="none"/><path d="M265.20636,181.81655v-1.61538h2.30769v1.61538z" fill="#59df69" stroke="none"/><path d="M264.89867,180.43193v-3.53846h1.38462v3.53846z" fill="#59df69" stroke="none"/><path d="M243.19517,182.79286v-1.15385h4.69231v1.15385z" fill="#59df69" stroke="none"/><path d="M247.04133,182.02362v-1.46154h1.92308v1.46154z" fill="#59df69" stroke="none"/><path d="M241.04133,181.10054v-4.15385h1.46154v4.15385z" fill="#59df69" stroke="none"/><path d="M249.15954,181.97112v-4.91852h1.25808v4.91852z" fill="#59df69" stroke="none"/><path d="M242.15805,182.68156v-1.96741h2.78965v1.96741z" fill="#59df69" stroke="none"/><path d="M248.11279,182.06131v-2.40461h1.64097v2.40461z" fill="#59df69" stroke="none"/><path d="M223.38881,182.00667v-0.7651h2.40676v0.7651z" fill="#59df69" stroke="none"/><path d="M225.08448,181.95202v-1.63951h1.42218v1.63951z" fill="#59df69" stroke="none"/><path d="M225.95967,181.40551v-2.73251h1.53157v2.73251z" fill="#59df69" stroke="none"/><path d="M226.34256,180.96832v-2.84181h1.36748v2.84181z" fill="#59df69" stroke="none"/><path d="M221.80254,182.88107v-1.20231h3.77424v1.20231z" fill="#59df69" stroke="none"/><path d="M224.75629,181.67877v-1.36626h1.47687v1.36626z" fill="#59df69" stroke="none"/><path d="M221.14615,182.44356v0.38316h-2.35206v-0.38316z" fill="#59df69" stroke="none"/><path d="M219.83337,182.44388v-1.53021h1.85977v1.53021z" fill="#59df69" stroke="none"/><path d="M219.39578,183.15433v-1.96741h4.10243v1.96741z" fill="#59df69" stroke="none"/><path d="M218.2471,182.06131v-3.88017h2.68026v3.88017z" fill="#59df69" stroke="none"/><path d="M200.28836,180.96503v-1.25695h3.93833v1.25695z" fill="#59df69" stroke="none"/><path d="M204.55489,181.56618v-3.77087h1.42218v3.77087z" fill="#59df69" stroke="none"/><path d="M201.71053,180.63713v-1.20231h3.33664v1.20231z" fill="#59df69" stroke="none"/><path d="M205.53947,179.27087v-3.00577h1.47688v3.00577z" fill="#59df69" stroke="none"/><path d="M199.46787,180.74643v-2.24066h2.46146v2.24066z" fill="#59df69" stroke="none"/><path d="M198.53799,178.66972v-2.02206h1.80507v2.02206z" fill="#59df69" stroke="none"/><path d="M197.991,177.13951v-2.45926h1.53157v2.45926z" fill="#59df69" stroke="none"/><path d="M200.64654,179.50792v-1.80346h1.14868v1.80346z" fill="#59df69" stroke="none"/><path d="M200.42774,181.47533v-6.01153h0.71109v6.01153z" fill="#59df69" stroke="none"/><path d="M199.71666,181.52997v-6.33943h1.53157v6.33943z" fill="#59df69" stroke="none"/><path d="M198.30716,175.66068v-5.73828h1.03928v5.73828z" fill="#59df69" stroke="none"/><path d="M170.91762,185.05844v-49.53658h130.75958v49.53658z" fill="#33813b" stroke="none"/><g stroke="none"><path d="M142.715,206.93871l-21.97687,47.16426l-34.04945,-16.34597l21.97686,-47.16426z" fill="#327c39"/><g fill="#33813b"><path d="M121.01724,239.81231l-8.39093,26.32406l-9.66341,-3.08026l8.39093,-26.32406z"/><path d="M121.78369,242.37712l-7.00589,21.97892l-12.72065,-4.05478l7.00589,-21.97892z"/><path d="M112.99406,261.99881l-8.0696,-2.56777l8.54787,-26.75654l8.0696,2.56777z"/><path d="M104.28973,269.95355l3.31766,-10.48775l3.54133,1.12025l-3.31767,10.48776z"/></g><g fill="#33813b"><path d="M101.56433,232.38245l-13.96071,23.84245l-8.75243,-5.1249l13.96072,-23.84244z"/><path d="M101.74953,235.05292l-11.65631,19.90693l-11.52145,-6.74628l11.65631,-19.90693z"/><path d="M88.86997,252.26876l-7.30983,-4.27529l14.2087,-24.22997l7.30984,4.27529z"/><path d="M78.63277,258.1205l5.53734,-9.50462l3.20936,1.86975l-5.53735,9.50463z"/></g><path d="M142.8179,214.84162l-14.45276,31.0704l-38.04756,-18.32547l14.45275,-31.0704z" fill="#327c39"/><g fill="#33813b"><path d="M137.5498,222.41499l9.8639,21.00947l-10.13099,4.8262l-9.86389,-21.00947z"/><path d="M139.8466,223.37805l8.23573,17.54157l-13.33616,6.35307l-8.23573,-17.54157z"/><path d="M145.06127,240.77308l-8.45719,4.03278l-10.00986,-21.36769l8.45719,-4.03278z"/><path d="M142.84013,251.3431l-3.95125,-8.35303l3.70716,-1.77361l3.95126,8.35302z"/></g></g><path d="M166.37983,206.80186v-29.66666h9.68675v29.66666z" fill="#33813b" stroke="none"/><path d="M166.93403,278.01543v-31.66667h9.96352v31.66667z" fill="#327c39" stroke="none"/><path d="M307.52959,211.30186v-29.66666h9.68675v29.66666z" fill="#33813b" stroke="none"/><path d="M308.08378,282.51543v-31.66667h9.96352v31.66667z" fill="#327c39" stroke="none"/><g stroke="none"><path d="M173.79509,282.14657v-59.282h135.05514v59.282z" fill="#327c39"/><path d="M173.81419,226.86615v-54.84247h134.57578v54.84247z" fill="#33813b"/></g><g data-paper-data="{&quot;index&quot;:null}" stroke="none"><path d="M353.98855,174.59275l21.97687,47.16426l-34.04946,16.34597l-21.97687,-47.16426z" fill="#327c39"/><g fill="#33813b"><path d="M351.30027,220.73206l8.39093,26.32406l-9.66341,3.08026l-8.39093,-26.32406z"/><path d="M353.59106,222.32234l7.00589,21.97892l-12.72065,4.05478l-7.00589,-21.97892z"/><path d="M341.11217,219.24226l8.06959,-2.56777l8.54787,26.75654l-8.06959,2.56777z"/><path d="M354.82304,255.0738l-3.31767,-10.48776l3.54133,-1.12025l3.31766,10.48775z"/></g><g fill="#33813b"><path d="M369.84219,211.25756l13.96072,23.84244l-8.75243,5.12489l-13.96071,-23.84244z"/><path d="M372.42602,212.30663l11.65631,19.90693l-11.52145,6.74628l-11.65632,-19.90692z"/><path d="M359.57542,212.03879l7.30984,-4.27529l14.2087,24.22997l-7.30983,4.27529z"/><path d="M380.81197,243.99025l-5.53734,-9.50462l3.20935,-1.86975l5.53735,9.50462z"/></g><path d="M357.88376,180.51615l14.45275,31.0704l-38.04756,18.32547l-14.45276,-31.0704z" fill="#327c39"/><g fill="#33813b"><path d="M335.23527,211.24119l-9.86389,21.00947l-10.13099,-4.82621l9.8639,-21.00946z"/><path d="M336.14366,213.73112l-8.23574,17.54157l-13.33616,-6.35307l8.23573,-17.54157z"/><path d="M327.60269,203.40538l8.45719,4.03278l-10.00986,21.36769l-8.45719,-4.03278z"/><path d="M316.1068,233.56949l3.95126,-8.35302l3.70716,1.77361l-3.95125,8.35303z"/></g></g><path d="M151.11109,304.03031v-15h76v15z" fill="#2e7434" stroke="none"/><path d="M246.11109,305.53031v-15.5h68v15.5z" fill="#2e7434" stroke="none"/><path d="M200.75053,282.62044v-7h117.33333v7z" fill="#307737" stroke="none"/><path d="M312.4172,281.62044v-31.33333h5v31.33333z" fill="#307737" stroke="none"/><path d="M305.75053,256.28711v-6.33333h13v6.33333z" fill="#307737" stroke="none"/><path d="M304.75053,256.28711v-24h5v24z" fill="#307737" stroke="none"/><path d="M304.27643,279.16184v-13.33333h10v13.33333z" fill="#307737" stroke="none"/><path d="M255.27643,279.82851v-8.66667h54.33333v8.66667z" fill="#307737" stroke="none"/><path d="M173.06432,281.76895v-5.33333h29.66667v5.33333z" fill="#307737" stroke="none"/><path d="M167.06432,278.43561v-14.66667h6.33333v14.66667z" fill="#307737" stroke="none"/><path d="M172.88683,276.46955v-7.33333h83v7.33333z" fill="#317a38" stroke="none"/><path d="M254.22016,271.46955v-8.33333h50.66667v8.33333z" fill="#317a38" stroke="none"/><path d="M296.5535,265.46955v-10.66667h15.33333v10.66667z" fill="#317a38" stroke="none"/><path d="M299.5535,257.46955v-26h6v26z" fill="#317a38" stroke="none"/><path d="M167.22016,264.46955v-10.33333h6.66667v10.33333z" fill="#317a38" stroke="none"/><path d="M171.22016,270.46955v-10.33333h10v10.33333z" fill="#317a38" stroke="none"/><path d="M298.612,168.00817v-6.66667h5v6.66667z" fill="#29672f" stroke="none"/><path d="M172.54226,214.47081v-5.33333h77.33333v5.33333z" fill="#29672f" stroke="none"/><g fill="#3d7f44" stroke="none"><g><path d="M189.24101,219.46307v-4h92v4z"/><path d="M279.24101,216.7964v-4.33334h19.66666v4.33334z"/><path d="M296.90768,213.7964v-4.66667h11v4.66667z"/><path d="M181.57435,217.12973v-4.66666h12.66666v4.66666z"/><path d="M175.57435,214.46307v-5h8.66666v5z"/></g><g><path d="M188.90768,235.12973v-4h92v4z"/><path d="M278.90768,232.46307v-4.33333h19.66667v4.33333z"/><path d="M296.57435,229.46307v-4.66667h11v4.66667z"/><path d="M181.24101,232.7964v-4.66667h12.66667v4.66667z"/><path d="M175.24101,230.12973v-5h8.66667v5z"/></g><g><path d="M187.61969,252.12973v-4h94.54912v4z"/><path d="M280.11339,249.46307v-4.33334h20.21159v4.33334z"/><path d="M298.26956,246.46307v-4.66667h11.30479v4.66667z"/><path d="M179.7406,249.7964v-4.66666h13.01763v4.66666z"/><path d="M173.57435,247.12973v-5h8.9068v5z"/></g><g><path d="M184.26116,264.46307v-4h103.35516v4z"/><path d="M285.36948,261.7964v-4.33334h22.09404v4.33334z"/><path d="M305.21666,258.7964v-4.66667h12.35768v4.66667z"/><path d="M175.64824,262.12973v-4.66667h14.23006v4.66667z"/><path d="M168.90768,259.46307v-5h9.73635v5z"/></g></g><path d="M247.87559,212.80414v-5.33333h19.33333v5.33333z" fill="#29672f" stroke="none"/><g fill="#2d7034" stroke="none"><path d="M168.65972,247.80288v-38.66667h7.66667v38.66667z"/><path d="M162.99305,248.80288v-8h12v8z"/><path d="M162.65972,279.46955v-32.66667h7v32.66667z"/><path d="M166.57079,281.64369v-5.66667h7v5.66667z"/><path d="M172.90412,282.97702v-2.66667h145.33333v2.66667z"/><path d="M316.85019,284.31035v-34.66667h3.33333v34.66667z"/><path d="M309.18353,250.92199v-4h11v4z"/><path d="M306.85019,250.08889v-38.66667h4.66667v38.66667z"/><path d="M308.85019,213.33859v-4.33333h9.33333v4.33333z"/><path d="M315.51686,212.89922v-32h3.33333v32z"/><path d="M307.51686,183.56589v-4.66667h10.33333v4.66667z"/><path d="M301.18353,173.89922v-10.66667h3.66667v10.66667z"/><path d="M302.51686,172.89922v-3.66667h6.33333v3.66667z"/><path d="M306.85019,180.89922v-10.33333h3.66667v10.33333z"/></g><g><g fill="#29672f"><path d="M147.95508,199.44097v-134.50282h123.98614v134.50282z" stroke="#000000"/><path d="M135.77787,164.01636v-105.16681h168.82041v105.16681z" stroke="none"/><path d="M144.63402,84.05461v-40.4062h145.57301v40.4062z" stroke="none"/><path d="M150.94202,64.39557v-25.46144h133.5803v25.46144z" stroke="none"/><path d="M140.97885,64.39557v-14.39125h11.43919v14.39125z" stroke="none"/><path d="M288.21239,68.82365v-20.66435h10.70118v20.66435z" stroke="none"/><path d="M302.78018,156.09927v-91.51358h6.64211v91.51358z" stroke="none"/><path d="M131.52271,159.56937v-95.57264h12.54622v95.57264z" stroke="none"/><path d="M141.52698,193.92664v-40.95971h137.27037v40.95971z" stroke="none"/><path d="M153.12201,210.39593v-19.18833h115.49899v19.18833z" stroke="none"/><path d="M267.83544,184.63053v-25.83045h15.86728v25.83045z" stroke="none"/><path d="M244.58804,170.6083v-23.2474h54.98195v23.2474z" stroke="none"/><path d="M170.01933,66.59869v-32.84156h95.20364v32.84156z" stroke="none"/><path d="M127.73149,146.67927v-63.10009h19.55734v63.10009z" stroke="none"/><path d="M303.59361,145.37535v-60.14804h10.33218v60.14804z" stroke="none"/></g><g fill="#3c9545"><path d="M152.5,190.00002v-121.5h112v121.5z" stroke="#000000"/><path d="M141.5,158v-95h152.5v95z" stroke="none"/><path d="M149.5,85.76844v-36.5h131.5v36.5z" stroke="none"/><path d="M155.19818,68.0099v-23h120.66667v23z" stroke="none"/><path d="M146.19818,68.0099v-13h10.33333v13z" stroke="none"/><path d="M279.19818,72.0099v-18.66667h9.66667v18.66667z" stroke="none"/><path d="M292.35766,150.8483v-82.66667h6v82.66667z" stroke="none"/><path d="M137.65621,153.98295v-86.33333h11.33333v86.33333z" stroke="none"/><path d="M146.69333,185.01878v-37h124v37z" stroke="none"/><path d="M157.16742,199.89593v-17.33333h104.33333v17.33333z" stroke="none"/><path d="M260.79114,176.62134v-23.33333h14.33333v23.33333z" stroke="none"/><path d="M239.79114,163.95469v-21h49.66667v21z" stroke="none"/><path d="M172.43123,70.00002v-29.66667h86v29.66667z" stroke="none"/><path d="M134.23149,142.33898v-57h17.66667v57z" stroke="none"/><path d="M293.09246,141.16109v-54.33333h9.33333v54.33333z" stroke="none"/></g><g stroke="none"><g fill="#36883e"><g><path d="M234.74388,133.08332v-8.25402h46.93849v8.25402z"/><path d="M243.01284,136.29322v-8.94186h33.07582v8.94186z"/><path d="M231.82543,125.97569v-8.94186h11.43061v8.94186z"/><path d="M275.35904,127.35135v-7.33691h13.13305v7.33691z"/><path d="M242.52643,89.7427v-5.50268h32.58941v5.50268z"/><path d="M239.12156,93.86971v-5.96124h8.75537v5.96124z"/><path d="M234.74388,100.74805v-9.17114h8.02575v9.17114z"/><path d="M272.44059,93.86971v-7.10763h7.05293v7.10763z"/><path d="M277.06147,102.12373v-9.85898h8.02575v9.85898z"/><path d="M234.74388,118.16899v-18.80083h3.16166v18.80083z"/><path d="M282.41198,121.3789v-20.40578h3.16165v20.40578z"/><path d="M284.35762,123.21312v-13.7567h2.91845v13.7567z"/></g><path d="M233.04145,119.74341v-15.07869h3.64807v15.07869z"/></g><g fill="#000000"><path d="M241.96285,126.77979v-35.58931h35.58938v35.58932z"/><path d="M236.66721,123.93185v-29.71481h46.84894v29.71481z"/><path d="M245.07885,85.73933h29.71478v46.84894h-29.71478z"/></g><g fill="#ceb0d4"><path d="M245.55924,122.96239v-27.62813h27.62813v27.62813z"/><path d="M241.4482,120.75151v-23.06768h36.36895v23.06768z"/><path d="M247.97818,91.1026h23.06767v36.36894h-23.06767z"/></g></g><g fill="#6a0000" stroke="none"><path d="M256.49286,118.95676v-15.68624h15.68623v15.68624z"/><path d="M254.15878,117.70155v-13.097h20.64895v13.097z"/><path d="M257.86624,100.86793h13.097v20.64894h-13.097z"/></g><g stroke="none"><g fill="#36883e"><g><path d="M138.15876,125.22709v-11.31287h64.33334v11.31287z"/><path d="M149.4921,129.62653v-12.25561h45.33333v12.25561z"/><path d="M134.15876,115.48547v-12.25561h15.66666v12.25561z"/><path d="M193.82543,117.37094v-10.05588h18v10.05588z"/><path d="M148.82543,65.82495v-7.54191h44.66667v7.54191z"/><path d="M144.15876,71.48138v-8.1704h12v8.1704z"/><path d="M138.15876,80.90878v-12.56985h11v12.56985z"/><path d="M189.82543,71.48138v-9.74163h9.66667v9.74163z"/><path d="M196.15876,82.79426v-13.5126h11v13.5126z"/><path d="M138.15876,104.78571v-25.7682h4.33334v25.7682z"/><path d="M203.4921,109.18516v-27.96793h4.33333v27.96793z"/><path d="M206.15876,111.69913v-18.85478h4v18.85478z"/></g><path d="M135.82543,106.94357v-20.66667h5v20.66667z"/></g><g fill="#000000"><path d="M148.053,116.58756v-48.7783h48.77839v48.7783z"/><path d="M140.79485,112.6842v-40.72677h64.2106v40.72677z"/><path d="M152.32375,60.33798h40.72673v64.2106h-40.72673z"/></g><g fill="#ceb0d4"><path d="M152.98216,111.35547v-37.86678h37.86678v37.86678z"/><path d="M147.34763,108.32528v-31.61629h49.84685v31.61629z"/><path d="M156.29753,67.68882h31.61629v49.84684h-31.61629z"/></g></g><g fill="#6a0000" stroke="none"><path d="M153.11471,106.91443v-21.49937h21.49937v21.49937z"/><path d="M149.91565,105.19404v-17.95059h28.3012v17.95059z"/><path d="M154.99705,82.1221h17.95059v28.30121h-17.95059z"/></g><path d="M161.23269,188.06896v-43.83334h93v43.83334z" fill="#180b1c" stroke="none"/><path d="M168.23269,142.24621v-8.67725h81.66667v8.67725z" fill="#29672f" stroke="none"/><g fill="#29672f" stroke="none"><path d="M158.23269,149.25484v-9.61182h15v9.61182z"/><path d="M154.23269,165.11439v-19.70424h7.33333v19.70424z"/><path d="M155.56602,182.41567v-21.14602h6.66667v21.14602z"/><path d="M159.56602,191.06632v-12.01479h7.33334v12.01479z"/></g><g data-paper-data="{&quot;index&quot;:null}" fill="#29672f" stroke="none"><path d="M243.23269,146.34471v-10.17257h15v10.17257z"/><path d="M254.89936,163.12946v-20.85378h7.33333v20.85378z"/><path d="M254.23269,181.4401v-22.37967h6.66667v22.37967z"/><path d="M249.56602,190.59542v-12.71572h7.33334v12.71572z"/></g><path d="M171.26972,145.34751v-7.87381h74.10494v7.87381z" fill="#1e4b23" stroke="none"/><path d="M182.52997,182.00063v-7.5h41.75v7.5z" data-paper-data="{&quot;index&quot;:null}" fill="#5c3687" stroke="none"/><g fill="#1e4b23" stroke="none"><path d="M162.19565,151.58961v-8.39553h13.61111v8.39553z"/><path d="M158.56602,165.44225v-17.21086h6.65431v17.21086z"/><path d="M159.77589,180.55423v-18.47019h6.04939v18.47019z"/><path d="M163.40552,188.11021v-10.49443h6.65433v10.49443z"/></g><g data-paper-data="{&quot;index&quot;:null}" fill="#1e4b23" stroke="none"><path d="M239.32528,148.93234v-9.09647h13.61111v9.09647z"/><path d="M249.9117,163.94152v-18.64777h6.65432v18.64777z"/><path d="M249.30676,180.31517v-20.01224h6.04939v20.01224z"/><path d="M245.0722,188.50199v-11.3706h6.65432v11.3706z"/></g><g fill="#f2e9eb" stroke="none"><path d="M174.3255,153.77212v-13.4h4.2v13.4z"/><path d="M176.7255,159.97212v-11.4h2.6v11.4z"/><path d="M178.5255,166.57213v-11.4h2.6v11.4z"/><path d="M173.7255,142.17213v-3.2h6.6v3.2z"/><path d="M175.1255,139.97212v-2.2h4v2.2z"/></g><g data-paper-data="{&quot;index&quot;:null}" fill="#f2e9eb" stroke="none"><path d="M231.12549,152.37212v-13.4h4.2v13.4z"/><path d="M230.32549,158.57213v-11.4h2.6v11.4z"/><path d="M228.52549,165.17213v-11.4h2.6v11.4z"/><path d="M229.32549,140.77212v-3.2h6.6v3.2z"/><path d="M230.52549,138.57213v-2.2h4v2.2z"/></g><g data-paper-data="{&quot;index&quot;:null}" fill="#f2e9eb" stroke="none"><path d="M251.52549,158.17213v-13.4h4.2v13.4z"/><path d="M250.7255,164.37212v-11.4h2.6v11.4z"/><path d="M248.9255,170.97212v-11.4h2.6v11.4z"/><path d="M249.7255,146.57213v-3.2h6.6v3.2z"/><path d="M250.9255,144.37212v-2.2h4v2.2z"/></g><g fill="#f2e9eb" stroke="none"><g><path d="M192.0755,142.77212v-3.2h6.6v3.2z"/><path d="M193.4755,140.57213v-2.2h4v2.2z"/></g><g><path d="M192.6755,153.62212v-12.65h4.2v12.65z"/><path d="M194.9505,157.32213v-11.4h2.6v11.4z"/><path d="M196.8755,162.17213v-11.4h2.6v11.4z"/></g></g><g fill="#f2e9eb" stroke="none"><g><path d="M213.8755,153.67213v-13.4h4.2v13.4z"/><path d="M211.8255,158.62212v-11.4h2.6v11.4z"/><path d="M209.9005,163.22212v-11.4h2.6v11.4z"/></g><g><path d="M213.3255,142.57213v-3.2h6.6v3.2z"/><path d="M214.5255,140.37212v-2.2h4v2.2z"/></g></g><g fill="#f2e9eb" stroke="none"><path d="M161.7505,162.62212v-11.4h2.6v11.4z"/><path d="M158.7255,158.17213v-13.4h4.2v13.4z"/><path d="M164.1755,166.84712v-11.4h2.6v11.4z"/><path d="M158.1255,146.57213v-3.2h6.6v3.2z"/><path d="M159.5255,144.37212v-2.2h4v2.2z"/></g><g fill="#f2e9eb" stroke="none"><path d="M174.4505,173.32213v13.4h-4.2v-13.4z"/><path d="M174.8755,169.74712v11.4h-2.6v-11.4z"/><path d="M176.0505,164.64712v11.4h-2.6v-11.4z"/><g><path d="M177.0005,185.04713v3.2h-6.6v-3.2z"/><path d="M175.8005,187.24712v2.2h-4v-2.2z"/></g></g><g fill="#f2e9eb" stroke="none"><path d="M197.4255,171.84712v11.4h-2.6v-11.4z"/><path d="M195.3255,177.39712v11.775h-4.2v-11.775z"/><path d="M195.7505,174.32213v11.4h-2.6v-11.4z"/><g><path d="M197.1255,187.37212v3.2h-6.6v-3.2z"/><path d="M195.9255,189.57213v2.2h-4v-2.2z"/></g></g><g fill="#f2e9eb" stroke="none"><g><path d="M220.1255,187.57213v3.2h-6.6v-3.2z"/><path d="M218.7255,189.77212v2.2h-4v-2.2z"/></g><g><path d="M219.52549,178.09712v11.275h-4.2v-11.275z"/><path d="M217.1255,174.39712v9.65h-2.6v-9.65z"/><path d="M215.3255,171.54713v7.9h-2.6v-7.9z"/></g></g><g fill="#f2e9eb" stroke="none"><g><path d="M243.7255,187.17213v3.2h-6.6v-3.2z"/><path d="M242.3255,189.37212v2.2h-4v-2.2z"/></g><g><path d="M242.5005,175.57213v13.4h-4.2v-13.4z"/><path d="M239.3505,171.37212v11.4h-2.6v-11.4z"/><path d="M236.9255,168.52212v9.65h-2.6v-9.65z"/></g></g><path d="M159.24845,142.43067v-0.84615h5.23077v0.84615z" fill="#59df69" stroke="none"/><path d="M163.32537,143.58451v-1.46154h2.15385v1.46154z" fill="#59df69" stroke="none"/><path d="M164.24845,146.66143v-3.46154h1.38462v3.46154z" fill="#59df69" stroke="none"/><path d="M158.70999,143.73835v-1.61538h1v1.61538z" fill="#59df69" stroke="none"/><path d="M157.32537,143.81527v-0.84615h1.76923v0.84615z" fill="#59df69" stroke="none"/><path d="M157.4023,146.66143v-3.07692h1v3.07692z" fill="#59df69" stroke="none"/><path d="M162.86383,146.96911v-0.61538h2.23077v0.61538z" fill="#59df69" stroke="none"/><path d="M157.53691,146.96911v-0.38462h1.25v0.38462z" fill="#59df69" stroke="none"/><path d="M174.67488,137.84758v-1.61538h4.92308v1.61538z" fill="#59df69" stroke="none"/><path d="M178.82873,139.07834v-2.23077h3.07692v2.23077z" fill="#59df69" stroke="none"/><path d="M180.0595,140.53988v-1.84615h2.15385v1.84615z" fill="#59df69" stroke="none"/><path d="M179.75181,142.00141v-1.92308h1.69231v1.92308z" fill="#59df69" stroke="none"/><path d="M178.67488,142.61681v-0.84615h2.46154v0.84615z" fill="#59df69" stroke="none"/><path d="M173.67488,139.15526v-2.15385h1.69231v2.15385z" fill="#59df69" stroke="none"/><path d="M172.21335,142.15526v-3.76923h1.61538v3.76923z" fill="#59df69" stroke="none"/><path d="M172.98258,143.00141v-1.38462h1.38462v1.38462z" fill="#59df69" stroke="none"/><path d="M193.01062,138.61681v-1.92308h5.07692v1.92308z" fill="#59df69" stroke="none"/><path d="M191.47216,139.69373v-2h2.07692v2z" fill="#59df69" stroke="none"/><path d="M190.47216,142.84757v-3.53846h1.84615v3.53846z" fill="#59df69" stroke="none"/><path d="M197.16447,139.84757v-2.07692h2.53846v2.07692z" fill="#59df69" stroke="none"/><path d="M198.62601,143.3091v-3.61538h1.76923v3.61538z" fill="#59df69" stroke="none"/><path d="M196.77985,143.53988v-0.76923h2.38462v0.76923z" fill="#59df69" stroke="none"/><path d="M190.85678,143.46294v-0.84615h1.76923v0.84615z" fill="#59df69" stroke="none"/><path d="M213.6479,138.15064v-2.15385h5.92308v2.15385z" fill="#59df69" stroke="none"/><path d="M213.10267,139.343v-2.07692h1.46154v2.07692z" fill="#59df69" stroke="none"/><path d="M214.17959,138.57377v-1.38462h4.84615v1.38462z" fill="#59df69" stroke="none"/><path d="M217.8719,139.72761v-2h2.46154v2z" fill="#59df69" stroke="none"/><path d="M219.41036,143.11224v-4.07692h1.07692v4.07692z" fill="#59df69" stroke="none"/><path d="M211.8719,142.80453v-4.07692h1.46154v4.07692z" fill="#59df69" stroke="none"/><path d="M218.17959,143.41992v-0.84615h2v0.84615z" fill="#59df69" stroke="none"/><path d="M212.33344,143.03532v-0.61538h1.46154v0.61538z" fill="#59df69" stroke="none"/><path d="M230.10186,136.60644v-1.15385h4.92308v1.15385z" fill="#59df69" stroke="none"/><path d="M235.64033,140.60644v-3.07692h0.84615v3.07692z" fill="#59df69" stroke="none"/><path d="M234.25571,138.06796v-1.92308h2v1.92308z" fill="#59df69" stroke="none"/><path d="M228.64033,137.4526v-1.46154h1.84615v1.46154z" fill="#59df69" stroke="none"/><path d="M227.64033,140.68336v-3.46154h1.76923v3.46154z" fill="#59df69" stroke="none"/><path d="M228.94802,137.60644v-0.23077h1.61538v0.23077z" fill="#59df69" stroke="none"/><path d="M228.33263,141.37568v-1.53846h2.53846v1.53846z" fill="#59df69" stroke="none"/><path d="M234.94802,141.37568v-1.07692h1.30769v1.07692z" fill="#59df69" stroke="none"/><path d="M250.51264,142.45661v-0.92308h4.69231v0.92308z" fill="#59df69" stroke="none"/><path d="M254.58956,143.53353v-0.46154h1.84615v0.46154z" fill="#59df69" stroke="none"/><path d="M254.7434,143.53353v-1.61538h0.53846v1.61538z" fill="#59df69" stroke="none"/><path d="M256.0511,146.7643v-3.61538h0.38462v3.61538z" fill="#59df69" stroke="none"/><path d="M250.20494,143.45661v-1.30769h0.69231v1.30769z" fill="#59df69" stroke="none"/><path d="M249.12802,143.53353v-0.76923h1.30769v0.76923z" fill="#59df69" stroke="none"/><path d="M249.12802,146.45661v-3.38462h0.76923v3.38462z" fill="#59df69" stroke="none"/><path d="M248.97417,146.91814v-0.69231h2.38462v0.69231z" fill="#59df69" stroke="none"/><path d="M255.51264,147.07199v-0.69231h0.61538v0.69231z" fill="#59df69" stroke="none"/><path d="M250.82033,147.37969v-1.07692h0.69231v1.07692z" fill="#59df69" stroke="none"/></g></g></g></svg>