<svg version="1.1" xmlns="http://www.w3.org/2000/svg" xmlns:xlink="http://www.w3.org/1999/xlink" width="364.67594" height="106.00311" viewBox="0,0,364.67594,106.00311"><g transform="translate(-23.82407,-35.49846)"><g data-paper-data="{&quot;isPaintingLayer&quot;:true}" fill-rule="nonzero" stroke="none" stroke-width="0" stroke-linecap="butt" stroke-linejoin="miter" stroke-miterlimit="10" stroke-dasharray="" stroke-dashoffset="0" style="mix-blend-mode: normal"><path d="M114.65756,125.02637v-60.5h258v60.5z" fill="#c7c7c7"/><g><path d="M115.05039,120.98112v-57h223.68809v57z" fill="#28e000"/><path d="M117.49448,119.41378v-14.5h221.52477v14.5z" fill="#24cc00"/></g><path d="M371.50001,119v-56h17v56z" fill="#000000"/><path d="M112.5,65v-18h258.89941v18z" fill="#000000"/><path d="M374.50001,118v18h-258.89941v-18z" fill="#000000"/><path d="M115.5,63v56h-17v-56z" fill="#000000"/><g><path d="M49.36369,136.3635v-9.39796h57.74528v9.39796z" fill="#dfa459"/><path d="M35.60551,134.76759v-77.78054h85.29891v77.78054z" fill="#aa7e44"/><path d="M40.52804,129.03736v-67.47057h73.63149v67.47057z" fill="#dfa459"/><g><g><g fill="#000000"><path d="M92.42047,111.02808v-18.66221h18.66222v18.66221z"/><path d="M89.64354,109.53471v-15.58174h24.56646v15.58174z"/><path d="M94.05442,89.50746h15.58174v24.56646h-15.58174z"/></g><g fill="#ededed"><path d="M94.30631,109.02633v-14.48751h14.48753v14.48751z"/><path d="M92.15059,107.86701v-12.09614h19.071v12.09614z"/><path d="M95.57475,92.31981h12.09614v19.071h-12.09614z"/></g></g><g fill="#000000"><path d="M97.41778,106.05193v-8.22549h8.22549v8.22549z"/><path d="M96.19384,105.39371v-6.86773h10.82781v6.86773z"/><path d="M98.13797,96.56658h6.86773v10.82781h-6.86773z"/></g></g><g><g><g fill="#000000"><path d="M47.88332,110.04755v-18.66219h18.66222v18.66219z"/><path d="M45.1064,108.55416v-15.58174h24.56646v15.58174z"/><path d="M49.51725,88.52691h15.58172v24.56646h-15.58172z"/></g><g fill="#ededed"><path d="M49.76916,108.0458v-14.48753h14.48753v14.48753z"/><path d="M47.61345,106.88646v-12.09614h19.071v12.09614z"/><path d="M51.03761,91.33928h12.09614v19.071h-12.09614z"/></g></g><g fill="#000000"><path d="M52.88061,105.07138v-8.22549h8.22549v8.22549z"/><path d="M51.65669,104.41317v-6.86775h10.82781v6.86775z"/><path d="M53.60077,95.58603h6.86775v10.82781h-6.86775z"/></g></g><path d="M43.74501,141.50157v-7.91131h68.69021v7.91131z" fill="#aa7e44"/><g fill="#000000"><path d="M51.99673,125.32931v-3.76728h51.48625v3.76728z"/><path d="M49.86195,129.43892v-11.30186h4.14401v11.30186z"/><path d="M101.56678,128.30873v-8.91592h4.01845v8.91592z"/></g><g><g fill="#41311a"><path d="M32.79478,79.72002v-34.25824h97.68096v34.25824z"/><path d="M23.82407,88.535v-28.24803h60.40273v28.24803z"/><path d="M46.37878,54.53081v-16.8286h80.93565v16.8286z"/><path d="M52.15989,49.72265v-14.22419h72.9617v14.22419z"/></g><path d="M36.95197,77.29391v-30.95416h88.69905v30.95416z" fill="#6a4f2a"/><path d="M35.96069,61.56236v-4.47329h42.6682v4.47329z" fill="#41311a"/><path d="M28.80614,85.25871v-25.5236h54.8486v25.5236z" fill="#6a4f2a"/><path d="M86.36665,56.00369v-2.05025h36.30237v2.05025z" fill="#41311a"/><path d="M49.28691,54.53411v-15.20556h73.49349v15.20556z" fill="#6a4f2a"/><path d="M58.50902,43.16825v-3.78509h43.01228v3.78509z" fill="#f0c992"/><path d="M85.68775,45.32026v-7.22606h23.39869v7.22606z" fill="#f0c992"/><path d="M54.53646,40.03877v-2.70141h66.25276v2.70141z" fill="#6a4f2a"/><path d="M37.15179,48.94459v-2.32982h12.21549v2.32982z" fill="#f0c992"/><path d="M49.28828,48.86104v-8.94655h1.20435v8.94655z" fill="#f0c992"/><path d="M49.6324,41.46292v-1.89254h4.81737v1.89254z" fill="#f0c992"/><path d="M54.27773,41.46292v-4.30122h1.54843v4.30122z" fill="#f0c992"/><path d="M29.56774,64.9555v-2.58074h21.3341v2.58074z" fill="#f0c992"/></g></g></g></g></svg>