<svg version="1.1" xmlns="http://www.w3.org/2000/svg" xmlns:xlink="http://www.w3.org/1999/xlink" width="57.35187" height="57.00311" viewBox="0,0,57.35187,57.00311"><g transform="translate(-211.32406,-151.49844)"><g data-paper-data="{&quot;isPaintingLayer&quot;:true}" fill-rule="nonzero" stroke="none" stroke-width="0" stroke-linecap="butt" stroke-linejoin="miter" stroke-miterlimit="10" stroke-dasharray="" stroke-dashoffset="0" style="mix-blend-mode: normal"><path d="M225.05798,205.73857v-5.05375h31.05249v5.05375z" fill="#dfa459"/><path d="M217.65953,204.88037v-41.82644h45.86944v41.82644z" fill="#aa7e44"/><path d="M220.30662,201.79894v-36.28226h39.59529v36.28226z" fill="#dfa459"/><g><g><g fill="#000000"><path d="M248.21173,192.11446v-10.03559h10.0356v10.03559z"/><path d="M246.71845,191.3114v-8.37907h13.2106v8.37907z"/><path d="M249.09039,180.54176h8.37907v13.2106h-8.37907z"/></g><g fill="#ededed"><path d="M249.22585,191.03802v-7.79065h7.79066v7.79065z"/><path d="M248.06661,190.4146v-6.50469h10.25542v6.50469z"/><path d="M249.90795,182.0541h6.50469v10.25542h-6.50469z"/></g></g><g fill="#000000"><path d="M250.89903,189.43854v-4.42325h4.42325v4.42325z"/><path d="M250.24086,189.08458v-3.69312h5.82265v3.69312z"/><path d="M251.2863,184.3378h3.69312v5.82265h-3.69312z"/></g></g><g><g><g fill="#000000"><path d="M224.26191,191.58718v-10.03558h10.0356v10.03558z"/><path d="M222.76863,190.78411v-8.37907h13.2106v8.37907z"/><path d="M225.14056,180.01447h8.37906v13.2106h-8.37906z"/></g><g fill="#ededed"><path d="M225.27602,190.51074v-7.79066h7.79066v7.79066z"/><path d="M224.11679,189.88731v-6.50469h10.25542v6.50469z"/><path d="M225.95813,181.52682h6.50469v10.25542h-6.50469z"/></g></g><g fill="#000000"><path d="M226.9492,188.91125v-4.42325h4.42325v4.42325z"/><path d="M226.29104,188.5573v-3.69313h5.82265v3.69313z"/><path d="M227.33647,183.81051h3.69313v5.82265h-3.69313z"/></g></g><path d="M222.03654,208.50156v-4.2543h36.93812v4.2543z" fill="#aa7e44"/><g fill="#000000"><path d="M226.4739,199.80494v-2.02585h27.6867v2.02585z"/><path d="M225.32592,202.01488v-6.07757h2.22844v6.07757z"/><path d="M253.13016,201.40712v-4.79453h2.16092v4.79453z"/></g><g><g fill="#41311a"><path d="M216.14806,175.27857v-18.42235h52.52788v18.42235z"/><path d="M211.32407,180.01882v-15.19036h32.48153v15.19036z"/><path d="M223.45285,161.73309v-9.04957h43.5231v9.04957z"/><path d="M226.56164,159.1475v-7.64905h39.23511v7.64905z"/></g><path d="M218.38359,173.97393v-16.64558h47.69786v16.64558z" fill="#6a4f2a"/><path d="M217.85053,165.5143v-2.40551h22.9448v2.40551z" fill="#41311a"/><path d="M214.00317,178.257v-13.7253h29.4948v13.7253z" fill="#6a4f2a"/><path d="M244.95628,162.52513v-1.10252h19.52158v1.10252z" fill="#41311a"/><path d="M225.01669,161.73486v-8.17678h39.52108v8.17678z" fill="#6a4f2a"/><path d="M229.97588,155.62288v-2.03543h23.12983v2.03543z" fill="#f0c992"/><path d="M244.59121,156.78012v-3.88581h12.58263v3.88581z" fill="#f0c992"/><path d="M227.83963,153.94v-1.45268h35.62738v1.45268z" fill="#6a4f2a"/><path d="M218.49104,158.7291v-1.25286h6.56887v1.25286z" fill="#f0c992"/><path d="M225.01743,158.68417v-4.811h0.64764v4.811z" fill="#f0c992"/><path d="M225.20248,154.70584v-1.01771h2.59054v1.01771z" fill="#f0c992"/><path d="M227.7005,154.70584v-2.31298h0.83267v2.31298z" fill="#f0c992"/><path d="M214.41272,167.33896v-1.38779h11.4724v1.38779z" fill="#f0c992"/></g></g></g></svg>