<svg version="1.1" xmlns="http://www.w3.org/2000/svg" xmlns:xlink="http://www.w3.org/1999/xlink" width="484.47447" height="360.36036" viewBox="0,0,484.47447,360.36036"><g transform="translate(1.19444,1.12921)"><g data-paper-data="{&quot;isPaintingLayer&quot;:true}" fill-rule="nonzero" stroke="none" stroke-linecap="butt" stroke-linejoin="miter" stroke-miterlimit="10" stroke-dasharray="" stroke-dashoffset="0" style="mix-blend-mode: normal"><g stroke-width="0"><path d="M205.50571,218.14643v-10.50528h31.39076v10.50528z" fill="#cb9651"/><g fill="#ebae5e"><path d="M203.66257,218.0107v-7.29411h7.29412v7.29411z"/><path d="M202.57721,217.42702v-6.09012h9.6018v6.09013z"/><path d="M204.30119,209.59937h6.09011v9.6018h-6.09011z"/></g><g fill="#ebae5e"><path d="M213.79511,218.11441v-5.77436h5.77436v5.77436z"/><path d="M212.93589,217.65234v-4.82122h7.60122v4.82122z"/><path d="M214.30067,211.45561h4.82121v7.60123h-4.82121z"/></g><g fill="#ebae5e"><path d="M222.72481,217.89863v-5.77436h5.77436v5.77436z"/><path d="M221.86559,217.43656v-4.82122h7.60122v4.82122z"/><path d="M223.23037,211.23983h4.82121v7.60123h-4.82121z"/></g><g fill="#ebae5e"><path d="M232.13602,218.14581v-4.68882h4.68882v4.68882z"/><path d="M231.43833,217.77061v-3.91486h6.17224v3.91486z"/><path d="M232.54654,212.73882h3.91486v6.17225h-3.91486z"/></g></g><g fill="#532d15" stroke-width="0"><path d="M213.73798,169.65122v-10.62937h54.4275v10.62937z"/><path d="M205.37854,185.80458v-20.74648h69.53913v20.74648z"/></g><g fill="#442411" stroke-width="0"><path d="M216.49901,169.58957v-10.39814h49.28718v10.39814z"/><path d="M218.99457,175.20457v-7.2787h42.84033v7.2787z"/></g><path d="M225.0842,169.72873v-5.05375h31.05249v5.05375z" fill="#dfa459" stroke-width="0"/><path d="M205.36867,208.81456v-24.6756h69.78683v24.6756z" fill="#361d0e" stroke-width="0"/><path d="M213.55794,189.12374v-8.90139h53.40829v8.90139z" fill="#532d15" stroke-width="0"/><path d="M217.68575,168.87053v-41.82644h45.86944v41.82644z" fill="#aa7e44" stroke-width="0"/><path d="M220.33284,165.7891v-36.28226h39.59529v36.28226z" fill="#dfa459" stroke-width="0"/><g stroke-width="0"><g><g fill="#000000"><path d="M248.23795,156.10462v-10.03559h10.0356v10.03559z"/><path d="M246.74467,155.30156v-8.37907h13.2106v8.37907z"/><path d="M249.11661,144.53192h8.37907v13.2106h-8.37907z"/></g><g fill="#ededed"><path d="M249.25207,155.02818v-7.79065h7.79066v7.79065z"/><path d="M248.09283,154.40476v-6.50469h10.25542v6.50469z"/><path d="M249.93417,146.04426h6.50469v10.25542h-6.50469z"/></g></g><g fill="#000000"><path d="M250.92525,153.4287v-4.42325h4.42325v4.42325z"/><path d="M250.26708,153.07474v-3.69312h5.82265v3.69312z"/><path d="M251.31252,148.32796h3.69312v5.82265h-3.69312z"/></g></g><g stroke-width="0"><g><g fill="#000000"><path d="M224.28813,155.57734v-10.03558h10.0356v10.03558z"/><path d="M222.79485,154.77427v-8.37907h13.2106v8.37907z"/><path d="M225.16679,144.00463h8.37906v13.2106h-8.37906z"/></g><g fill="#ededed"><path d="M225.30225,154.5009v-7.79066h7.79066v7.79066z"/><path d="M224.14301,153.87747v-6.50469h10.25542v6.50469z"/><path d="M225.98435,145.51698h6.50469v10.25542h-6.50469z"/></g></g><g fill="#000000"><path d="M226.97543,152.90141v-4.42325h4.42325v4.42325z"/><path d="M226.31726,152.54746v-3.69313h5.82265v3.69313z"/><path d="M227.3627,147.80067h3.69313v5.82265h-3.69313z"/></g></g><path d="M222.06276,172.49172v-4.2543h36.93812v4.2543z" fill="#aa7e44" stroke-width="0"/><g fill="#000000" stroke-width="0"><path d="M226.50013,163.7951v-2.02585h27.6867v2.02585z"/><path d="M225.35215,166.00504v-6.07757h2.22844v6.07757z"/><path d="M253.15638,165.39728v-4.79453h2.16092v4.79453z"/></g><g stroke-width="0"><g fill="#41311a"><path d="M216.17428,139.26873v-18.42235h52.52788v18.42235z"/><path d="M211.35029,144.00898v-15.19036h32.48153v15.19036z"/><path d="M223.47907,125.72325v-9.04957h43.5231v9.04957z"/><path d="M226.58786,123.13766v-7.64905h39.23511v7.64905z"/></g><path d="M218.40981,137.96409v-16.64558h47.69786v16.64558z" fill="#6a4f2a"/><path d="M217.87676,129.50446v-2.40551h22.9448v2.40551z" fill="#41311a"/><path d="M214.02939,142.24716v-13.7253h29.4948v13.7253z" fill="#6a4f2a"/><path d="M244.98251,126.51529v-1.10252h19.52158v1.10252z" fill="#41311a"/><path d="M225.04291,125.72502v-8.17678h39.52108v8.17678z" fill="#6a4f2a"/><path d="M230.0021,119.61304v-2.03543h23.12983v2.03543z" fill="#f0c992"/><path d="M244.61743,120.77028v-3.88581h12.58263v3.88581z" fill="#f0c992"/><path d="M227.86585,117.93016v-1.45268h35.62738v1.45268z" fill="#6a4f2a"/><path d="M218.51726,122.71926v-1.25286h6.56887v1.25286z" fill="#f0c992"/><path d="M225.04366,122.67433v-4.811h0.64764v4.811z" fill="#f0c992"/><path d="M225.2287,118.696v-1.01771h2.59054v1.01771z" fill="#f0c992"/><path d="M227.72672,118.696v-2.31298h0.83267v2.31298z" fill="#f0c992"/><path d="M214.43894,131.32912v-1.38779h11.4724v1.38779z" fill="#f0c992"/></g><path d="M236.89025,208.91564v-9.2074h4.6037v9.2074z" fill="#201108" stroke-width="0"/><g data-paper-data="{&quot;index&quot;:null}" stroke-width="0"><path d="M243.3728,219.28818v-10.50528h31.39076v10.50528z" fill="#cb9651"/><g fill="#ebae5e"><path d="M269.31258,219.15245v-7.29411h7.29412v7.29411z"/><path d="M268.09027,218.56877v-6.09012h9.6018v6.09013z"/><path d="M275.96808,220.34292h-6.09012v-9.6018h6.09012z"/></g><g fill="#ebae5e"><path d="M260.6998,219.25616v-5.77436h5.77436v5.77436z"/><path d="M259.73216,218.79409v-4.82122h7.60122v4.82122z"/><path d="M265.9686,220.19858h-4.82121v-7.60122h4.82121z"/></g><g fill="#ebae5e"><path d="M251.7701,219.04038v-5.77436h5.77436v5.77436z"/><path d="M250.80246,218.57831v-4.82122h7.60122v4.82122z"/><path d="M257.0389,219.9828h-4.82122v-7.60122h4.82122z"/></g><g fill="#ebae5e"><path d="M243.44443,219.28756v-4.68882h4.68882v4.68882z"/><path d="M242.6587,218.91236v-3.91486h6.17224v3.91486z"/><path d="M247.72273,220.05282h-3.91485v-6.17225h3.91485z"/></g></g><g data-paper-data="{&quot;index&quot;:null}" stroke-width="0"><path d="M291.07711,173.45764l6.22336,17.73785l-17.51499,6.14517l-6.22337,-17.73785z" fill="#d8a057"/><g fill="#ebae5e"><path d="M283.60781,191.75199l0.02526,11.50031l-4.22169,0.00927l-0.02526,-11.50031z"/><path d="M284.31728,192.6707l0.02109,9.60203l-5.55734,0.0122l-0.02109,-9.60203z"/><path d="M279.75162,189.8835l3.52484,-0.00774l0.03325,15.13873l-3.52485,0.00774z"/></g><g fill="#ebae5e"><path d="M290.42476,189.70067l3.64183,10.37995l-3.98363,1.39767l-3.64183,-10.37995z"/><path d="M291.38374,190.29708l3.0407,8.66659l-5.24396,1.83986l-3.04069,-8.6666z"/><path d="M286.19553,189.28187l3.32608,-1.16696l4.79401,13.66392l-3.32607,1.16696z"/></g><g fill="#ebae5e"><path d="M295.89006,186.44544l2.04065,9.51136l-3.35669,0.69979l-2.04066,-9.51136z"/><path d="M296.61585,187.08928l1.70382,7.94138l-4.41867,0.9212l-1.70382,-7.94139z"/><path d="M292.4942,185.53162l2.80262,-0.58428l2.68627,12.52053l-2.80262,0.58428z"/></g><path d="M292.35597,175.56839l3.89878,11.1123l-19.58305,6.87076l-3.89878,-11.11231z" fill="#d8a057"/><g fill="#ebae5e"><path d="M278.17187,188.2704l-5.92843,6.77142l-4.01235,-3.51284l5.92843,-6.77142z"/><path d="M278.36984,189.40091l-4.94986,5.65372l-5.28176,-4.62421l4.94987,-5.65372z"/><path d="M275.47839,183.95996l3.35005,2.933l-7.80404,8.91375l-3.35005,-2.933z"/></g></g><g data-paper-data="{&quot;index&quot;:null}" stroke-width="0"><path d="M177.71634,174.81355l-18.68623,2.04612l-2.02042,-18.45145l18.68622,-2.04613z" fill="#d8a057"/><g fill="#ebae5e"><path d="M164.23498,174.81064l-10.38378,4.94316l-1.81461,-3.81182l10.38378,-4.94316z"/><path d="M163.67408,175.7734l-8.6698,4.12723l-2.38871,-5.01779l8.6698,-4.12723z"/><path d="M152.10186,180.1772l-1.51508,-3.18263l13.66896,-6.50706l1.51508,3.18262z"/></g><g fill="#ebae5e"><path d="M161.78648,168.16101l-10.93493,1.19736l-0.45952,-4.19662l10.93493,-1.19736z"/><path d="M160.97984,168.88129l-9.12997,0.99973l-0.60491,-5.52434l9.12996,-0.99972z"/><path d="M149.13645,169.17434l-0.38367,-3.5039l14.39447,-1.57619l0.38368,3.50391z"/></g><g fill="#ebae5e"><path d="M162.72137,160.95904l-9.46009,2.2665l-0.81827,-3.32979l9.46008,-2.26651z"/><path d="M162.08612,161.63588l-7.89858,1.89239l-1.07714,-4.38327l7.89857,-1.89238z"/><path d="M151.74066,163.28116l-0.6832,-2.78016l12.45303,-2.98357l0.6832,2.78016z"/></g><path d="M175.49884,176.75013l-11.70644,1.28184l-2.25897,-20.63008l11.70643,-1.28184z" fill="#d8a057"/><g fill="#ebae5e"><path d="M172.80896,176.50058l-3.54763,8.2712l-4.90103,-2.10212l3.54763,-8.2712z"/><path d="M173.25435,177.47523l-2.96205,6.90594l-6.45159,-2.76718l2.96206,-6.90593z"/><path d="M168.28884,185.8546l-4.09205,-1.75513l4.67003,-10.88801l4.09205,1.75513z"/></g></g><path d="M-1.19444,356.73115c0,-1.38071 1.11929,-2.5 2.5,-2.5c1.38071,0 2.5,1.11929 2.5,2.5c0,1.38071 -1.11929,2.5 -2.5,2.5c-1.38071,0 -2.5,-1.11929 -2.5,-2.5z" fill="none" stroke-width="0.5"/><path d="M478.28003,1.37079c0,-1.38071 1.11929,-2.5 2.5,-2.5c1.38071,0 2.5,1.11929 2.5,2.5c0,1.38071 -1.11929,2.5 -2.5,2.5c-1.38071,0 -2.5,-1.11929 -2.5,-2.5z" fill="none" stroke-width="0.5"/></g></g></svg>